<?xml version="1.0" encoding="UTF-8" standalone="no"?>
<!-- Created with Inkscape (http://www.inkscape.org/) -->

<svg
   xmlns:dc="http://purl.org/dc/elements/1.1/"
   xmlns:cc="http://creativecommons.org/ns#"
   xmlns:rdf="http://www.w3.org/1999/02/22-rdf-syntax-ns#"
   xmlns:svg="http://www.w3.org/2000/svg"
   xmlns="http://www.w3.org/2000/svg"
   xmlns:sodipodi="http://sodipodi.sourceforge.net/DTD/sodipodi-0.dtd"
   xmlns:inkscape="http://www.inkscape.org/namespaces/inkscape"
   width="300mm"
   height="300mm"
   viewBox="0 0 300 300"
   version="1.1"
   id="svg8"
   inkscape:version="0.92.2 (5c3e80d, 2017-08-06)"
   sodipodi:docname="cap_serpent_icon.svg">
  <defs
     id="defs2" />
  <sodipodi:namedview
     id="base"
     pagecolor="#ffffff"
     bordercolor="#666666"
     borderopacity="1.0"
     inkscape:pageopacity="0.0"
     inkscape:pageshadow="2"
     inkscape:zoom="0.49497475"
     inkscape:cx="190.36061"
     inkscape:cy="549.8653"
     inkscape:document-units="mm"
     inkscape:current-layer="layer1"
     showgrid="false"
     inkscape:window-width="1920"
     inkscape:window-height="1001"
     inkscape:window-x="-9"
     inkscape:window-y="-9"
     inkscape:window-maximized="1" />
  <metadata
     id="metadata5">
    <rdf:RDF>
      <cc:Work
         rdf:about="">
        <dc:format>image/svg+xml</dc:format>
        <dc:type
           rdf:resource="http://purl.org/dc/dcmitype/StillImage" />
        <dc:title></dc:title>
      </cc:Work>
    </rdf:RDF>
  </metadata>
  <g
     inkscape:label="Layer 1"
     inkscape:groupmode="layer"
     id="layer1"
     transform="translate(0,3)">
    <path
       style="opacity:1;fill:#b3b3b3;fill-opacity:1;fill-rule:evenodd;stroke-width:0.55003887"
       id="path815"
       sodipodi:type="arc"
       sodipodi:cx="150.45166"
       sodipodi:cy="148.23198"
       sodipodi:rx="148.35135"
       sodipodi:ry="150.57382"
       sodipodi:start="5.0426925"
       sodipodi:end="4.7522523"
       sodipodi:open="true"
       d="M 198.56648,5.7975839 A 148.35135,150.57382 0 0 1 293.9045,186.60585 148.35135,150.57382 0 0 1 123.15078,296.23414 148.35135,150.57382 0 0 1 3.037664,131.33212 148.35135,150.57382 0 0 1 156.36387,-2.2222212" />
    <path
       style="fill:#ff8080;stroke:#000000;stroke-width:0.55003887px;stroke-linecap:butt;stroke-linejoin:miter;stroke-opacity:1"
       d="M 114.33619,42.107965 C 251.01946,96.559012 254.35322,102.11526 254.35322,102.11526 L 241.01825,219.90735 C 208.79213,241.6408 176.56599,248.1019 144.33985,255.46724 109.0084,237.4655 59.469196,231.48573 59.885136,183.23621 L 73.220091,104.33776 C 95.664485,89.356307 121.25614,93.258415 146.56234,95.447781 l 72.231,21.113669 -5.55621,71.11975 c -18.28318,17.68553 -39.13367,26.38545 -63.34104,23.33617 -26.03402,-6.76086 -44.2803,-20.33598 -46.67234,-47.78356 l 34.44861,-30.00366 37.78239,18.8912 v 0 l 5.55621,-11.11249 -38.8936,-21.11367 -55.562314,41.11611 c 7.497356,45.01258 33.007904,53.99883 57.784804,64.45226 28.15157,-3.56192 56.30314,-7.4993 84.45469,-25.55866 l 4.44499,-87.78843 -81.12094,-38.893614 C 120.80742,70.041161 91.94128,74.194548 66.552616,88.78031 l -28.892403,97.78964 c 12.162187,55.50027 55.913633,66.77557 96.678417,82.23222 50.78798,-1.05993 85.68601,-21.98227 125.57084,-36.6711 L 274.35565,103.2265 C 226.3481,59.457296 173.87899,51.380387 123.22619,28.773014 Z"
       id="path817"
       inkscape:connector-curvature="0"
       sodipodi:nodetypes="cccccccccccccccccccccccccccc" />
    <path
       style="opacity:1;fill:#000000;fill-opacity:1;fill-rule:evenodd;stroke-width:0.55003887"
       id="path819"
       sodipodi:type="arc"
       sodipodi:cx="172.67662"
       sodipodi:cy="55.336876"
       sodipodi:rx="2.778115"
       sodipodi:ry="3.3337383"
       sodipodi:start="5.0426925"
       sodipodi:end="4.7522523"
       sodipodi:open="true"
       d="m 173.57765,52.183346 a 2.778115,3.3337383 0 0 1 1.78535,4.003136 2.778115,3.3337383 0 0 1 -3.19763,2.427195 2.778115,3.3337383 0 0 1 -2.24931,-3.650968 2.778115,3.3337383 0 0 1 2.87128,-2.956923" />
    <path
       style="opacity:1;fill:#000000;fill-opacity:1;fill-rule:evenodd;stroke-width:0.55003887"
       id="path819-0"
       sodipodi:type="arc"
       sodipodi:cx="195.21227"
       sodipodi:cy="64.596916"
       sodipodi:rx="2.778115"
       sodipodi:ry="3.3337383"
       sodipodi:start="5.0426925"
       sodipodi:end="4.7522523"
       sodipodi:open="true"
       d="m 196.11329,61.443387 a 2.778115,3.3337383 0 0 1 1.78536,4.003135 2.778115,3.3337383 0 0 1 -3.19764,2.427195 2.778115,3.3337383 0 0 1 -2.24931,-3.650968 2.778115,3.3337383 0 0 1 2.87128,-2.956923" />
    <path
       style="opacity:1;fill:#000000;fill-opacity:1;fill-rule:evenodd;stroke-width:0.55003887"
       id="path819-4"
       sodipodi:type="arc"
       sodipodi:cx="217.46101"
       sodipodi:cy="76.099594"
       sodipodi:rx="2.778115"
       sodipodi:ry="3.3337383"
       sodipodi:start="5.0426925"
       sodipodi:end="4.7522523"
       sodipodi:open="true"
       d="m 218.36204,72.946065 a 2.778115,3.3337383 0 0 1 1.78536,4.003135 2.778115,3.3337383 0 0 1 -3.19764,2.427195 2.778115,3.3337383 0 0 1 -2.24931,-3.650968 2.778115,3.3337383 0 0 1 2.87128,-2.956923" />
    <path
       style="opacity:1;fill:#000000;fill-opacity:1;fill-rule:evenodd;stroke-width:0.55003887"
       id="path819-8"
       sodipodi:type="arc"
       sodipodi:cx="141.24135"
       sodipodi:cy="44.275928"
       sodipodi:rx="2.778115"
       sodipodi:ry="3.3337383"
       sodipodi:start="5.0426925"
       sodipodi:end="4.7522523"
       sodipodi:open="true"
       d="m 142.14237,41.122399 a 2.778115,3.3337383 0 0 1 1.78536,4.003136 2.778115,3.3337383 0 0 1 -3.19763,2.427195 2.778115,3.3337383 0 0 1 -2.24931,-3.650968 2.778115,3.3337383 0 0 1 2.87127,-2.956923" />
    <path
       style="opacity:1;fill:#000000;fill-opacity:1;fill-rule:evenodd;stroke-width:0.55003887"
       id="path819-3"
       sodipodi:type="arc"
       sodipodi:cx="242.21275"
       sodipodi:cy="87.100372"
       sodipodi:rx="2.778115"
       sodipodi:ry="3.3337383"
       sodipodi:start="5.0426925"
       sodipodi:end="4.7522523"
       sodipodi:open="true"
       d="m 243.11378,83.946843 a 2.778115,3.3337383 0 0 1 1.78536,4.003135 2.778115,3.3337383 0 0 1 -3.19764,2.427195 2.778115,3.3337383 0 0 1 -2.24931,-3.650967 2.778115,3.3337383 0 0 1 2.87128,-2.956924" />
    <path
       style="opacity:1;fill:#000000;fill-opacity:1;fill-rule:evenodd;stroke-width:0.55003887"
       id="path819-49"
       sodipodi:type="arc"
       sodipodi:cx="265.78592"
       sodipodi:cy="109.4948"
       sodipodi:rx="2.778115"
       sodipodi:ry="3.3337383"
       sodipodi:start="5.0426925"
       sodipodi:end="4.7522523"
       sodipodi:open="true"
       d="m 266.68695,106.34127 a 2.778115,3.3337383 0 0 1 1.78535,4.00313 2.778115,3.3337383 0 0 1 -3.19763,2.4272 2.778115,3.3337383 0 0 1 -2.24931,-3.65097 2.778115,3.3337383 0 0 1 2.87127,-2.95692" />
    <path
       style="opacity:1;fill:#000000;fill-opacity:1;fill-rule:evenodd;stroke-width:0.55003887"
       id="path819-5"
       sodipodi:type="arc"
       sodipodi:cx="262.24994"
       sodipodi:cy="134.63947"
       sodipodi:rx="2.778115"
       sodipodi:ry="3.3337383"
       sodipodi:start="5.0426925"
       sodipodi:end="4.7522523"
       sodipodi:open="true"
       d="m 263.15097,131.48594 a 2.778115,3.3337383 0 0 1 1.78535,4.00313 2.778115,3.3337383 0 0 1 -3.19763,2.4272 2.778115,3.3337383 0 0 1 -2.24931,-3.65097 2.778115,3.3337383 0 0 1 2.87127,-2.95692" />
    <path
       style="opacity:1;fill:#000000;fill-opacity:1;fill-rule:evenodd;stroke-width:0.55003887"
       id="path819-7"
       sodipodi:type="arc"
       sodipodi:cx="259.89261"
       sodipodi:cy="160.96271"
       sodipodi:rx="2.778115"
       sodipodi:ry="3.3337383"
       sodipodi:start="5.0426925"
       sodipodi:end="4.7522523"
       sodipodi:open="true"
       d="m 260.79364,157.80918 a 2.778115,3.3337383 0 0 1 1.78535,4.00313 2.778115,3.3337383 0 0 1 -3.19763,2.4272 2.778115,3.3337383 0 0 1 -2.24931,-3.65097 2.778115,3.3337383 0 0 1 2.87127,-2.95692" />
    <path
       style="opacity:1;fill:#000000;fill-opacity:1;fill-rule:evenodd;stroke-width:0.55003887"
       id="path819-6"
       sodipodi:type="arc"
       sodipodi:cx="255.9637"
       sodipodi:cy="186.10735"
       sodipodi:rx="2.778115"
       sodipodi:ry="3.3337383"
       sodipodi:start="5.0426925"
       sodipodi:end="4.7522523"
       sodipodi:open="true"
       d="m 256.86473,182.95382 a 2.778115,3.3337383 0 0 1 1.78535,4.00313 2.778115,3.3337383 0 0 1 -3.19763,2.4272 2.778115,3.3337383 0 0 1 -2.24931,-3.65097 2.778115,3.3337383 0 0 1 2.87127,-2.95692" />
    <path
       style="opacity:1;fill:#000000;fill-opacity:1;fill-rule:evenodd;stroke-width:0.55003887"
       id="path819-68"
       sodipodi:type="arc"
       sodipodi:cx="252.82066"
       sodipodi:cy="210.46619"
       sodipodi:rx="2.778115"
       sodipodi:ry="3.3337383"
       sodipodi:start="5.0426925"
       sodipodi:end="4.7522523"
       sodipodi:open="true"
       d="m 253.72169,207.31266 a 2.778115,3.3337383 0 0 1 1.78536,4.00313 2.778115,3.3337383 0 0 1 -3.19764,2.4272 2.778115,3.3337383 0 0 1 -2.24931,-3.65097 2.778115,3.3337383 0 0 1 2.87128,-2.95692" />
    <path
       style="opacity:1;fill:#000000;fill-opacity:1;fill-rule:evenodd;stroke-width:0.55003887"
       id="path819-9"
       sodipodi:type="arc"
       sodipodi:cx="241.427"
       sodipodi:cy="231.28909"
       sodipodi:rx="2.778115"
       sodipodi:ry="3.3337383"
       sodipodi:start="5.0426925"
       sodipodi:end="4.7522523"
       sodipodi:open="true"
       d="m 242.32803,228.13556 a 2.778115,3.3337383 0 0 1 1.78535,4.00314 2.778115,3.3337383 0 0 1 -3.19763,2.42719 2.778115,3.3337383 0 0 1 -2.24931,-3.65096 2.778115,3.3337383 0 0 1 2.87128,-2.95693" />
    <path
       style="opacity:1;fill:#000000;fill-opacity:1;fill-rule:evenodd;stroke-width:0.55003887"
       id="path819-1"
       sodipodi:type="arc"
       sodipodi:cx="220.60408"
       sodipodi:cy="240.71837"
       sodipodi:rx="2.778115"
       sodipodi:ry="3.3337383"
       sodipodi:start="5.0426925"
       sodipodi:end="4.7522523"
       sodipodi:open="true"
       d="m 221.50511,237.56484 a 2.778115,3.3337383 0 0 1 1.78535,4.00313 2.778115,3.3337383 0 0 1 -3.19763,2.4272 2.778115,3.3337383 0 0 1 -2.24931,-3.65097 2.778115,3.3337383 0 0 1 2.87128,-2.95692" />
    <path
       style="opacity:1;fill:#000000;fill-opacity:1;fill-rule:evenodd;stroke-width:0.55003887"
       id="path819-34"
       sodipodi:type="arc"
       sodipodi:cx="191.53062"
       sodipodi:cy="250.93338"
       sodipodi:rx="2.778115"
       sodipodi:ry="3.3337383"
       sodipodi:start="5.0426925"
       sodipodi:end="4.7522523"
       sodipodi:open="true"
       d="m 192.43165,247.77985 a 2.778115,3.3337383 0 0 1 1.78536,4.00314 2.778115,3.3337383 0 0 1 -3.19764,2.42719 2.778115,3.3337383 0 0 1 -2.24931,-3.65097 2.778115,3.3337383 0 0 1 2.87128,-2.95692" />
    <path
       style="opacity:1;fill:#000000;fill-opacity:1;fill-rule:evenodd;stroke-width:0.55003887"
       id="path819-09"
       sodipodi:type="arc"
       sodipodi:cx="164.81445"
       sodipodi:cy="257.21948"
       sodipodi:rx="2.778115"
       sodipodi:ry="3.3337383"
       sodipodi:start="5.0426925"
       sodipodi:end="4.7522523"
       sodipodi:open="true"
       d="m 165.71548,254.06595 a 2.778115,3.3337383 0 0 1 1.78536,4.00314 2.778115,3.3337383 0 0 1 -3.19764,2.42719 2.778115,3.3337383 0 0 1 -2.24931,-3.65096 2.778115,3.3337383 0 0 1 2.87128,-2.95693" />
    <path
       style="opacity:1;fill:#000000;fill-opacity:1;fill-rule:evenodd;stroke-width:0.55003887"
       id="path819-14"
       sodipodi:type="arc"
       sodipodi:cx="136.13385"
       sodipodi:cy="262.32703"
       sodipodi:rx="2.778115"
       sodipodi:ry="3.3337383"
       sodipodi:start="5.0426925"
       sodipodi:end="4.7522523"
       sodipodi:open="true"
       d="m 137.03488,259.1735 a 2.778115,3.3337383 0 0 1 1.78535,4.00313 2.778115,3.3337383 0 0 1 -3.19763,2.4272 2.778115,3.3337383 0 0 1 -2.24931,-3.65097 2.778115,3.3337383 0 0 1 2.87128,-2.95692" />
    <path
       style="opacity:1;fill:#000000;fill-opacity:1;fill-rule:evenodd;stroke-width:0.55003887"
       id="path819-96"
       sodipodi:type="arc"
       sodipodi:cx="112.95369"
       sodipodi:cy="250.93338"
       sodipodi:rx="2.778115"
       sodipodi:ry="3.3337383"
       sodipodi:start="5.0426925"
       sodipodi:end="4.7522523"
       sodipodi:open="true"
       d="m 113.85472,247.77985 a 2.778115,3.3337383 0 0 1 1.78535,4.00314 2.778115,3.3337383 0 0 1 -3.19763,2.42719 2.778115,3.3337383 0 0 1 -2.24931,-3.65097 2.778115,3.3337383 0 0 1 2.87128,-2.95692" />
    <path
       style="opacity:1;fill:#000000;fill-opacity:1;fill-rule:evenodd;stroke-width:0.55003887"
       id="path819-147"
       sodipodi:type="arc"
       sodipodi:cx="83.880219"
       sodipodi:cy="235.61084"
       sodipodi:rx="2.778115"
       sodipodi:ry="3.3337383"
       sodipodi:start="5.0426925"
       sodipodi:end="4.7522523"
       sodipodi:open="true"
       d="m 84.781245,232.45731 a 2.778115,3.3337383 0 0 1 1.785356,4.00314 2.778115,3.3337383 0 0 1 -3.197635,2.42719 2.778115,3.3337383 0 0 1 -2.249309,-3.65097 2.778115,3.3337383 0 0 1 2.871277,-2.95692" />
    <path
       style="opacity:1;fill:#000000;fill-opacity:1;fill-rule:evenodd;stroke-width:0.55003887"
       id="path819-15"
       sodipodi:type="arc"
       sodipodi:cx="59.521336"
       sodipodi:cy="219.10963"
       sodipodi:rx="2.778115"
       sodipodi:ry="3.3337383"
       sodipodi:start="5.0426925"
       sodipodi:end="4.7522523"
       sodipodi:open="true"
       d="m 60.422362,215.9561 a 2.778115,3.3337383 0 0 1 1.785356,4.00314 2.778115,3.3337383 0 0 1 -3.197635,2.4272 2.778115,3.3337383 0 0 1 -2.249309,-3.65097 2.778115,3.3337383 0 0 1 2.871277,-2.95693" />
    <path
       style="opacity:1;fill:#000000;fill-opacity:1;fill-rule:evenodd;stroke-width:0.55003887"
       id="path819-01"
       sodipodi:type="arc"
       sodipodi:cx="49.699207"
       sodipodi:cy="190.82195"
       sodipodi:rx="2.778115"
       sodipodi:ry="3.3337383"
       sodipodi:start="5.0426925"
       sodipodi:end="4.7522523"
       sodipodi:open="true"
       d="m 50.600234,187.66842 a 2.778115,3.3337383 0 0 1 1.785356,4.00313 2.778115,3.3337383 0 0 1 -3.197635,2.4272 2.778115,3.3337383 0 0 1 -2.249309,-3.65097 2.778115,3.3337383 0 0 1 2.871277,-2.95692" />
    <path
       style="opacity:1;fill:#000000;fill-opacity:1;fill-rule:evenodd;stroke-width:0.55003887"
       id="path819-90"
       sodipodi:type="arc"
       sodipodi:cx="54.020962"
       sodipodi:cy="157.81963"
       sodipodi:rx="2.778115"
       sodipodi:ry="3.3337383"
       sodipodi:start="5.0426925"
       sodipodi:end="4.7522523"
       sodipodi:open="true"
       d="m 54.921988,154.6661 a 2.778115,3.3337383 0 0 1 1.785356,4.00313 2.778115,3.3337383 0 0 1 -3.197635,2.4272 2.778115,3.3337383 0 0 1 -2.249309,-3.65097 2.778115,3.3337383 0 0 1 2.871277,-2.95692" />
    <path
       style="opacity:1;fill:#000000;fill-opacity:1;fill-rule:evenodd;stroke-width:0.55003887"
       id="path819-80"
       sodipodi:type="arc"
       sodipodi:cx="62.271534"
       sodipodi:cy="126.78175"
       sodipodi:rx="2.778115"
       sodipodi:ry="3.3337383"
       sodipodi:start="5.0426925"
       sodipodi:end="4.7522523"
       sodipodi:open="true"
       d="m 63.17256,123.62822 a 2.778115,3.3337383 0 0 1 1.785357,4.00314 2.778115,3.3337383 0 0 1 -3.197635,2.42719 2.778115,3.3337383 0 0 1 -2.24931,-3.65096 2.778115,3.3337383 0 0 1 2.871278,-2.95693" />
    <path
       style="opacity:1;fill:#000000;fill-opacity:1;fill-rule:evenodd;stroke-width:0.55003887"
       id="path819-491"
       sodipodi:type="arc"
       sodipodi:cx="90.166344"
       sodipodi:cy="88.279007"
       sodipodi:rx="2.778115"
       sodipodi:ry="3.3337383"
       sodipodi:start="5.0426925"
       sodipodi:end="4.7522523"
       sodipodi:open="true"
       d="m 91.06737,85.125477 a 2.778115,3.3337383 0 0 1 1.785356,4.003136 2.778115,3.3337383 0 0 1 -3.197635,2.427195 2.778115,3.3337383 0 0 1 -2.249309,-3.650968 2.778115,3.3337383 0 0 1 2.871277,-2.956923" />
    <path
       style="opacity:1;fill:#000000;fill-opacity:1;fill-rule:evenodd;stroke-width:0.55003887"
       id="path819-491-2"
       sodipodi:type="arc"
       sodipodi:cx="123.16867"
       sodipodi:cy="84.74308"
       sodipodi:rx="2.778115"
       sodipodi:ry="3.3337383"
       sodipodi:start="5.0426925"
       sodipodi:end="4.7522523"
       sodipodi:open="true"
       d="m 124.0697,81.589551 a 2.778115,3.3337383 0 0 1 1.78535,4.003135 2.778115,3.3337383 0 0 1 -3.19763,2.427195 2.778115,3.3337383 0 0 1 -2.24931,-3.650968 2.778115,3.3337383 0 0 1 2.87128,-2.956923" />
    <path
       style="opacity:1;fill:#000000;fill-opacity:1;fill-rule:evenodd;stroke-width:0.55003887"
       id="path819-491-8"
       sodipodi:type="arc"
       sodipodi:cx="155.77811"
       sodipodi:cy="87.100372"
       sodipodi:rx="2.778115"
       sodipodi:ry="3.3337383"
       sodipodi:start="5.0426925"
       sodipodi:end="4.7522523"
       sodipodi:open="true"
       d="m 156.67913,83.946843 a 2.778115,3.3337383 0 0 1 1.78536,4.003135 2.778115,3.3337383 0 0 1 -3.19764,2.427195 2.778115,3.3337383 0 0 1 -2.2493,-3.650967 2.778115,3.3337383 0 0 1 2.87127,-2.956924" />
    <path
       style="opacity:1;fill:#000000;fill-opacity:1;fill-rule:evenodd;stroke-width:0.55003887"
       id="path819-491-9"
       sodipodi:type="arc"
       sodipodi:cx="185.24442"
       sodipodi:cy="98.101112"
       sodipodi:rx="2.778115"
       sodipodi:ry="3.3337383"
       sodipodi:start="5.0426925"
       sodipodi:end="4.7522523"
       sodipodi:open="true"
       d="m 186.14544,94.947583 a 2.778115,3.3337383 0 0 1 1.78536,4.003135 2.778115,3.3337383 0 0 1 -3.19764,2.427192 2.778115,3.3337383 0 0 1 -2.24931,-3.650964 2.778115,3.3337383 0 0 1 2.87128,-2.956924" />
    <path
       style="opacity:1;fill:#000000;fill-opacity:1;fill-rule:evenodd;stroke-width:0.55003887"
       id="path819-491-6"
       sodipodi:type="arc"
       sodipodi:cx="223.79012"
       sodipodi:cy="132.07198"
       sodipodi:rx="2.778115"
       sodipodi:ry="3.3337383"
       sodipodi:start="5.0426925"
       sodipodi:end="4.7522523"
       sodipodi:open="true"
       d="m 224.69114,128.91845 a 2.778115,3.3337383 0 0 1 1.78536,4.00313 2.778115,3.3337383 0 0 1 -3.19764,2.4272 2.778115,3.3337383 0 0 1 -2.24931,-3.65097 2.778115,3.3337383 0 0 1 2.87128,-2.95692" />
    <path
       style="opacity:1;fill:#000000;fill-opacity:1;fill-rule:evenodd;stroke-width:0.55003887"
       id="path819-491-0"
       sodipodi:type="arc"
       sodipodi:cx="224.14003"
       sodipodi:cy="157.03386"
       sodipodi:rx="2.778115"
       sodipodi:ry="3.3337383"
       sodipodi:start="5.0426925"
       sodipodi:end="4.7522523"
       sodipodi:open="true"
       d="m 225.04106,153.88033 a 2.778115,3.3337383 0 0 1 1.78535,4.00314 2.778115,3.3337383 0 0 1 -3.19763,2.42719 2.778115,3.3337383 0 0 1 -2.24931,-3.65097 2.778115,3.3337383 0 0 1 2.87128,-2.95692" />
    <path
       style="opacity:1;fill:#000000;fill-opacity:1;fill-rule:evenodd;stroke-width:0.55003887"
       id="path819-491-67"
       sodipodi:type="arc"
       sodipodi:cx="222.17563"
       sodipodi:cy="187.28598"
       sodipodi:rx="2.778115"
       sodipodi:ry="3.3337383"
       sodipodi:start="5.0426925"
       sodipodi:end="4.7522523"
       sodipodi:open="true"
       d="m 223.07666,184.13245 a 2.778115,3.3337383 0 0 1 1.78535,4.00314 2.778115,3.3337383 0 0 1 -3.19763,2.42719 2.778115,3.3337383 0 0 1 -2.24931,-3.65097 2.778115,3.3337383 0 0 1 2.87127,-2.95692" />
    <path
       style="opacity:1;fill:#000000;fill-opacity:1;fill-rule:evenodd;stroke-width:0.55003887"
       id="path819-491-06"
       sodipodi:type="arc"
       sodipodi:cx="201.35275"
       sodipodi:cy="207.32314"
       sodipodi:rx="2.778115"
       sodipodi:ry="3.3337383"
       sodipodi:start="5.0426925"
       sodipodi:end="4.7522523"
       sodipodi:open="true"
       d="m 202.25378,204.16961 a 2.778115,3.3337383 0 0 1 1.78536,4.00313 2.778115,3.3337383 0 0 1 -3.19764,2.4272 2.778115,3.3337383 0 0 1 -2.24931,-3.65097 2.778115,3.3337383 0 0 1 2.87128,-2.95692" />
    <path
       style="opacity:1;fill:#000000;fill-opacity:1;fill-rule:evenodd;stroke-width:0.55003887"
       id="path819-491-5"
       sodipodi:type="arc"
       sodipodi:cx="162.06427"
       sodipodi:cy="217.93105"
       sodipodi:rx="2.778115"
       sodipodi:ry="3.3337383"
       sodipodi:start="5.0426925"
       sodipodi:end="4.7522523"
       sodipodi:open="true"
       d="m 162.9653,214.77752 a 2.778115,3.3337383 0 0 1 1.78535,4.00313 2.778115,3.3337383 0 0 1 -3.19763,2.4272 2.778115,3.3337383 0 0 1 -2.24931,-3.65097 2.778115,3.3337383 0 0 1 2.87128,-2.95692" />
    <path
       style="opacity:1;fill:#000000;fill-opacity:1;fill-rule:evenodd;stroke-width:0.55003887"
       id="path819-491-87"
       sodipodi:type="arc"
       sodipodi:cx="127.0975"
       sodipodi:cy="208.89468"
       sodipodi:rx="2.778115"
       sodipodi:ry="3.3337383"
       sodipodi:start="5.0426925"
       sodipodi:end="4.7522523"
       sodipodi:open="true"
       d="m 127.99853,205.74115 a 2.778115,3.3337383 0 0 1 1.78536,4.00314 2.778115,3.3337383 0 0 1 -3.19764,2.42719 2.778115,3.3337383 0 0 1 -2.24931,-3.65096 2.778115,3.3337383 0 0 1 2.87128,-2.95693" />
    <path
       style="opacity:1;fill:#000000;fill-opacity:1;fill-rule:evenodd;stroke-width:0.55003887"
       id="path819-491-4"
       sodipodi:type="arc"
       sodipodi:cx="107.06038"
       sodipodi:cy="191.60774"
       sodipodi:rx="2.778115"
       sodipodi:ry="3.3337383"
       sodipodi:start="5.0426925"
       sodipodi:end="4.7522523"
       sodipodi:open="true"
       d="m 107.96141,188.45421 a 2.778115,3.3337383 0 0 1 1.78535,4.00314 2.778115,3.3337383 0 0 1 -3.19763,2.42719 2.778115,3.3337383 0 0 1 -2.24931,-3.65096 2.778115,3.3337383 0 0 1 2.87127,-2.95693" />
    <path
       style="opacity:1;fill:#000000;fill-opacity:1;fill-rule:evenodd;stroke-width:0.55003887"
       id="path819-491-53"
       sodipodi:type="arc"
       sodipodi:cx="94.622162"
       sodipodi:cy="166.38734"
       sodipodi:rx="2.778115"
       sodipodi:ry="3.3337383"
       sodipodi:start="5.0426925"
       sodipodi:end="4.7522523"
       sodipodi:open="true"
       d="m 95.523188,163.23381 a 2.778115,3.3337383 0 0 1 1.785357,4.00314 2.778115,3.3337383 0 0 1 -3.197636,2.4272 2.778115,3.3337383 0 0 1 -2.249309,-3.65097 2.778115,3.3337383 0 0 1 2.871277,-2.95693" />
    <path
       style="opacity:1;fill:#000000;fill-opacity:1;fill-rule:evenodd;stroke-width:0.55003887"
       id="path819-491-99"
       sodipodi:type="arc"
       sodipodi:cx="118.06118"
       sodipodi:cy="144.0687"
       sodipodi:rx="2.778115"
       sodipodi:ry="3.3337383"
       sodipodi:start="5.0426925"
       sodipodi:end="4.7522523"
       sodipodi:open="true"
       d="m 118.96221,140.91517 a 2.778115,3.3337383 0 0 1 1.78535,4.00313 2.778115,3.3337383 0 0 1 -3.19763,2.4272 2.778115,3.3337383 0 0 1 -2.24931,-3.65097 2.778115,3.3337383 0 0 1 2.87128,-2.95692" />
    <path
       style="opacity:1;fill:#000000;fill-opacity:1;fill-rule:evenodd;stroke-width:0.55003887"
       id="path819-491-80"
       sodipodi:type="arc"
       sodipodi:cx="155.77811"
       sodipodi:cy="134.79662"
       sodipodi:rx="2.778115"
       sodipodi:ry="3.3337383"
       sodipodi:start="5.0426925"
       sodipodi:end="4.7522523"
       sodipodi:open="true"
       d="m 156.67913,131.64309 a 2.778115,3.3337383 0 0 1 1.78536,4.00313 2.778115,3.3337383 0 0 1 -3.19764,2.4272 2.778115,3.3337383 0 0 1 -2.2493,-3.65097 2.778115,3.3337383 0 0 1 2.87127,-2.95692" />
  </g>
</svg>
