<?xml version="1.0" encoding="UTF-8" standalone="no"?>
<!-- Created with Inkscape (http://www.inkscape.org/) -->

<svg
   xmlns:dc="http://purl.org/dc/elements/1.1/"
   xmlns:cc="http://creativecommons.org/ns#"
   xmlns:rdf="http://www.w3.org/1999/02/22-rdf-syntax-ns#"
   xmlns:svg="http://www.w3.org/2000/svg"
   xmlns="http://www.w3.org/2000/svg"
   xmlns:sodipodi="http://sodipodi.sourceforge.net/DTD/sodipodi-0.dtd"
   xmlns:inkscape="http://www.inkscape.org/namespaces/inkscape"
   width="300mm"
   height="300mm"
   viewBox="0 0 300 300"
   version="1.1"
   id="svg8"
   inkscape:version="0.92.2 (5c3e80d, 2017-08-06)"
   sodipodi:docname="charki_icon.svg">
  <defs
     id="defs2" />
  <sodipodi:namedview
     id="base"
     pagecolor="#ffffff"
     bordercolor="#666666"
     borderopacity="1.0"
     inkscape:pageopacity="0.0"
     inkscape:pageshadow="2"
     inkscape:zoom="0.49497475"
     inkscape:cx="-237.02195"
     inkscape:cy="528.92177"
     inkscape:document-units="mm"
     inkscape:current-layer="layer1"
     showgrid="false"
     inkscape:window-width="1920"
     inkscape:window-height="1001"
     inkscape:window-x="-9"
     inkscape:window-y="-9"
     inkscape:window-maximized="1" />
  <metadata
     id="metadata5">
    <rdf:RDF>
      <cc:Work
         rdf:about="">
        <dc:format>image/svg+xml</dc:format>
        <dc:type
           rdf:resource="http://purl.org/dc/dcmitype/StillImage" />
        <dc:title></dc:title>
      </cc:Work>
    </rdf:RDF>
  </metadata>
  <g
     inkscape:label="Layer 1"
     inkscape:groupmode="layer"
     id="layer1"
     transform="translate(0,3)">
    <path
       style="opacity:1;fill:#2a7fff;fill-opacity:1;fill-rule:evenodd;stroke-width:0.66553038"
       id="path815"
       sodipodi:type="arc"
       sodipodi:cx="150.25371"
       sodipodi:cy="147.71129"
       sodipodi:rx="148.5755"
       sodipodi:ry="149.92006"
       sodipodi:start="5.0426925"
       sodipodi:end="4.7522523"
       sodipodi:open="true"
       d="M 198.44122,5.895316 A 148.5755,149.92006 0 0 1 293.9233,185.91854 148.5755,149.92006 0 0 1 122.91158,295.07085 148.5755,149.92006 0 0 1 2.6169764,130.8848 148.5755,149.92006 0 0 1 156.17485,-2.0896687" />
    <path
       style="opacity:1;fill:#ffe680;fill-opacity:1;fill-rule:evenodd;stroke-width:1.34457457"
       d="m 182.20981,54.600806 c -26.81307,0.738734 -51.95529,15.344231 -65.6278,38.124208 -10.21233,17.014946 -13.16844,33.266366 -9.66506,53.134346 3.54455,20.10144 12.83916,35.00318 28.64742,45.92945 32.09009,22.17972 72.77552,15.79653 94.11032,-14.76521 20.90651,-29.94833 13.50817,-68.7424 -16.4642,-86.331896 -20.25762,-11.888342 -44.32041,-10.842097 -60.97755,2.651239 -9.02177,7.308177 -17.28676,21.248407 -18.92057,31.912467 -1.64949,10.76643 1.7028,25.66898 7.56191,33.61611 17.25539,23.40476 51.18014,24.74449 66.54066,2.62779 14.39628,-20.72841 3.80642,-48.06559 -19.9292,-51.44622 -6.49979,-0.92577 -10.63374,0.005 -16.42095,3.69819 -5.98449,3.81884 -9.26498,8.8373 -10.6196,16.24578 -1.97694,10.81171 6.74264,20.76045 17.3346,19.77825 l 5.38342,-0.49922 -2.18133,3.13243 c -3.00456,4.3142 -10.44729,7.33383 -16.21887,6.58047 -7.39695,-0.96546 -15.45956,-8.19923 -17.79187,-15.96286 -8.68164,-28.89888 26.92661,-50.571544 53.19855,-32.37886 13.45373,9.31633 19.79128,25.79382 16.74415,43.53429 -1.28389,7.47481 -2.47656,10.16467 -8.0469,18.1485 -5.69065,8.15612 -7.63614,10.00602 -14.98614,14.2486 -21.28949,12.28886 -48.61908,9.17401 -65.0835,-7.41782 -14.3907,-14.50206 -20.47875,-33.4227 -17.4144,-54.12088 1.60917,-10.86904 2.55483,-13.50908 8.04553,-22.46116 11.35207,-18.50844 24.80751,-27.936392 46.34049,-32.469768 21.05736,-4.433239 42.53294,0.580274 58.75816,13.717259 22.38776,18.126559 32.61174,47.550999 27.0056,77.721439 -4.53528,24.40747 -21.52799,46.47466 -45.16071,58.64694 -6.17551,3.18076 -14.99197,5.965 -24.74032,7.81295 -12.73834,2.4148 -17.36115,2.51459 -29.08445,0.62795 -7.6664,-1.23377 -16.94655,-3.53341 -20.62264,-5.11035 -9.7201,-4.16956 -26.9095,-16.50129 -33.202186,-23.81923 C 74.769945,171.85075 68.336708,131.78312 82.156632,96.530829 85.972571,86.797073 100.22029,66.925838 108.76253,59.423677 c 8.38819,-7.366825 31.51025,-20.880662 36.92374,-21.580279 3.15007,-0.4071 40.37226,12.396272 44.96472,15.46661 0.83609,0.559235 -2.96223,1.139971 -8.441,1.290917 z"
       id="path823"
       inkscape:connector-curvature="0" />
    <path
       style="opacity:1;fill:#ff0000;fill-opacity:1;fill-rule:evenodd;stroke-width:1.34457457"
       d="m 180.1524,228.16063 c 21.60123,-15.90195 33.92003,-42.24009 32.15524,-68.74955 -1.31814,-19.80055 -8.16061,-34.83477 -22.37153,-49.15468 -14.37793,-14.48822 -30.51246,-21.425609 -49.72916,-21.382162 -39.00899,0.08806 -68.7844,28.539582 -68.87394,65.811352 -0.08771,36.52366 28.118458,64.16651 62.76969,61.5161 23.41994,-1.79136 42.58685,-16.37701 48.57093,-36.96151 3.24106,-11.14882 2.07741,-27.31317 -2.66385,-37.00396 -4.78681,-9.78387 -16.04116,-20.11162 -25.3868,-23.29666 -27.52347,-9.3802 -56.151509,8.8714 -56.151509,35.79896 0,25.23727 24.292089,41.64956 45.715529,30.88651 5.86661,-2.94737 8.7309,-6.07023 11.37758,-12.40464 2.73692,-6.55031 2.56859,-12.54351 -0.54486,-19.40112 -4.5437,-10.00781 -17.38055,-13.20515 -25.51985,-6.35637 l -4.13688,3.48095 0.005,-3.81711 c 0.007,-5.25733 4.39732,-11.98308 9.56747,-14.65668 6.62615,-3.42651 17.37469,-2.08435 23.71893,2.96181 23.61561,18.78351 6.73205,56.8964 -25.22392,56.94054 -16.36448,0.0226 -30.96915,-9.89581 -38.586245,-26.20498 -3.209416,-6.87175 -3.764234,-9.76139 -3.743368,-19.49636 0.02146,-9.94512 0.564067,-12.5743 4.18077,-20.25162 10.475903,-22.23769 34.699603,-35.269139 57.687083,-31.033527 20.09221,3.702126 35.88558,15.769557 45.17577,34.517837 4.87842,9.84512 5.6077,12.55293 6.20456,23.03774 1.23399,21.67738 -4.43944,37.09643 -19.5393,53.10307 -14.76639,15.65314 -35.26506,23.78581 -56.08529,22.25137 -28.728042,-2.11726 -53.910217,-20.45257 -66.516054,-48.43076 -10.19793,-22.63394 -8.829095,-50.45189 3.637882,-73.9305 3.257769,-6.135231 8.910862,-13.451285 15.863425,-20.529918 9.085035,-9.249805 12.82501,-11.968797 23.530057,-17.106633 7.00046,-3.359835 15.93445,-6.764783 19.8533,-7.566588 10.36199,-2.120071 31.51479,-1.797022 40.85767,0.623944 35.56278,9.215252 63.70277,38.454647 72.46112,75.292195 2.41833,10.17148 2.0514,34.61997 -0.68516,45.65462 -2.68725,10.83562 -13.96953,35.12479 -18.01674,38.78748 -2.35507,2.13128 -40.23063,12.84828 -45.75405,12.94621 -1.00573,0.0176 1.78271,-2.62607 6.19655,-5.87536 z"
       id="path825"
       inkscape:connector-curvature="0" />
    <path
       style="opacity:1;fill:#1a1a1a;fill-opacity:1;fill-rule:evenodd;stroke-width:1.34457457"
       d="m 70.486909,213.81159 c 22.494559,14.61097 51.484341,16.85702 75.670911,5.8628 18.06566,-8.21184 29.72377,-19.91377 38.11658,-38.25967 8.49138,-18.56149 9.29738,-36.10582 2.48419,-54.07425 -13.8305,-36.475027 -50.95004,-54.31297 -85.862,-41.261118 -34.211157,12.789856 -50.139747,48.928468 -35.4473,80.422338 9.930291,21.28599 30.3351,34.08283 51.70784,32.4284 11.57573,-0.89606 26.29285,-7.68183 33.69093,-15.53423 7.46914,-7.92781 13.16788,-22.0999 12.85492,-31.96845 -0.92174,-29.06338 -28.09166,-49.42222 -53.29153,-39.93215 -23.618018,8.89431 -30.416064,37.41196 -12.793335,53.66763 4.825835,4.45147 8.757785,6.03141 15.618525,6.27585 7.0946,0.25281 12.64395,-2.01689 17.96433,-7.34741 7.76434,-7.77921 6.23244,-20.91931 -3.04541,-26.12266 l -4.71559,-2.64467 3.57388,-1.34077 c 4.92243,-1.8465 12.76399,-0.10789 17.08816,3.78814 5.54194,4.99342 8.07399,15.52535 5.5875,23.24096 -9.25553,28.72036 -50.87335,26.35201 -62.176864,-3.53807 -5.788494,-15.30653 -1.653491,-32.46971 10.924767,-45.3459 5.299777,-5.42527 7.808447,-6.96288 16.926167,-10.37426 9.31454,-3.484941 11.96632,-3.90367 20.4257,-3.224753 24.5029,1.966573 45.23538,20.043423 49.37296,43.048783 3.61648,20.10782 -2.11057,39.14082 -16.38184,54.44237 -7.49413,8.03512 -9.77122,9.67192 -19.37296,13.92564 -19.85167,8.79456 -36.2809,8.91925 -56.582146,0.42938 -19.85293,-8.3024 -34.688142,-24.61969 -40.589805,-44.64486 -8.143178,-27.631 0.140814,-57.65936 21.88121,-79.316719 17.587669,-17.520435 44.103251,-26.043286 70.469141,-22.650733 6.88973,0.886526 15.72871,3.598521 24.80346,7.610288 11.85812,5.242225 15.72075,7.783979 24.30169,15.99147 5.61143,5.367187 11.94652,12.527953 14.07798,15.912804 5.63591,8.94999 12.78848,28.85947 13.8155,38.45612 3.90941,36.52884 -13.53664,73.16812 -44.92393,94.34714 -8.66656,5.84787 -31.67578,14.12084 -42.96688,15.44879 -11.08743,1.30393 -37.794397,-0.69424 -42.648439,-3.19094 -2.8245,-1.45284 -26.20233,-33.12131 -28.240612,-38.25586 -0.370936,-0.93501 3.085852,0.74283 7.68223,3.72837 z"
       id="path827"
       inkscape:connector-curvature="0" />
  </g>
</svg>
