<?xml version="1.0" encoding="UTF-8" standalone="no"?>
<!-- Created with Inkscape (http://www.inkscape.org/) -->

<svg
   xmlns:dc="http://purl.org/dc/elements/1.1/"
   xmlns:cc="http://creativecommons.org/ns#"
   xmlns:rdf="http://www.w3.org/1999/02/22-rdf-syntax-ns#"
   xmlns:svg="http://www.w3.org/2000/svg"
   xmlns="http://www.w3.org/2000/svg"
   xmlns:sodipodi="http://sodipodi.sourceforge.net/DTD/sodipodi-0.dtd"
   xmlns:inkscape="http://www.inkscape.org/namespaces/inkscape"
   width="300mm"
   height="300mm"
   viewBox="0 0 300 300"
   version="1.1"
   id="svg8"
   inkscape:version="0.92.2 (5c3e80d, 2017-08-06)"
   sodipodi:docname="fountain_icon.svg">
  <defs
     id="defs2" />
  <sodipodi:namedview
     id="base"
     pagecolor="#ffffff"
     bordercolor="#666666"
     borderopacity="1.0"
     inkscape:pageopacity="0.0"
     inkscape:pageshadow="2"
     inkscape:zoom="0.49497475"
     inkscape:cx="-1.624705"
     inkscape:cy="566.48157"
     inkscape:document-units="mm"
     inkscape:current-layer="layer1"
     showgrid="false"
     inkscape:window-width="1920"
     inkscape:window-height="1001"
     inkscape:window-x="-9"
     inkscape:window-y="-9"
     inkscape:window-maximized="1" />
  <metadata
     id="metadata5">
    <rdf:RDF>
      <cc:Work
         rdf:about="">
        <dc:format>image/svg+xml</dc:format>
        <dc:type
           rdf:resource="http://purl.org/dc/dcmitype/StillImage" />
        <dc:title></dc:title>
      </cc:Work>
    </rdf:RDF>
  </metadata>
  <g
     inkscape:label="Layer 1"
     inkscape:groupmode="layer"
     id="layer1"
     transform="translate(0,3)">
    <path
       style="opacity:1;fill:#ffe680;fill-opacity:1;fill-rule:evenodd;stroke-width:0.6468339"
       id="path815"
       sodipodi:type="arc"
       sodipodi:cx="150.51939"
       sodipodi:cy="146.97623"
       sodipodi:rx="148.30978"
       sodipodi:ry="149.69586"
       sodipodi:start="5.0426925"
       sodipodi:end="4.7522523"
       sodipodi:open="true"
       d="M 198.62073,5.3723325 A 148.30978,149.69586 0 0 1 293.93204,185.12635 148.30978,149.69586 0 0 1 123.22616,294.11542 148.30978,149.69586 0 0 1 3.1467001,130.1749 148.30978,149.69586 0 0 1 156.42995,-2.6007111" />
    <g
       id="g1003"
       transform="matrix(2.4447268,0,0,2.4447268,-151.57521,-226.40053)">
      <g
         transform="matrix(0.98593316,0,0,0.79313732,88.446869,45.567291)"
         id="g963">
        <rect
           style="opacity:1;fill:#ff8080;fill-opacity:1;fill-rule:evenodd;stroke-width:0.26458332"
           id="rect817"
           width="37.419643"
           height="82.398804"
           x="17.764881"
           y="122.375"
           ry="1.5039815e-014" />
        <rect
           style="opacity:1;fill:#ff0000;fill-opacity:1;fill-rule:evenodd;stroke-width:0.31822672"
           id="rect819"
           width="3.7767012"
           height="37.211178"
           x="-143.51065"
           y="168.10768"
           ry="1.7419377e-014"
           transform="matrix(0.93408805,-0.35704274,0.90309048,0.42945033,0,0)" />
        <rect
           style="opacity:1;fill:#ff0000;fill-opacity:1;fill-rule:evenodd;stroke-width:0.31822672"
           id="rect819-8"
           width="3.7767012"
           height="37.211178"
           x="-153.91603"
           y="179.34293"
           ry="1.7419377e-014"
           transform="matrix(0.93408805,-0.35704275,0.90309048,0.42945033,0,0)" />
        <rect
           style="opacity:1;fill:#ff0000;fill-opacity:1;fill-rule:evenodd;stroke-width:0.31822672"
           id="rect819-6"
           width="3.7767012"
           height="37.211178"
           x="-164.33891"
           y="189.6004"
           ry="1.7419377e-014"
           transform="matrix(0.93408805,-0.35704275,0.90309048,0.42945033,0,0)" />
        <rect
           style="opacity:1;fill:#ff0000;fill-opacity:1;fill-rule:evenodd;stroke-width:0.31822672"
           id="rect819-5"
           width="3.7767012"
           height="37.211178"
           x="-175.79022"
           y="201.86328"
           ry="1.7419377e-014"
           transform="matrix(0.93408805,-0.35704275,0.90309048,0.42945033,0,0)" />
        <rect
           style="opacity:1;fill:#ff0000;fill-opacity:1;fill-rule:evenodd;stroke-width:0.31822672"
           id="rect819-4"
           width="3.7767012"
           height="37.211178"
           x="-188.33594"
           y="214.31647"
           ry="1.7419377e-014"
           transform="matrix(0.93408805,-0.35704275,0.90309048,0.42945033,0,0)" />
        <rect
           style="opacity:1;fill:#ff0000;fill-opacity:1;fill-rule:evenodd;stroke-width:0.31822672"
           id="rect819-62"
           width="3.7767012"
           height="37.211178"
           x="-202.31421"
           y="228.87915"
           ry="1.7419377e-014"
           transform="matrix(0.93408805,-0.35704275,0.90309048,0.42945033,0,0)" />
        <rect
           style="opacity:1;fill:#ff0000;fill-opacity:1;fill-rule:evenodd;stroke-width:0.31822672"
           id="rect819-3"
           width="3.7767012"
           height="37.211178"
           x="-217.46606"
           y="244.44646"
           ry="1.7419377e-014"
           transform="matrix(0.93408805,-0.35704275,0.90309048,0.42945033,0,0)" />
        <rect
           style="opacity:1;fill:#ff0000;fill-opacity:1;fill-rule:evenodd;stroke-width:0.2987034"
           id="rect819-64"
           width="3.4933422"
           height="35.444752"
           x="-290.8457"
           y="223.97415"
           ry="1.6592474e-014"
           transform="matrix(0.70921165,-0.70499563,0.99999798,-0.00200858,0,0)" />
        <rect
           style="opacity:1;fill:#ff0000;fill-opacity:1;fill-rule:evenodd;stroke-width:0.3152197"
           id="rect819-38-6"
           width="3.6881599"
           height="37.387775"
           x="-204.7798"
           y="113.80256"
           ry="1.7502047e-014"
           transform="matrix(0.44356089,-0.89624424,0.9546163,-0.29783841,0,0)" />
        <rect
           style="opacity:1;fill:#ff0000;fill-opacity:1;fill-rule:evenodd;stroke-width:0.3152197"
           id="rect819-38-6-7"
           width="3.6881599"
           height="37.387775"
           x="-192.15883"
           y="107.84799"
           ry="1.7502047e-014"
           transform="matrix(0.44356089,-0.89624424,0.9546163,-0.29783842,0,0)" />
        <rect
           style="opacity:1;fill:#ff0000;fill-opacity:1;fill-rule:evenodd;stroke-width:0.3152197"
           id="rect819-38-6-2"
           width="3.6881599"
           height="37.387775"
           x="-217.43124"
           y="119.49179"
           ry="1.7502047e-014"
           transform="matrix(0.44356089,-0.89624424,0.9546163,-0.29783842,0,0)" />
        <rect
           style="opacity:1;fill:#ff0000;fill-opacity:1;fill-rule:evenodd;stroke-width:0.3152197"
           id="rect819-38-6-4"
           width="3.6881599"
           height="37.387775"
           x="-232.30782"
           y="126.50314"
           ry="1.7502047e-014"
           transform="matrix(0.44356089,-0.89624424,0.9546163,-0.29783842,0,0)" />
        <rect
           style="opacity:1;fill:#ff0000;fill-opacity:1;fill-rule:evenodd;stroke-width:0.3152197"
           id="rect819-38-6-25"
           width="3.6881599"
           height="37.387775"
           x="-248.22878"
           y="133.80182"
           ry="1.7502047e-014"
           transform="matrix(0.44356089,-0.89624424,0.9546163,-0.29783842,0,0)" />
        <rect
           style="opacity:1;fill:#ff0000;fill-opacity:1;fill-rule:evenodd;stroke-width:0.3152197"
           id="rect819-38-6-1"
           width="3.6881599"
           height="37.387775"
           x="-262.7485"
           y="140.74368"
           ry="1.7502047e-014"
           transform="matrix(0.44356089,-0.89624424,0.9546163,-0.29783842,0,0)" />
        <rect
           style="opacity:1;fill:#ff0000;fill-opacity:1;fill-rule:evenodd;stroke-width:0.3152197"
           id="rect819-38-6-26"
           width="3.6881599"
           height="37.387775"
           x="-274.71841"
           y="146.30547"
           ry="1.7502047e-014"
           transform="matrix(0.44356089,-0.89624424,0.9546163,-0.29783842,0,0)" />
      </g>
      <path
         inkscape:transform-center-y="-1.4655218e-006"
         inkscape:transform-center-x="1.4546196e-006"
         d="m 120.27128,123.27481 -4.15452,-4.76066 -0.8488,6.26126 -0.56283,-6.29341 -4.36697,4.56655 3.24384,-5.4223 -6.21711,1.12758 5.81147,-2.48006 -5.69252,-2.74209 6.15932,1.40949 -2.99358,-5.56438 4.15451,4.76066 0.8488,-6.26126 0.56283,6.29341 4.36697,-4.56655 -3.24384,5.4223 6.21711,-1.12758 -5.81147,2.48005 5.69252,2.7421 -6.15932,-1.40949 z"
         inkscape:randomized="0"
         inkscape:rounded="0"
         inkscape:flatsided="false"
         sodipodi:arg2="1.2794109"
         sodipodi:arg1="0.96525166"
         sodipodi:r2="2.284658"
         sodipodi:r1="8.4518042"
         sodipodi:cy="116.3258"
         sodipodi:cx="115.46043"
         sodipodi:sides="10"
         id="path965"
         style="opacity:1;fill:#ff0000;fill-opacity:1;fill-rule:evenodd;stroke-width:0.26458332"
         sodipodi:type="star" />
      <path
         inkscape:transform-center-y="-1.6540837e-006"
         inkscape:transform-center-x="1.6095097e-006"
         d="m 128.82391,137.70736 -1.33005,-4.6761 -2.64446,4.07943 1.67251,-4.56482 -4.53724,1.74596 4.03623,-2.70995 -4.69696,-1.25441 4.85824,0.18004 -3.06258,-3.77564 3.82457,3.00126 -0.25842,-4.85471 1.33005,4.6761 2.64446,-4.07943 -1.67251,4.56483 4.53724,-1.74596 -4.03623,2.70994 4.69695,1.25442 -4.85824,-0.18004 3.06259,3.77564 -3.82457,-3.00126 z"
         inkscape:randomized="0"
         inkscape:rounded="0"
         inkscape:flatsided="false"
         sodipodi:arg2="1.7198069"
         sodipodi:arg1="1.4056476"
         sodipodi:r2="1.7578509"
         sodipodi:r1="6.5029478"
         sodipodi:cy="131.29289"
         sodipodi:cx="127.75483"
         sodipodi:sides="10"
         id="path967"
         style="opacity:1;fill:#ff0000;fill-opacity:1;fill-rule:evenodd;stroke-width:0.26458332"
         sodipodi:type="star" />
      <path
         inkscape:transform-center-y="-1.2769601e-006"
         inkscape:transform-center-x="1.6364471e-006"
         d="m 120.58269,112.77802 6.22809,-6.90254 -9.29588,-0.14444 9.09584,-1.9235 -7.43562,-5.580837 8.48929,3.790257 -2.73521,-8.885539 4.64013,8.056269 3.00995,-8.796274 -0.98141,9.245054 7.60542,-5.347125 -6.22809,6.902545 9.29588,0.14444 -9.09584,1.9235 7.43562,5.58083 -8.48929,-3.79025 2.73521,8.88554 -4.64013,-8.05627 -3.00995,8.79627 0.98141,-9.24505 z"
         inkscape:randomized="0"
         inkscape:rounded="0"
         inkscape:flatsided="false"
         sodipodi:arg2="2.7310017"
         sodipodi:arg1="2.4168425"
         sodipodi:r2="3.361614"
         sodipodi:r1="12.435868"
         sodipodi:cy="104.53368"
         sodipodi:cx="129.89299"
         sodipodi:sides="10"
         id="path972"
         style="opacity:1;fill:#ff0000;fill-opacity:1;fill-rule:evenodd;stroke-width:0.26458332"
         sodipodi:type="star" />
      <path
         inkscape:transform-center-y="-1.5719736e-006"
         inkscape:transform-center-x="1.4521948e-006"
         d="m 121.32394,136.14826 -4.96285,-3.61883 0.54284,6.1181 -1.88793,-5.84479 -3.15696,5.26873 1.90811,-5.83823 -5.65091,2.40687 4.97532,-3.60167 -5.98641,-1.37432 6.14213,0.0106 -4.0353,-4.63057 4.96285,3.61883 -0.54285,-6.1181 1.88794,5.84479 3.15696,-5.26872 -1.90811,5.83823 5.65091,-2.40687 -4.97532,3.60167 5.98641,1.37432 -6.14213,-0.0106 z"
         inkscape:randomized="0"
         inkscape:rounded="0"
         inkscape:flatsided="false"
         sodipodi:arg2="1.0561729"
         sodipodi:arg1="0.74201364"
         sodipodi:r2="2.2208765"
         sodipodi:r1="8.2158527"
         sodipodi:cy="130.59621"
         sodipodi:cx="115.26796"
         sodipodi:sides="10"
         id="path974"
         style="opacity:1;fill:#0000ff;fill-opacity:1;fill-rule:evenodd;stroke-width:0.26458332"
         sodipodi:type="star" />
      <path
         inkscape:transform-center-y="-1.5800058e-006"
         inkscape:transform-center-x="1.9192898e-006"
         d="m 137.56476,128.11253 -3.22633,-3.6586 -0.63023,4.83708 -0.45968,-4.85626 -3.35303,3.54285 2.48255,-4.199 -4.7951,0.89536 4.47654,-1.93784 -4.4056,-2.09413 4.76063,1.06349 -2.3333,-4.28373 3.22633,3.65861 0.63023,-4.83709 0.45968,4.85627 3.35303,-3.54285 -2.48255,4.19899 4.79509,-0.89536 -4.47653,1.93785 4.40559,2.09413 -4.76063,-1.06349 z"
         inkscape:randomized="0"
         inkscape:rounded="0"
         inkscape:flatsided="false"
         sodipodi:arg2="1.2742296"
         sodipodi:arg1="0.96007036"
         sodipodi:r2="1.7637796"
         sodipodi:r1="6.5248809"
         sodipodi:cy="122.76714"
         sodipodi:cx="133.82298"
         sodipodi:sides="10"
         id="path976"
         style="opacity:1;fill:#0000ff;fill-opacity:1;fill-rule:evenodd;stroke-width:0.26458332"
         sodipodi:type="star" />
      <path
         d="m 116.70406,108.51991 -5.16726,-3.03823 1.11446,5.88977 -2.39457,-5.49522 -2.56031,5.41999 1.29277,-5.85323 -5.25712,2.87996 4.4863,-3.97549 -5.94589,-0.76013 5.96623,-0.57926 -4.36354,-4.109861 5.16726,3.038231 -1.11446,-5.88977 2.39457,5.49522 2.56031,-5.419986 -1.29276,5.853226 5.25712,-2.879956 -4.48631,3.975486 5.9459,0.76013 -5.96623,0.57926 z"
         inkscape:randomized="0"
         inkscape:rounded="0"
         inkscape:flatsided="false"
         sodipodi:arg2="0.95766037"
         sodipodi:arg1="0.64350111"
         sodipodi:r2="2.1674168"
         sodipodi:r1="8.0180855"
         sodipodi:cy="103.70906"
         sodipodi:cx="110.2896"
         sodipodi:sides="10"
         id="path978"
         style="opacity:1;fill:#0000ff;fill-opacity:1;fill-rule:evenodd;stroke-width:0.26458332"
         sodipodi:type="star" />
    </g>
  </g>
</svg>
