<?xml version="1.0" encoding="UTF-8" standalone="no"?>
<!-- Created with Inkscape (http://www.inkscape.org/) -->

<svg
   xmlns:dc="http://purl.org/dc/elements/1.1/"
   xmlns:cc="http://creativecommons.org/ns#"
   xmlns:rdf="http://www.w3.org/1999/02/22-rdf-syntax-ns#"
   xmlns:svg="http://www.w3.org/2000/svg"
   xmlns="http://www.w3.org/2000/svg"
   xmlns:sodipodi="http://sodipodi.sourceforge.net/DTD/sodipodi-0.dtd"
   xmlns:inkscape="http://www.inkscape.org/namespaces/inkscape"
   width="300mm"
   height="300mm"
   viewBox="0 0 300 300"
   version="1.1"
   id="svg8"
   inkscape:version="0.92.2 (5c3e80d, 2017-08-06)"
   sodipodi:docname="mobile_item_icon.svg">
  <defs
     id="defs2" />
  <sodipodi:namedview
     id="base"
     pagecolor="#ffffff"
     bordercolor="#666666"
     borderopacity="1.0"
     inkscape:pageopacity="0.0"
     inkscape:pageshadow="2"
     inkscape:zoom="0.24748737"
     inkscape:cx="-775.47339"
     inkscape:cy="470.52939"
     inkscape:document-units="mm"
     inkscape:current-layer="layer1"
     showgrid="false"
     inkscape:window-width="1920"
     inkscape:window-height="1001"
     inkscape:window-x="-9"
     inkscape:window-y="-9"
     inkscape:window-maximized="1" />
  <metadata
     id="metadata5">
    <rdf:RDF>
      <cc:Work
         rdf:about="">
        <dc:format>image/svg+xml</dc:format>
        <dc:type
           rdf:resource="http://purl.org/dc/dcmitype/StillImage" />
        <dc:title></dc:title>
      </cc:Work>
    </rdf:RDF>
  </metadata>
  <g
     inkscape:label="Layer 1"
     inkscape:groupmode="layer"
     id="layer1"
     transform="translate(0,3)">
    <path
       sodipodi:type="star"
       style="opacity:1;fill:#ffff00;fill-opacity:1;fill-rule:evenodd;stroke-width:0.26458332"
       id="path815"
       sodipodi:sides="7"
       sodipodi:cx="146.65475"
       sodipodi:cy="150.34525"
       sodipodi:r1="107.22006"
       sodipodi:r2="101.97234"
       sodipodi:arg1="1.0219127"
       sodipodi:arg2="1.4707117"
       inkscape:flatsided="true"
       inkscape:rounded="0"
       inkscape:randomized="0"
       d="m 202.59523,241.81549 -92.57647,9.29654 -64.988822,-66.5829 11.536739,-92.32406 79.374903,-48.543326 87.44214,31.791526 29.66366,88.18671 z"
       inkscape:transform-center-x="4.5552153"
       transform="matrix(1.4197376,0.17062244,-0.17062244,1.4197376,-31.445472,-82.196394)"
       inkscape:transform-center-y="-3.1476736" />
    <path
       style="opacity:1;fill:#ffffff;fill-opacity:1;fill-rule:evenodd;stroke-width:0.26458332"
       id="path817"
       sodipodi:type="arc"
       sodipodi:cx="30.238094"
       sodipodi:cy="25.613096"
       sodipodi:rx="14.363094"
       sodipodi:ry="14.363094"
       sodipodi:start="5.0426925"
       sodipodi:end="4.7522523"
       sodipodi:open="true"
       d="M 34.896479,12.026414 A 14.363094,14.363094 0 0 1 44.126925,29.273543 14.363094,14.363094 0 0 1 27.594875,39.730882 14.363094,14.363094 0 0 1 15.965753,24.001034 14.363094,14.363094 0 0 1 30.810503,11.261412" />
    <path
       sodipodi:type="star"
       style="opacity:1;fill:#ffffff;fill-opacity:1;fill-rule:evenodd;stroke-width:0.26458332"
       id="path821"
       sodipodi:sides="7"
       sodipodi:cx="145.71526"
       sodipodi:cy="154.1364"
       sodipodi:r1="24.089825"
       sodipodi:r2="21.704182"
       sodipodi:arg1="1.1422308"
       sodipodi:arg2="1.5910297"
       inkscape:flatsided="true"
       inkscape:rounded="0"
       inkscape:randomized="0"
       d="m 155.72618,176.04761 -20.90009,-0.42294 -12.70032,-16.60405 5.06304,-20.28196 19.01383,-8.68716 18.64682,9.44927 4.23838,20.47019 z"
       inkscape:transform-center-x="0.10845381"
       inkscape:transform-center-y="-1.0868431" />
    <path
       style="fill:none;stroke:#000000;stroke-width:0.26458332px;stroke-linecap:butt;stroke-linejoin:miter;stroke-opacity:1"
       d="M 1.0004122,187.46967 122.12576,159.02062 v 0"
       id="path823"
       inkscape:connector-curvature="0" />
    <path
       style="fill:none;stroke:#000000;stroke-width:0.26458332px;stroke-linecap:butt;stroke-linejoin:miter;stroke-opacity:1"
       d="M 33.132111,58.362155 127.18881,138.73866"
       id="path825"
       inkscape:connector-curvature="0" />
    <path
       style="fill:none;stroke:#000000;stroke-width:0.26458332px;stroke-linecap:butt;stroke-linejoin:miter;stroke-opacity:1"
       d="M 154.10622,2.9865085 146.20264,130.0515"
       id="path827"
       inkscape:connector-curvature="0" />
    <path
       style="fill:none;stroke:#000000;stroke-width:0.26458332px;stroke-linecap:butt;stroke-linejoin:miter;stroke-opacity:1"
       d="M 164.84946,139.50076 272.82677,63.041724"
       id="path829"
       inkscape:connector-curvature="0" />
    <path
       style="fill:none;stroke:#000000;stroke-width:0.26458332px;stroke-linecap:butt;stroke-linejoin:miter;stroke-opacity:1"
       d="M 169.08783,159.97096 299.89475,193.305"
       id="path831"
       inkscape:connector-curvature="0" />
    <path
       style="fill:none;stroke:#000000;stroke-width:0.26458332px;stroke-linecap:butt;stroke-linejoin:miter;stroke-opacity:1"
       d="m 155.72618,176.0476 59.20126,119.63782"
       id="path833"
       inkscape:connector-curvature="0" />
    <path
       style="fill:none;stroke:#000000;stroke-width:0.26458332px;stroke-linecap:butt;stroke-linejoin:miter;stroke-opacity:1"
       d="M 214.92744,295.68542 Z"
       id="path835"
       inkscape:connector-curvature="0" />
    <path
       style="fill:none;stroke:#000000;stroke-width:0.26458332px;stroke-linecap:butt;stroke-linejoin:miter;stroke-opacity:1"
       d="M 134.82609,175.62467 81.906948,293.08846"
       id="path837"
       inkscape:connector-curvature="0" />
    <path
       style="fill:none;stroke:#000000;stroke-width:0.26458332px;stroke-linecap:butt;stroke-linejoin:miter;stroke-opacity:1"
       d="M 1.0004122,187.46967 81.906948,293.08846 214.92744,295.68542 299.89476,193.305 272.82677,63.041725 154.10622,2.9865085 33.132111,58.362155 Z"
       id="path839"
       inkscape:connector-curvature="0" />
    <path
       style="fill:none;stroke:#000000;stroke-width:0.26458332px;stroke-linecap:butt;stroke-linejoin:miter;stroke-opacity:1"
       d="m 127.18881,138.73866 -5.06305,20.28196 12.70033,16.60405 20.90009,0.42294 13.36165,-16.07665 -4.23837,-20.47019 -18.64682,-9.44927 z"
       id="path841"
       inkscape:connector-curvature="0" />
    <path
       style="fill:none;stroke:#000000;stroke-width:0.26458332px;stroke-linecap:butt;stroke-linejoin:miter;stroke-opacity:1"
       d="M 127.18881,138.73866 Z"
       id="path843"
       inkscape:connector-curvature="0" />
    <path
       style="opacity:1;fill:#000080;fill-opacity:1;fill-rule:evenodd;stroke-width:1.01015258"
       d="M 158.05218,919.72102 C 75.105717,811.41251 7.024698,722.23429 6.7610328,721.54718 6.1643618,719.99228 460.55642,613.00371 461.8514,614.39419 c 0.46003,0.49396 10.71624,13.85332 22.79159,29.68746 12.07533,15.83414 22.37854,29.32053 22.89601,29.96976 0.62994,0.7903 -31.81531,73.90016 -98.17619,221.2234 -54.51437,121.02369 -99.42796,220.34179 -99.80796,220.70689 -0.38,0.3651 -68.55619,-87.9522 -151.50267,-196.26068 z"
       id="path845"
       inkscape:connector-curvature="0"
       transform="matrix(0.26458333,0,0,0.26458333,0,-3)" />
    <path
       style="opacity:1;fill:#0000ff;fill-opacity:1;fill-rule:evenodd;stroke-width:1.01015258"
       d="m 673.52902,1125.2984 c -63.89215,-1.3056 -171.28952,-3.4469 -238.66083,-4.7584 -67.37131,-1.3116 -122.61599,-2.7237 -122.95219,-2.8436 -9.58726,-3.4196 235.31734,-96.1517 216.93745,-266.08118 L 509.88431,676.238 l 38.89087,0.6897 c 21.38998,0.37934 39.00511,0.79667 39.14474,0.9274 0.40127,0.37569 222.48477,449.2638 222.48477,449.6992 0,0.5263 -3.70837,0.4652 -136.87567,-2.2559 z"
       id="path847"
       inkscape:connector-curvature="0"
       transform="matrix(0.26458333,0,0,0.26458333,0,-3)"
       sodipodi:nodetypes="scsscscss" />
    <path
       style="opacity:1;fill:#00ff00;fill-opacity:1;fill-rule:evenodd;stroke-width:1.01015258"
       d="M 793.35091,1088.4607 C 782.85586,1067.1192 734.63244,969.65382 686.18776,871.87105 637.74307,774.08829 596.26927,690.12507 594.02377,685.28614 l -4.08274,-8.79807 24.83349,-29.77413 24.83349,-29.77413 18.98081,4.90258 c 10.43944,2.69642 121.03147,30.89636 245.76006,62.66653 124.72862,31.77018 226.88342,57.85958 227.01072,57.97643 0.1634,0.14995 -315.10891,380.55655 -318.54967,384.36115 -0.20742,0.2293 -8.96398,-17.0443 -19.45902,-38.3858 z"
       id="path849"
       inkscape:connector-curvature="0"
       transform="matrix(0.26458333,0,0,0.26458333,0,-3)" />
    <path
       style="opacity:1;fill:#ff0000;fill-opacity:1;fill-rule:evenodd;stroke-width:1.01015258"
       d="m 5.3131098,718.14152 c 0,-0.91567 120.2343002,-483.53451 120.5381002,-483.83832 -57.476704,128.22967 268.51075,412.43817 352.62432,301.11957 0.59511,0.84508 -2.36093,14.41746 -8.43611,38.73364 -8.37852,33.53544 -9.5782,37.48895 -11.52271,37.97279 10.30989,63.19374 -407.820274,192.31467 -445.374918,104.61833 -1.740608,-4.06461 -7.8286822,1.63281 -7.8286822,1.39399 z"
       id="path855"
       inkscape:connector-curvature="0"
       transform="matrix(0.26458333,0,0,0.26458333,0,-3)"
       sodipodi:nodetypes="sccscss" />
    <path
       style="opacity:1;fill:#00aad4;fill-opacity:1;fill-rule:evenodd;stroke-width:1.01015258"
       d="M 303.85432,383.27773 C 206.8631,300.39422 127.85542,232.26102 128.28172,231.8706 129.85647,230.42843 580.29427,24.725793 580.79063,25.222153 581.23344,25.664956 551.98282,501.8247 551.48361,502.3002 c -0.71497,0.68098 -69.47492,31.67483 -70.27074,31.67483 -0.55597,0 -80.36733,-67.81379 -177.35855,-150.6973 z"
       id="path857"
       inkscape:connector-curvature="0"
       transform="matrix(0.26458333,0,0,0.26458333,0,-3)" />
    <path
       style="opacity:1;fill:#00aad4;fill-opacity:1;fill-rule:evenodd;stroke-width:1.42857146"
       d="m 785.79513,913.59563 c -13.63713,-27.7492 4.78895,-3.346 -35.87854,-85.45314 C 709.2491,746.03535 626.79265,699.30325 613.99216,691.22559 l -23.41211,-14.77404 24.33942,-29.15453 c 13.38669,-16.03499 24.98144,-29.15453 25.76612,-29.15453 1.84578,0 488.95641,124.17959 489.40901,124.76551 0.3871,0.50117 -315.1108,380.7367 -316.75893,381.7553 -0.72446,0.4477 -13.90341,-183.31847 -27.54054,-211.06767 z"
       id="path859"
       inkscape:connector-curvature="0"
       transform="matrix(0.26458333,0,0,0.26458333,0,-3)"
       sodipodi:nodetypes="ssscssccs" />
    <path
       style="opacity:1;fill:#00ff00;fill-opacity:1;fill-rule:evenodd;stroke-width:1.42857146"
       d="m 900.03733,595.93931 c -133.50329,-34.08767 -258.9181,18.94522 -259.49322,18.32708 -1.9937,-2.14283 -16.1339,-74.7657 -14.79718,-75.99707 -42.19503,-107.71227 366.8315,-368.37543 404.40577,-285.36374 0.3722,0.37223 23.1518,108.89924 50.6212,241.17113 27.4694,132.2719 50.2887,241.61935 50.7096,242.99435 0.5404,1.76513 0,2.46685 -1.8309,2.38722 -1.428,-0.062 -96.112,-109.43129 -229.61527,-143.51897 z"
       id="path861"
       inkscape:connector-curvature="0"
       transform="matrix(0.26458333,0,0,0.26458333,0,-3)"
       sodipodi:nodetypes="ssccsccs" />
    <path
       style="opacity:1;fill:#ff6600;fill-opacity:1;fill-rule:evenodd;stroke-width:1.42857146"
       d="M 423.48485,484.33912 C 258.3819,343.81659 130.62771,233.91428 130.62771,232.40469 c 0,-1.12956 -1.12787,-0.59668 79.28572,-37.45928 182.34498,-83.58927 368.39095,-168.23149 369.77748,-168.23149 0.28457,0 0.2771,3.053571 -0.0166,6.785714 -0.29369,3.732143 -64.34992,100.966326 -81.24605,144.642856 -53.67827,138.75838 53.47151,306.84451 52.81674,315.97167 l -0.87468,8.11452 -33.32627,15.09977 c -18.32944,8.30486 -34.18224,15.0859 -35.22845,15.06897 -1.04622,-0.0169 -27.29506,-21.64317 -58.33078,-48.0583 z"
       id="path863"
       inkscape:connector-curvature="0"
       transform="matrix(0.26458333,0,0,0.26458333,0,-3)"
       sodipodi:nodetypes="cssscsccsccc" />
    <path
       style="opacity:1;fill:#ff7f2a;fill-opacity:1;fill-rule:evenodd;stroke-width:1.42857146"
       d="M 453.8367,508.82666 C 393.71081,458.70753 158.39879,257.04326 139.03663,239.04051 l -7.75732,-7.21269 30.56602,-14.04243 C 327.27567,141.78452 576.45878,28.396048 578.04837,28.396048 c 3.31184,0 -2.23639,11.021645 -21.83153,43.368745 -50.3292,83.081957 -61.44839,106.272167 -69.12296,144.163027 -2.83593,14.0016 -3.24084,20.2146 -3.18663,48.8968 0.0516,27.28153 0.60269,36.00859 3.24779,51.42857 8.09946,47.21719 24.0277,93.95684 51.9339,152.39426 16.13914,33.79644 17.75231,30.0436 -20.26092,47.13468 -16.8994,7.59812 -32.34272,14.22049 -34.31852,14.71638 -3.09242,0.77614 -7.36093,-2.23978 -30.6728,-21.67185 z"
       id="path865"
       inkscape:connector-curvature="0"
       transform="matrix(0.26458333,0,0,0.26458333,0,-3)" />
    <path
       style="opacity:1;fill:#ff7f2a;fill-opacity:1;fill-rule:evenodd;stroke-width:1.42857146"
       d="M 967.41135,698.54432 C 882.16135,676.75115 773.59674,649.031 726.15667,636.94398 l -86.25469,-21.9764 11.96897,-4.06793 c 32.62928,-11.0898 78.053,-20.62082 114.49736,-24.02439 23.38523,-2.18397 76.44089,-0.9894 96.75733,2.17852 81.11583,12.64832 159.91786,52.98259 233.97136,119.75661 23.9903,21.63209 31.605,29.61344 28.1178,29.47176 -1.5419,-0.0626 -72.5534,-17.94467 -157.80345,-39.73783 z"
       id="path869"
       inkscape:connector-curvature="0"
       transform="matrix(0.26458333,0,0,0.26458333,0,-3)" />
    <path
       style="opacity:1;fill:#00ff00;fill-opacity:1;fill-rule:evenodd;stroke-width:1.42857146"
       d="M 398.83992,557.63249 C 370.45194,551.62519 298.62645,520.53347 266.94359,499.37515 198.10651,453.40464 175.67353,410.49197 144.75261,349.6231 125.77125,312.25767 116.15008,274.07758 123.12703,246.69701 l 3.16309,-12.41332 18.7749,16.08214 c 10.3262,8.84518 87.88205,75.08938 172.34633,147.20933 84.46429,72.11997 155.15777,132.65925 157.09665,134.53173 l 3.52521,3.40453 -6.38236,6.50864 c -7.024,7.16297 -16.94254,12.59656 -28.7123,15.72919 -9.57347,2.54807 -31.78365,2.48926 -44.09863,-0.11672 z"
       id="path871"
       inkscape:connector-curvature="0"
       transform="matrix(0.26458333,0,0,0.26458333,0,-3)"
       sodipodi:nodetypes="cssscssccsscc" />
    <path
       sodipodi:type="star"
       style="opacity:1;fill:#000000;fill-opacity:1;fill-rule:evenodd;stroke-width:0.26458332"
       id="path873"
       sodipodi:sides="7"
       sodipodi:cx="145.70883"
       sodipodi:cy="153.15861"
       sodipodi:r1="32.525211"
       sodipodi:r2="10.993487"
       sodipodi:arg1="0.9873463"
       sodipodi:arg2="2.4348539"
       inkscape:flatsided="false"
       inkscape:rounded="0"
       inkscape:randomized="0"
       d="m 163.62718,180.30308 -26.27872,-20.00577 -1.69012,23.79473 -0.74337,-33.01892 -19.65725,13.51438 25.35175,-21.16815 -22.82206,-6.94257 32.35649,6.62266 -8.8014,-22.17163 14.99613,29.42649 11.84689,-20.705 -13.65661,30.07156 23.57423,-3.64708 -32.02565,8.07214 z"
       inkscape:transform-center-x="-0.97159865"
       inkscape:transform-center-y="-0.64868793" />
    <path
       style="opacity:1;fill:#ff00ff;fill-opacity:1;fill-rule:evenodd;stroke-width:2.02030516"
       d="M 701.46254,901.05533 C 641.7315,780.20402 593.21227,680.97403 593.64204,680.54427 c 1.25742,-1.25742 44.80685,26.83182 62.66061,40.41589 31.13719,23.69079 89.1156,57.09954 107.71212,85.98018 9.61713,14.93553 25.53075,68.95179 29.93489,83.12918 1.89849,6.11142 5.58188,34.81123 8.18532,41.55399 2.60344,6.74277 2.53138,54.97756 4.7784,67.68022 6.26814,35.43457 5.52359,109.69417 3.86864,117.91627 -0.39467,1.9608 -49.58843,-95.3133 -109.31948,-216.16467 z"
       id="path875"
       inkscape:connector-curvature="0"
       transform="matrix(0.26458333,0,0,0.26458333,0,-3)"
       sodipodi:nodetypes="scsssssss" />
    <path
       style="fill:none;stroke:#000000;stroke-width:0.26458332px;stroke-linecap:butt;stroke-linejoin:miter;stroke-opacity:1"
       d="M 164.84946,139.50077 272.82677,63.041724"
       id="path877"
       inkscape:connector-curvature="0" />
    <path
       style="opacity:1;fill:#0000ff;fill-opacity:1;fill-rule:evenodd;stroke-width:2.02030516"
       d="m 624.68915,531.97044 c -0.46976,-1.38896 1.6893,-8.20749 4.79791,-15.15229 3.1086,-6.9448 5.28699,-12.62691 4.84086,-12.62691 -0.44613,0 -3.19405,3.86384 -6.10649,8.5863 l -5.29534,8.5863 1.24004,-9.09138 c 1.65344,-12.12219 44.85488,-82.49943 57.94775,-100.0051 25.59325,-34.21914 85.05831,-87.27523 138.77746,-123.82043 85.49707,-58.16377 146.54057,-55.82016 184.26856,-50.16249 9.8291,1.47396 22.7879,8.25744 21.7305,11.37519 -0.5446,1.60558 -399.06818,284.83619 -400.78281,284.83619 -0.31039,0 -0.94869,-1.13642 -1.41844,-2.52538 z"
       id="path879"
       inkscape:connector-curvature="0"
       transform="matrix(0.26458333,0,0,0.26458333,0,-3)"
       sodipodi:nodetypes="ccsscsssscsc" />
    <path
       style="fill:none;stroke:#000000;stroke-width:0.26458332px;stroke-linecap:butt;stroke-linejoin:miter;stroke-opacity:1"
       d="M 1.4057603,187.00827 121.31588,158.95918"
       id="path881"
       inkscape:connector-curvature="0" />
    <path
       style="opacity:1;fill:#00ffcc;fill-opacity:1;fill-rule:evenodd;stroke-width:2.02030516"
       d="m 120.75398,763.79092 c -6.87955,-1.49531 -82.477754,-26.50779 -86.510373,-28.42139 -7.15077,-3.39326 -19.169215,-13.89081 -19.169215,-16.7434 0,-1.65661 437.977758,-104.41999 439.319548,-103.07821 0.49305,0.49307 -3.27266,4.27736 -8.36829,8.40952 -10.55405,8.55855 -10.06518,9.9541 0.8813,2.51578 9.10327,-6.18584 10.54155,-5.19835 4.21072,2.89097 -26.54869,33.92294 -74.13501,111.93427 -183.50514,133.25879 -51.97403,10.13367 -119.297,7.15864 -146.85855,1.16794 z"
       id="path883"
       inkscape:connector-curvature="0"
       transform="matrix(0.26458333,0,0,0.26458333,0,-3)"
       sodipodi:nodetypes="cssccscsc" />
  </g>
</svg>
