<?xml version="1.0" encoding="UTF-8" standalone="no"?>
<!-- Created with Inkscape (http://www.inkscape.org/) -->

<svg
   xmlns:dc="http://purl.org/dc/elements/1.1/"
   xmlns:cc="http://creativecommons.org/ns#"
   xmlns:rdf="http://www.w3.org/1999/02/22-rdf-syntax-ns#"
   xmlns:svg="http://www.w3.org/2000/svg"
   xmlns="http://www.w3.org/2000/svg"
   xmlns:xlink="http://www.w3.org/1999/xlink"
   xmlns:sodipodi="http://sodipodi.sourceforge.net/DTD/sodipodi-0.dtd"
   xmlns:inkscape="http://www.inkscape.org/namespaces/inkscape"
   width="300mm"
   height="300mm"
   viewBox="0 0 300 300"
   version="1.1"
   id="svg8"
   inkscape:version="0.92.2 (5c3e80d, 2017-08-06)"
   sodipodi:docname="pot_icon.svg">
  <defs
     id="defs2">
    <linearGradient
       inkscape:collect="always"
       id="linearGradient908">
      <stop
         style="stop-color:#ac9393;stop-opacity:1;"
         offset="0"
         id="stop904" />
      <stop
         style="stop-color:#ac9393;stop-opacity:0;"
         offset="1"
         id="stop906" />
    </linearGradient>
    <linearGradient
       inkscape:collect="always"
       xlink:href="#linearGradient908"
       id="linearGradient910"
       x1="87.389694"
       y1="184.97514"
       x2="129.89542"
       y2="184.97514"
       gradientUnits="userSpaceOnUse"
       gradientTransform="matrix(2.8438171,0,0,2.8438171,-163.01087,-315.57349)" />
  </defs>
  <sodipodi:namedview
     id="base"
     pagecolor="#ffffff"
     bordercolor="#666666"
     borderopacity="1.0"
     inkscape:pageopacity="0.0"
     inkscape:pageshadow="2"
     inkscape:zoom="0.49497475"
     inkscape:cx="-37.460195"
     inkscape:cy="623.23451"
     inkscape:document-units="mm"
     inkscape:current-layer="layer1"
     showgrid="false"
     inkscape:measure-start="0,0"
     inkscape:measure-end="0,0"
     inkscape:window-width="1920"
     inkscape:window-height="1001"
     inkscape:window-x="-9"
     inkscape:window-y="-9"
     inkscape:window-maximized="1" />
  <metadata
     id="metadata5">
    <rdf:RDF>
      <cc:Work
         rdf:about="">
        <dc:format>image/svg+xml</dc:format>
        <dc:type
           rdf:resource="http://purl.org/dc/dcmitype/StillImage" />
        <dc:title></dc:title>
      </cc:Work>
    </rdf:RDF>
  </metadata>
  <g
     inkscape:label="Layer 1"
     inkscape:groupmode="layer"
     id="layer1"
     transform="translate(0,3)">
    <path
       style="opacity:1;fill:#ffaaaa;fill-opacity:1;fill-rule:evenodd;stroke-width:0.75242656"
       id="path815"
       sodipodi:type="arc"
       sodipodi:cx="150.13618"
       sodipodi:cy="146.72716"
       sodipodi:rx="147.45274"
       sodipodi:ry="149.73293"
       sodipodi:start="5.0426925"
       sodipodi:end="4.7522523"
       sodipodi:open="true"
       d="M 197.95956,5.0882032 A 147.45274,149.73293 0 0 1 292.72009,184.88672 147.45274,149.73293 0 0 1 123.00067,293.90278 147.45274,149.73293 0 0 1 3.6151161,129.92168 147.45274,149.73293 0 0 1 156.01258,-2.8868145" />
    <path
       style="fill:url(#linearGradient910);fill-opacity:1;stroke:#000000;stroke-width:0.75242656px;stroke-linecap:butt;stroke-linejoin:miter;stroke-opacity:1"
       d="m 137.57983,159.54138 c -25.27392,11.71982 -42.625113,31.85751 -51.684474,60.80527 5.255147,31.35864 20.585544,32.49146 33.442884,41.04353 l 51.68447,1.52013 c 24.6104,-14.18789 30.21561,-28.37578 34.96303,-42.56366 -9.37468,-21.91518 -21.81219,-43.41263 -53.2046,-62.32538 z"
       id="path817"
       inkscape:connector-curvature="0"
       sodipodi:nodetypes="ccccccc" />
    <path
       sodipodi:type="star"
       style="opacity:1;fill:#0000ff;fill-opacity:1;fill-rule:evenodd;stroke-width:0.64367396"
       id="path854"
       sodipodi:sides="10"
       sodipodi:cx="154.26099"
       sodipodi:cy="50.421722"
       sodipodi:r1="20.460917"
       sodipodi:r2="5.5309129"
       sodipodi:arg1="0.77416225"
       sodipodi:arg2="1.0883215"
       inkscape:flatsided="false"
       inkscape:rounded="0"
       inkscape:randomized="0"
       d="m 168.89068,64.726304 -12.0635,-9.405026 0.86146,15.272214 -4.23145,-14.699575 -8.27984,12.861834 5.21688,-14.379387 -14.25853,5.538669 12.67253,-8.566761 -14.79094,-3.900078 15.28772,0.518075 -9.67372,-11.849128 12.0635,9.405026 -0.86146,-15.272215 4.23145,14.699576 8.27985,-12.861834 -5.21689,14.379387 14.25854,-5.538669 -12.67254,8.566761 14.79094,3.900078 -15.28771,-0.518076 z"
       inkscape:transform-center-x="-3.2712649e-005"
       inkscape:transform-center-y="1.3574404e-006" />
    <path
       sodipodi:type="star"
       style="opacity:1;fill:#00ff00;fill-opacity:1;fill-rule:evenodd;stroke-width:0.47450319"
       id="path854-4"
       sodipodi:sides="10"
       sodipodi:cx="165.71755"
       sodipodi:cy="106.8547"
       sodipodi:r1="15.083368"
       sodipodi:r2="4.0772748"
       sodipodi:arg1="0.77416225"
       sodipodi:arg2="1.0883215"
       inkscape:flatsided="false"
       inkscape:rounded="0"
       inkscape:randomized="0"
       d="m 176.50226,117.39974 -8.89297,-6.93319 0.63505,11.25836 -3.11933,-10.83622 -6.10374,9.48148 3.84578,-10.60019 -10.5111,4.08299 9.34194,-6.31524 -10.90358,-2.87506 11.26979,0.38192 -7.13127,-8.734936 8.89297,6.933196 -0.63505,-11.258367 3.11933,10.836227 6.10374,-9.481482 -3.84578,10.600192 10.5111,-4.082996 -9.34194,6.315246 10.90358,2.87505 -11.26979,-0.38191 z"
       inkscape:transform-center-y="-2.3728998e-005"
       inkscape:transform-center-x="-1.0419946e-006" />
    <path
       sodipodi:type="star"
       style="opacity:1;fill:#0000ff;fill-opacity:1;fill-rule:evenodd;stroke-width:0.47450319"
       id="path854-4-6"
       sodipodi:sides="10"
       sodipodi:cx="112.89294"
       sodipodi:cy="78.701286"
       sodipodi:r1="15.083368"
       sodipodi:r2="4.0772748"
       sodipodi:arg1="0.77416225"
       sodipodi:arg2="1.0883215"
       inkscape:flatsided="false"
       inkscape:rounded="0"
       inkscape:randomized="0"
       d="m 123.67765,89.24633 -8.89297,-6.933192 0.63505,11.258364 -3.11933,-10.836227 -6.10374,9.481481 3.84578,-10.60019 -10.511096,4.082995 9.341936,-6.315242 -10.903581,-2.875057 11.269791,0.381915 -7.13127,-8.734935 8.89297,6.933193 -0.63505,-11.258364 3.11934,10.836226 6.10373,-9.481481 -3.84578,10.60019 10.5111,-4.082994 -9.34194,6.315241 10.90358,2.875058 -11.26979,-0.381915 z"
       inkscape:transform-center-y="-1.1762037e-005"
       inkscape:transform-center-x="-2.3278129e-006" />
    <path
       sodipodi:type="star"
       style="opacity:1;fill:#ffff00;fill-opacity:1;fill-rule:evenodd;stroke-width:0.75242656"
       id="path886"
       sodipodi:sides="10"
       sodipodi:cx="126.57415"
       sodipodi:cy="107.96374"
       sodipodi:r1="15.669152"
       sodipodi:r2="4.2356229"
       sodipodi:arg1="1.1722739"
       sodipodi:arg2="1.4864331"
       inkscape:flatsided="false"
       inkscape:rounded="0"
       inkscape:randomized="0"
       d="m 132.65467,122.40498 -5.72361,-10.22068 -3.92601,11.03669 1.37706,-11.63296 -9.66341,6.62122 7.95175,-8.60185 -11.70973,-0.32333 11.48915,-2.28512 -9.28332,-7.144383 10.63807,4.904453 -3.31099,-11.236528 5.72361,10.220688 3.92601,-11.036698 -1.37706,11.632968 9.66342,-6.621225 -7.95176,8.601845 11.70973,0.32334 -11.48915,2.28511 9.28332,7.14439 -10.63807,-4.90445 z"
       inkscape:transform-center-x="4.1419624e-006"
       inkscape:transform-center-y="-1.1359688e-005" />
    <path
       style="fill:none;stroke:#000000;stroke-width:0.75242656px;stroke-linecap:butt;stroke-linejoin:miter;stroke-opacity:1"
       d="M 85.895344,220.34665 H 205.98574 v 0 0"
       id="path914"
       inkscape:connector-curvature="0" />
    <path
       style="fill:none;stroke:#000000;stroke-width:0.75242656px;stroke-linecap:butt;stroke-linejoin:miter;stroke-opacity:1"
       d="m 100.35186,189.67084 87.7876,-1.14008 v 0"
       id="path916"
       inkscape:connector-curvature="0"
       sodipodi:nodetypes="ccc" />
    <path
       style="fill:none;stroke:#000000;stroke-width:0.75242656px;stroke-linecap:butt;stroke-linejoin:miter;stroke-opacity:1"
       d="m 98.831743,248.1959 88.927697,2.28022"
       id="path918"
       inkscape:connector-curvature="0" />
    <path
       style="opacity:1;fill:#00ff00;fill-opacity:1;fill-rule:evenodd;stroke-width:0.38003281"
       d="m 115.25946,205.03547 v -14.78583 l 3.5153,-0.21619 c 1.93343,-0.119 14.16097,-0.32113 27.17235,-0.44941 l 23.65704,-0.2332 v 15.23522 15.2352 H 142.4318 115.25946 Z"
       id="path920"
       inkscape:connector-curvature="0" />
    <path
       style="opacity:1;fill:#00ff00;fill-opacity:1;fill-rule:evenodd;stroke-width:0.38003281"
       d="m 169.60415,204.67908 v -15.14221 l 5.41546,-0.24774 c 2.97852,-0.13619 7.05538,-0.24837 9.05971,-0.24914 l 3.64425,-10e-4 2.10915,2.94526 c 3.37584,4.714 6.33888,9.47199 8.71897,14.00067 l 2.21516,4.21486 v 4.81094 4.81093 h -15.58136 -15.58134 z"
       id="path922"
       inkscape:connector-curvature="0" />
    <path
       style="opacity:1;fill:#00ff00;fill-opacity:1;fill-rule:evenodd;stroke-width:0.38003281"
       d="m 86.757012,219.62516 c 0,-0.78278 3.912701,-10.72577 5.680447,-14.43515 2.187576,-4.59037 6.12198,-11.48467 7.861751,-13.7762 l 0.93772,-1.2351 h 7.01126 7.01127 v 14.82128 14.82127 h -14.25124 c -7.838167,0 -14.251208,-0.0882 -14.251208,-0.1961 z"
       id="path924"
       inkscape:connector-curvature="0" />
    <path
       style="opacity:1;fill:#00ff00;fill-opacity:1;fill-rule:evenodd;stroke-width:0.38003281"
       d="m 200.79953,215.16585 0.0326,-4.65539 1.81291,3.80034 c 2.76196,5.78983 2.74991,5.51046 0.23753,5.51046 h -2.11578 z"
       id="path926"
       inkscape:connector-curvature="0" />
    <path
       style="opacity:1;fill:#0000ff;fill-opacity:1;fill-rule:evenodd;stroke-width:0.38003281"
       d="m 138.63149,248.68212 c -12.75011,-0.36979 -24.84941,-0.68722 -26.88734,-0.7054 l -3.70531,-0.033 v -13.49117 -13.49117 h 26.98232 26.98234 v 14.0612 c 0,12.19439 0.0751,14.06123 0.56542,14.06123 0.48855,0 0.57963,-1.92452 0.66982,-14.15622 l 0.10453,-14.15622 0.0903,14.34623 0.0902,14.34623 -0.85508,-0.0547 c -0.47029,-0.0301 -11.28697,-0.35724 -24.03705,-0.72704 z"
       id="path928"
       inkscape:connector-curvature="0" />
    <path
       style="opacity:1;fill:#0000ff;fill-opacity:1;fill-rule:evenodd;stroke-width:0.38003281"
       d="m 170.64925,249.55937 -7.12563,-0.11238 -0.0723,-13.7678 -0.0723,-13.76782 -0.25567,12.35108 c -0.14054,6.79308 -0.30734,12.86411 -0.37048,13.49117 -0.25528,2.53551 -0.663,-7.0812 -0.70492,-16.62644 l -0.0445,-10.16588 h 18.05155 18.05155 v 8.31735 8.31735 l -2.27186,3.17864 c -1.24952,1.74826 -3.48405,4.50402 -4.9656,6.12391 l -2.69377,2.94525 -5.20025,-0.0861 c -2.86015,-0.0473 -8.4068,-0.13667 -12.32589,-0.1984 z"
       id="path930"
       inkscape:connector-curvature="0" />
    <path
       style="opacity:1;fill:#0000ff;fill-opacity:1;fill-rule:evenodd;stroke-width:0.38003281"
       d="m 198.10661,229.02661 v -8.06525 h 3.4203 c 1.9078,0 3.42029,0.1597 3.42029,0.36119 0,0.71609 -2.67248,7.72366 -4.13937,10.85393 -2.77767,5.9274 -2.70122,6.01653 -2.70122,-3.14987 z"
       id="path932"
       inkscape:connector-curvature="0" />
    <path
       style="opacity:1;fill:#0000ff;fill-opacity:1;fill-rule:evenodd;stroke-width:0.38003281"
       d="m 100.81821,247.66134 c -1.629234,-0.11041 -2.329166,-0.36739 -3.173953,-1.16481 -2.875476,-2.71438 -6.543121,-9.16964 -8.35437,-14.70423 -1.08458,-3.31408 -2.525968,-9.10533 -2.530225,-10.16588 -0.0012,-0.61762 0.756394,-0.66506 10.638263,-0.66506 h 10.640915 v 13.49117 13.49117 l -2.56522,-0.0704 c -1.41088,-0.0386 -3.50581,-0.13411 -4.65541,-0.21207 z"
       id="path934"
       inkscape:connector-curvature="0" />
    <path
       style="opacity:1;fill:#ff2a2a;fill-opacity:1;fill-rule:evenodd;stroke-width:0.38003281"
       d="m 115.63948,181.60218 v -7.36911 l 2.94526,-2.34443 c 4.17855,-3.32613 10.24491,-7.23288 15.05147,-9.69316 l 4.12553,-2.11169 7.54916,-0.76507 7.54916,-0.76508 5.42679,3.63532 c 2.98474,1.99941 6.70939,4.63228 8.27703,5.85079 l 2.85026,2.2155 0.1017,8.96674 0.1017,8.96673 -16.6332,0.2311 c -9.14827,0.12702 -21.29336,0.30318 -26.98909,0.39129 l -10.35592,0.16019 z"
       id="path936"
       inkscape:connector-curvature="0" />
    <path
       style="opacity:1;fill:#ff2a2a;fill-opacity:1;fill-rule:evenodd;stroke-width:0.38003281"
       d="m 169.60415,179.59586 c 0,-4.83935 0.10894,-8.79882 0.24206,-8.79882 1.05804,0 17.26876,16.43876 16.73606,16.97149 -0.0633,0.0634 -3.90929,0.23008 -8.54661,0.37063 l -8.43151,0.25553 z"
       id="path938"
       inkscape:connector-curvature="0" />
    <path
       style="opacity:1;fill:#ff2a2a;fill-opacity:1;fill-rule:evenodd;stroke-width:0.38003281"
       d="m 103.73826,186.67128 c 1.0067,-1.30202 4.09151,-4.67956 6.85512,-7.50564 l 5.02478,-5.13832 0.011,7.50563 0.011,7.50565 h -6.86581 -6.8658 z"
       id="path940"
       inkscape:connector-curvature="0" />
    <path
       sodipodi:type="star"
       style="opacity:1;fill:#ff2a2a;fill-opacity:1;fill-rule:evenodd;stroke-width:0.75242656"
       id="path942"
       sodipodi:sides="10"
       sodipodi:cx="101.87199"
       sodipodi:cy="23.596523"
       sodipodi:r1="15.983982"
       sodipodi:r2="4.3207264"
       sodipodi:arg1="1.0752447"
       sodipodi:arg2="1.3894039"
       inkscape:flatsided="false"
       inkscape:rounded="0"
       inkscape:randomized="0"
       d="m 109.47264,37.657737 -6.8212,-9.811376 -2.895368,11.593476 0.248518,-11.94697 -9.156881,7.677463 7.223306,-9.519228 -11.920769,0.82892 11.439039,-3.455464 -10.131332,-6.336242 11.285448,3.928169 -4.47207,-11.0811752 6.821199,9.8113752 2.89537,-11.5934754 -0.24851,11.9469694 9.15687,-7.677462 -7.2233,9.519227 11.92077,-0.828919 -11.43904,3.455464 10.13133,6.336242 -11.28545,-3.928169 z"
       inkscape:transform-center-x="1.4528848e-005"
       inkscape:transform-center-y="4.3385956e-006" />
    <path
       sodipodi:type="star"
       style="opacity:1;fill:#ff2a2a;fill-opacity:1;fill-rule:evenodd;stroke-width:0.75242656"
       id="path944"
       sodipodi:sides="10"
       sodipodi:cx="181.67893"
       sodipodi:cy="76.421051"
       sodipodi:r1="15.765635"
       sodipodi:r2="4.261704"
       sodipodi:arg1="1.3024301"
       sodipodi:arg2="1.6165894"
       inkscape:flatsided="false"
       inkscape:rounded="0"
       inkscape:randomized="0"
       d="m 185.85929,91.622361 -4.37545,-10.944074 -5.35804,10.498036 2.89295,-11.425765 -10.50533,5.343715 9.05635,-7.543204 -11.63995,-1.851722 11.76052,-0.779394 -8.3285,-8.339866 9.97257,6.282117 -1.83585,-11.642463 4.37545,10.944074 5.35804,-10.498036 -2.89295,11.425766 10.50533,-5.343716 -9.05635,7.543204 11.63995,1.851722 -11.76052,0.779394 8.3285,8.339866 -9.97257,-6.282117 z"
       inkscape:transform-center-x="7.123509e-006"
       inkscape:transform-center-y="-1.164672e-005" />
    <path
       sodipodi:type="star"
       style="opacity:1;fill:#ffff00;fill-opacity:1;fill-rule:evenodd;stroke-width:0.75242656"
       id="path946"
       sodipodi:sides="10"
       sodipodi:cx="140.25533"
       sodipodi:cy="139.50655"
       sodipodi:r1="11.388309"
       sodipodi:r2="3.0784423"
       sodipodi:arg1="1.122073"
       sodipodi:arg2="1.4362322"
       inkscape:flatsided="false"
       inkscape:rounded="0"
       inkscape:randomized="0"
       d="m 145.19575,149.76743 -4.52743,-7.21027 -2.4473,8.15453 0.57532,-8.49439 -6.77302,5.15866 5.45832,-6.53394 -8.51167,0.19236 8.25643,-2.07774 -6.99916,-4.84741 7.90086,3.17207 -2.8132,-8.03564 4.52743,7.21027 2.4473,-8.15452 -0.57532,8.49438 6.77302,-5.15866 -5.45832,6.53394 8.51167,-0.19236 -8.25643,2.07774 6.99916,4.84742 -7.90086,-3.17208 z"
       inkscape:transform-center-x="4.3165527e-006"
       inkscape:transform-center-y="1.6581855e-005" />
  </g>
</svg>
