<?xml version="1.0" encoding="UTF-8" standalone="no"?>
<!-- Created with Inkscape (http://www.inkscape.org/) -->

<svg
   xmlns:dc="http://purl.org/dc/elements/1.1/"
   xmlns:cc="http://creativecommons.org/ns#"
   xmlns:rdf="http://www.w3.org/1999/02/22-rdf-syntax-ns#"
   xmlns:svg="http://www.w3.org/2000/svg"
   xmlns="http://www.w3.org/2000/svg"
   xmlns:sodipodi="http://sodipodi.sourceforge.net/DTD/sodipodi-0.dtd"
   xmlns:inkscape="http://www.inkscape.org/namespaces/inkscape"
   width="300mm"
   height="300mm"
   viewBox="0 0 300 300"
   version="1.1"
   id="svg8"
   inkscape:version="0.92.2 (5c3e80d, 2017-08-06)"
   sodipodi:docname="shell_icon.svg">
  <defs
     id="defs2" />
  <sodipodi:namedview
     id="base"
     pagecolor="#ffffff"
     bordercolor="#666666"
     borderopacity="1.0"
     inkscape:pageopacity="0.0"
     inkscape:pageshadow="2"
     inkscape:zoom="0.49497475"
     inkscape:cx="607.80937"
     inkscape:cy="542.36483"
     inkscape:document-units="mm"
     inkscape:current-layer="layer1"
     showgrid="false"
     inkscape:window-width="1920"
     inkscape:window-height="1001"
     inkscape:window-x="-9"
     inkscape:window-y="-9"
     inkscape:window-maximized="1" />
  <metadata
     id="metadata5">
    <rdf:RDF>
      <cc:Work
         rdf:about="">
        <dc:format>image/svg+xml</dc:format>
        <dc:type
           rdf:resource="http://purl.org/dc/dcmitype/StillImage" />
        <dc:title></dc:title>
      </cc:Work>
    </rdf:RDF>
  </metadata>
  <g
     inkscape:label="Layer 1"
     inkscape:groupmode="layer"
     id="layer1"
     transform="translate(0,3)">
    <path
       style="opacity:1;fill:#ffff00;fill-opacity:1;fill-rule:evenodd;stroke-width:0.48503855"
       id="path815"
       sodipodi:type="arc"
       sodipodi:cx="150.70587"
       sodipodi:cy="146.93224"
       sodipodi:rx="145.51901"
       sodipodi:ry="148.45877"
       sodipodi:start="5.0426925"
       sodipodi:end="4.7522523"
       sodipodi:open="true"
       d="M 197.90208,6.4985602 A 145.51901,148.45877 0 0 1 291.4199,184.76708 145.51901,148.45877 0 0 1 123.92622,292.85546 145.51901,148.45877 0 0 1 6.1063158,130.26976 145.51901,148.45877 0 0 1 156.50521,-1.4085939" />
    <g
       id="g882"
       transform="matrix(1.8332166,0,0,1.8332166,-58.598363,108.87923)">
      <path
         style="opacity:1;fill:#ff6600;fill-opacity:1;fill-rule:evenodd;stroke-width:0.71428573"
         d=""
         id="path932"
         inkscape:connector-curvature="0"
         transform="matrix(0.26458333,0,0,0.26458333,10.205358,-142.875)" />
      <g
         id="g961"
         transform="translate(90.525298,-8.3154762)">
        <rect
           style="opacity:1;fill:#ffff00;fill-opacity:1;fill-rule:evenodd;stroke-width:0.26458332"
           id="rect817"
           width="12.828938"
           height="35.279575"
           x="17.639788"
           y="73.562675"
           ry="1.7419371e-014" />
        <path
           style="fill:none;stroke:#000000;stroke-width:0.26741934px;stroke-linecap:butt;stroke-linejoin:miter;stroke-opacity:1"
           d="m 17.633441,77.438082 12.96892,-0.267269 v 0"
           id="path819"
           inkscape:connector-curvature="0" />
        <path
           style="fill:none;stroke:#000000;stroke-width:0.26458332px;stroke-linecap:butt;stroke-linejoin:miter;stroke-opacity:1"
           d="M 17.639789,80.645316 30.86963,80.378048"
           id="path821"
           inkscape:connector-curvature="0" />
        <path
           style="fill:none;stroke:#000000;stroke-width:0.26800752px;stroke-linecap:butt;stroke-linejoin:miter;stroke-opacity:1"
           d="M 17.576329,83.31801 H 30.602361"
           id="path823"
           inkscape:connector-curvature="0" />
        <path
           style="fill:none;stroke:#000000;stroke-width:0.26908779px;stroke-linecap:butt;stroke-linejoin:miter;stroke-opacity:1"
           d="m 17.609332,86.257976 12.993029,0.267271"
           id="path825"
           inkscape:connector-curvature="0" />
        <path
           style="fill:none;stroke:#000000;stroke-width:0.26747534px;stroke-linecap:butt;stroke-linejoin:miter;stroke-opacity:1"
           d="M 30.335275,89.865946 17.62339,89.465378"
           id="path827"
           inkscape:connector-curvature="0" />
        <path
           style="fill:none;stroke:#000000;stroke-width:0.26680121px;stroke-linecap:butt;stroke-linejoin:miter;stroke-opacity:1"
           d="M 17.557443,92.538811 30.602361,93.073348 30.194708,92.80608"
           id="path829"
           inkscape:connector-curvature="0" />
        <path
           style="fill:none;stroke:#000000;stroke-width:0.26824513px;stroke-linecap:butt;stroke-linejoin:miter;stroke-opacity:1"
           d="M 30.555293,95.746045 17.506154,95.34514"
           id="path831"
           inkscape:connector-curvature="0" />
        <path
           style="fill:none;stroke:#000000;stroke-width:0.26458332px;stroke-linecap:butt;stroke-linejoin:miter;stroke-opacity:1"
           d="m 17.506154,98.017834 12.962572,0.53454 v 0"
           id="path833"
           inkscape:connector-curvature="0" />
        <path
           style="fill:none;stroke:#000000;stroke-width:0.26458332px;stroke-linecap:butt;stroke-linejoin:miter;stroke-opacity:1"
           d="M 30.468726,98.552372 Z"
           id="path835"
           inkscape:connector-curvature="0" />
        <path
           style="fill:none;stroke:#000000;stroke-width:0.26458332px;stroke-linecap:butt;stroke-linejoin:miter;stroke-opacity:1"
           d="m 30.468726,101.3587 -12.828937,-0.4009 v 0"
           id="path837"
           inkscape:connector-curvature="0" />
        <path
           style="fill:none;stroke:#000000;stroke-width:0.26458332px;stroke-linecap:butt;stroke-linejoin:miter;stroke-opacity:1"
           d="m 17.639789,103.76413 12.962572,0.66818 v 0"
           id="path839"
           inkscape:connector-curvature="0" />
        <path
           style="fill:#ff0000;stroke:#000000;stroke-width:0.26458332px;stroke-linecap:butt;stroke-linejoin:miter;stroke-opacity:1"
           d="m 17.764881,106.35826 12.473213,0.0472 0.330729,0.0472 v 0"
           id="path841"
           inkscape:connector-curvature="0" />
        <path
           style="opacity:1;fill:#008080;fill-opacity:1;fill-rule:evenodd;stroke-width:0.17857143"
           d="m 103.73451,393.52502 c -5.205361,-0.27769 -15.08929,-0.78994 -21.96429,-1.13832 -6.875,-0.34838 -13.082589,-0.68078 -13.794642,-0.73868 l -1.294643,-0.10526 v -4.72885 -4.72885 l 1.830357,0.10526 c 1.006696,0.0579 11.3125,0.3859 22.901786,0.72889 11.589282,0.343 21.654022,0.66947 22.366072,0.72549 l 1.29464,0.10186 v 5.16334 5.16333 l -0.9375,-0.0217 c -0.51562,-0.0119 -5.19643,-0.24886 -10.40178,-0.52656 z"
           id="path845"
           inkscape:connector-curvature="0"
           transform="scale(0.26458333)" />
        <path
           style="opacity:1;fill:#00ffff;fill-opacity:1;fill-rule:evenodd;stroke-width:0.17857143"
           d="M 90.52022,381.74184 C 79.127363,381.369 69.10281,381.058 68.243435,381.05074 l -1.5625,-0.0132 v -5.01719 -5.01718 l 1.830357,0.11176 c 1.006696,0.0615 8.741071,0.39099 17.1875,0.73228 8.446428,0.34129 18.113118,0.74069 21.481538,0.88757 3.36842,0.14687 6.52244,0.26704 7.00893,0.26704 h 0.88453 v 4.73215 4.73214 l -1.91964,-0.0232 c -1.0558,-0.0127 -11.24107,-0.32824 -22.63393,-0.70107 z"
           id="path847"
           inkscape:connector-curvature="0"
           transform="scale(0.26458333)" />
        <path
           style="opacity:1;fill:#00ff00;fill-opacity:1;fill-rule:evenodd;stroke-width:0.17857143"
           d="m 91.502363,360.57627 c -10.459821,-0.32666 -20.32366,-0.64632 -21.919643,-0.71035 l -2.901785,-0.11642 v -4.71877 -4.71877 l 1.830357,0.10159 c 1.006696,0.0559 6.772321,0.30004 12.8125,0.54259 6.040178,0.24254 15.795677,0.64133 21.678888,0.88618 5.88321,0.24486 11.00598,0.4452 11.38393,0.4452 h 0.68718 v 4.46428 4.46429 l -2.27678,-0.0229 c -1.25224,-0.0126 -10.83483,-0.29021 -21.294647,-0.61687 z"
           id="path849"
           inkscape:connector-curvature="0"
           transform="scale(0.26458333)" />
        <path
           style="opacity:1;fill:#ff0000;fill-opacity:1;fill-rule:evenodd;stroke-width:0.17857143"
           d="m 104.89522,350.76163 c -2.79911,-0.12322 -12.54241,-0.52999 -21.651785,-0.90393 l -16.5625,-0.67989 v -5.24966 -5.24966 l 2.723214,0.11595 c 4.347261,0.1851 42.149981,1.35022 43.808291,1.35022 h 1.50421 v -0.51418 -0.51417 l -2.36607,-0.11257 c -1.30134,-0.0619 -7.75,-0.27842 -14.33036,-0.48112 -6.580357,-0.20271 -16.303571,-0.50326 -21.607142,-0.6679 l -9.642858,-0.29934 -0.04725,-5.50909 -0.04725,-5.50909 3.17225,0.11107 c 1.744737,0.0611 11.569571,0.27016 21.832964,0.46461 10.263396,0.19445 19.725446,0.40188 21.026786,0.46096 l 2.36607,0.10741 v 11.50108 c 0,11.43945 -0.002,11.49988 -0.35557,11.27901 -0.30556,-0.19082 -0.39489,-0.16592 -0.63513,0.17706 -0.2619,0.37392 -0.40011,0.39748 -2.18907,0.37319 -1.05023,-0.0143 -4.19969,-0.12674 -6.9988,-0.24996 z"
           id="path851"
           inkscape:connector-curvature="0"
           transform="scale(0.26458333)" />
        <path
           style="opacity:1;fill:#0000ff;fill-opacity:1;fill-rule:evenodd;stroke-width:0.17857143"
           d="m 91.502363,325.93826 c -10.066964,-0.2235 -19.770089,-0.41314 -21.5625,-0.42141 l -3.258928,-0.015 v -5 -5 h 24.196428 24.196427 v 5.44643 5.44643 l -2.63393,-0.025 c -1.44866,-0.0138 -10.87053,-0.20788 -20.937497,-0.43138 z"
           id="path853"
           inkscape:connector-curvature="0"
           transform="scale(0.26458333)" />
        <path
           style="opacity:1;fill:#0000ff;fill-opacity:1;fill-rule:evenodd;stroke-width:0.17857143"
           d="m 66.680935,298.77465 v -5.51805 l 20.491071,-0.40462 c 11.270089,-0.22254 22.158484,-0.45336 24.196424,-0.51293 l 3.70536,-0.10833 v 5.4588 5.4588 l -1.47321,0.10043 c -0.81027,0.0552 -10.35268,0.26308 -21.20536,0.46185 -10.852678,0.19878 -21.078125,0.41107 -22.723214,0.47176 l -2.991071,0.11035 z"
           id="path855"
           inkscape:connector-curvature="0"
           transform="scale(0.26458333)" />
        <path
           style="opacity:1;fill:#ff00ff;fill-opacity:1;fill-rule:evenodd;stroke-width:0.17857143"
           d="m 66.680935,402.01966 v -9.19643 l 0.758928,9.8e-4 c 0.417411,5.4e-4 6.0625,0.27698 12.544643,0.61431 6.482143,0.33734 16.848214,0.86421 23.035714,1.17083 6.1875,0.30662 11.4308,0.59421 11.65179,0.63909 0.3988,0.081 0.40178,0.10551 0.40178,3.30302 0,1.77178 -0.0603,3.18629 -0.13393,3.14335 -0.0737,-0.0429 -10.88741,-0.13642 -24.030557,-0.20775 l -23.896633,-0.12967 0.05735,0.59899 0.05735,0.599 23.928572,0.10316 c 13.160718,0.0567 23.948668,0.11701 23.973218,0.13393 0.0246,0.0169 0.0446,1.91916 0.0446,4.22719 v 4.19643 H 90.877363 66.680935 Z"
           id="path857"
           inkscape:connector-curvature="0"
           transform="scale(0.26458333)" />
        <path
           style="opacity:1;fill:#c83737;fill-opacity:1;fill-rule:evenodd;stroke-width:0.17857143"
           d="m 66.680935,285.16835 v -6.98797 h 24.196428 24.196427 v 6.4119 6.41191 l -1.65178,0.10206 c -0.90849,0.0561 -10.25,0.26459 -20.758932,0.46324 -10.508929,0.19864 -20.654018,0.41195 -22.544643,0.47401 l -3.4375,0.11283 z"
           id="path859"
           inkscape:connector-curvature="0"
           transform="scale(0.26458333)" />
        <path
           transform="matrix(0.26458333,0,0,0.26458333,10.205358,-142.875)"
           inkscape:connector-curvature="0"
           id="path930"
           d="m 28.323511,849.8791 v -3.87172 l 4.464286,-0.39686 c 2.455357,-0.21827 13.223214,-0.50856 23.928571,-0.64509 l 19.464286,-0.24822 v 4.5168 4.51681 H 52.252083 28.323511 Z"
           style="opacity:1;fill:#c87137;fill-opacity:1;fill-rule:evenodd;stroke-width:0.71428573" />
        <path
           transform="matrix(0.26458333,0,0,0.26458333,10.205358,-142.875)"
           inkscape:connector-curvature="0"
           id="path936"
           d="m 47.966368,910.49431 c -10.607142,-0.49295 -19.366071,-0.92618 -19.464285,-0.96274 -0.09821,-0.0366 -0.178572,-2.0167 -0.178572,-4.40031 0,-3.78688 0.157763,-4.28893 1.25,-3.97793 0.6875,0.19575 11.455357,0.57839 23.928572,0.85031 l 22.678571,0.4944 v 4.55496 4.55496 l -4.464286,-0.10868 c -2.455357,-0.0598 -13.142857,-0.51201 -23.75,-1.00497 z"
           style="opacity:1;fill:#ff6600;fill-opacity:1;fill-rule:evenodd;stroke-width:0.71428573" />
      </g>
    </g>
    <path
       sodipodi:type="star"
       style="opacity:1;fill:#c83737;fill-opacity:1;fill-rule:evenodd;stroke-width:0.48503855"
       id="path884"
       sodipodi:sides="10"
       sodipodi:cx="147.8895"
       sodipodi:cy="142.32177"
       sodipodi:r1="11.048637"
       sodipodi:r2="10.507878"
       sodipodi:arg1="0.85196633"
       sodipodi:arg2="1.1661256"
       inkscape:flatsided="true"
       inkscape:rounded="0"
       inkscape:randomized="0"
       d="m 155.16507,150.63672 -6.27691,2.68847 -6.65837,-1.51447 -4.49656,-5.13892 -0.6172,-6.80048 3.49789,-5.86449 6.27691,-2.68846 6.65837,1.51446 4.49656,5.13892 0.61721,6.80048 z"
       inkscape:transform-center-y="-1.7366657e-005"
       inkscape:transform-center-x="3.607255e-006" />
    <path
       style="fill:none;stroke:#000000;stroke-width:0.48503855px;stroke-linecap:butt;stroke-linejoin:miter;stroke-opacity:1"
       d="M 158.04572,137.97175 232.07831,85.156523 231.38541,83.7707"
       id="path886"
       inkscape:connector-curvature="0" />
    <path
       style="fill:none;stroke:#000000;stroke-width:0.48503855px;stroke-linecap:butt;stroke-linejoin:miter;stroke-opacity:1"
       d="m 158.66292,144.77223 73.76185,30.11645"
       id="path888"
       inkscape:connector-curvature="0" />
    <path
       style="fill:none;stroke:#000000;stroke-width:0.48503855px;stroke-linecap:butt;stroke-linejoin:miter;stroke-opacity:1"
       d="m 155.16505,150.63674 27.37005,58.20462"
       id="path890"
       inkscape:connector-curvature="0" />
    <path
       style="fill:none;stroke:#000000;stroke-width:0.48503855px;stroke-linecap:butt;stroke-linejoin:miter;stroke-opacity:1"
       d="M 142.22976,151.81073 61.922988,179.35185"
       id="path892"
       inkscape:connector-curvature="0"
       sodipodi:nodetypes="cc" />
    <path
       style="fill:none;stroke:#000000;stroke-width:0.48764864px;stroke-linecap:butt;stroke-linejoin:miter;stroke-opacity:1"
       d="m 148.88804,153.32509 -44.17559,53.82715"
       id="path894"
       inkscape:connector-curvature="0"
       sodipodi:nodetypes="cc" />
    <path
       style="fill:none;stroke:#000000;stroke-width:0.48503855px;stroke-linecap:butt;stroke-linejoin:miter;stroke-opacity:1"
       d="M 137.73319,146.6718 57.810894,139.8966"
       id="path896"
       inkscape:connector-curvature="0" />
    <path
       style="fill:none;stroke:#000000;stroke-width:0.48503855px;stroke-linecap:butt;stroke-linejoin:miter;stroke-opacity:1"
       d="M 140.61389,134.00684 95.574604,57.093595"
       id="path898"
       inkscape:connector-curvature="0" />
    <path
       style="fill:none;stroke:#000000;stroke-width:0.48503855px;stroke-linecap:butt;stroke-linejoin:miter;stroke-opacity:1"
       d="M 137.11598,139.87132 51.921136,90.006902 52.960507,89.660456"
       id="path900"
       inkscape:connector-curvature="0" />
    <path
       style="fill:none;stroke:#000000;stroke-width:0.48503855px;stroke-linecap:butt;stroke-linejoin:miter;stroke-opacity:1"
       d="M 153.54918,132.83282 216.83424,46.6999"
       id="path902"
       inkscape:connector-curvature="0" />
    <path
       style="fill:none;stroke:#000000;stroke-width:0.48503855px;stroke-linecap:butt;stroke-linejoin:miter;stroke-opacity:1"
       d="M 146.89079,131.31838 146.15721,33.188118"
       id="path904"
       inkscape:connector-curvature="0" />
    <path
       sodipodi:type="star"
       style="opacity:1;fill:#ff0000;fill-opacity:1;fill-rule:evenodd;stroke-width:0.48503855"
       id="path908"
       sodipodi:sides="10"
       sodipodi:cx="59.028381"
       sodipodi:cy="139.43531"
       sodipodi:r1="13.260716"
       sodipodi:r2="3.5845835"
       sodipodi:arg1="0.34653855"
       sodipodi:arg2="0.66069782"
       inkscape:flatsided="false"
       inkscape:rounded="0"
       inkscape:randomized="0"
       d="m 71.500801,143.93923 -9.642161,-2.30418 4.6128,8.77511 -6.446308,-7.53164 -1.426048,9.81055 -0.788186,-9.88227 -6.920194,7.09869 5.170998,-8.45821 -9.771061,1.67538 9.155036,-3.8034 -8.889716,-4.38788 9.642162,2.30418 -4.612801,-8.77511 6.446309,7.53164 1.426048,-9.81055 0.788185,9.88227 6.920194,-7.09869 -5.170998,8.4582 9.771062,-1.67537 -9.155036,3.8034 z"
       inkscape:transform-center-y="-5.1968471"
       inkscape:transform-center-x="4.5039251" />
    <path
       sodipodi:type="star"
       style="opacity:1;fill:#0000ff;fill-opacity:1;fill-rule:evenodd;stroke-width:0.48503855"
       id="path910"
       sodipodi:sides="10"
       sodipodi:cx="50.393467"
       sodipodi:cy="87.738045"
       sodipodi:r1="10.118654"
       sodipodi:r2="2.735234"
       sodipodi:arg1="0.66404639"
       sodipodi:arg2="0.97820565"
       inkscape:flatsided="false"
       inkscape:rounded="0"
       inkscape:randomized="0"
       d="m 58.361956,93.974257 -6.440828,-3.967345 1.253429,7.460095 -2.878793,-6.995474 -3.370888,6.772091 1.782843,-7.351569 -6.707641,3.497378 5.763495,-4.899615 -7.482303,-1.113214 7.542687,-0.576175 -5.398979,-5.298596 6.440828,3.967345 -1.253429,-7.460095 2.878793,6.995473 3.370888,-6.772091 -1.782843,7.35157 6.707641,-3.497379 -5.763495,4.899616 7.482303,1.113214 -7.542687,0.576174 z"
       inkscape:transform-center-y="-7.3531589e-006"
       inkscape:transform-center-x="6.7297605e-006" />
    <path
       sodipodi:type="star"
       style="opacity:1;fill:#ff6600;fill-opacity:1;fill-rule:evenodd;stroke-width:0.48503855"
       id="path912"
       sodipodi:sides="10"
       sodipodi:cx="93.717354"
       sodipodi:cy="54.323746"
       sodipodi:r1="12.33695"
       sodipodi:r2="3.3348753"
       sodipodi:arg1="0.6659697"
       sodipodi:arg2="0.98012896"
       inkscape:flatsided="false"
       inkscape:rounded="0"
       inkscape:randomized="0"
       d="m 103.41812,61.945784 -7.843523,-4.852194 1.51072,9.098482 -3.493495,-8.535814 -4.125756,8.248805 2.190929,-8.959045 -8.186332,4.248366 7.038492,-5.960224 -9.120008,-1.374805 9.197591,-0.6848 -6.570151,-6.472848 7.843523,4.852194 -1.51072,-9.098481 3.493496,8.535814 4.125755,-8.248805 -2.190928,8.959044 8.186327,-4.248365 -7.038487,5.960223 9.120007,1.374806 -9.197591,0.6848 z"
       inkscape:transform-center-y="-5.4737887e-006"
       inkscape:transform-center-x="2.9491585e-006" />
    <path
       sodipodi:type="star"
       style="opacity:1;fill:#00ff00;fill-opacity:1;fill-rule:evenodd;stroke-width:0.48503855"
       id="path914"
       sodipodi:sides="10"
       sodipodi:cx="147.71832"
       sodipodi:cy="35.960213"
       sodipodi:r1="11.769319"
       sodipodi:r2="3.1814351"
       sodipodi:arg1="0.74375537"
       sodipodi:arg2="1.0579146"
       inkscape:flatsided="false"
       inkscape:rounded="0"
       inkscape:randomized="0"
       d="m 156.37973,43.928705 -7.10031,-5.196399 0.76237,8.7656 -2.68991,-8.377432 -4.53552,7.539627 2.74795,-8.358571 -8.101,3.433772 7.13619,-5.14702 -8.57217,-1.983667 8.79864,0.03052 -5.76906,-6.643413 7.10031,5.196399 -0.76236,-8.765601 2.6899,8.377432 4.53553,-7.539627 -2.74796,8.358571 8.101,-3.433772 -7.13618,5.14702 8.57216,1.983667 -8.79864,-0.03052 z"
       inkscape:transform-center-x="-4.3674362e-006" />
    <path
       sodipodi:type="star"
       style="opacity:1;fill:#00ffff;fill-opacity:1;fill-rule:evenodd;stroke-width:0.48503855"
       id="path916"
       sodipodi:sides="10"
       sodipodi:cx="213.74371"
       sodipodi:cy="49.41581"
       sodipodi:r1="15.220428"
       sodipodi:r2="4.1143255"
       sodipodi:arg1="0.849825"
       sodipodi:arg2="1.1639843"
       inkscape:flatsided="false"
       inkscape:rounded="0"
       inkscape:randomized="0"
       d="m 223.79094,60.848861 -8.41926,-7.654509 -0.21977,11.376603 -2.31211,-11.141343 -6.8648,9.074686 4.67818,-10.372562 -10.88771,3.306547 9.88157,-5.641815 -10.75188,-3.724579 11.31053,1.243913 -6.5092,-9.333044 8.41925,7.654509 0.21977,-11.376602 2.31212,11.141342 6.8648,-9.074686 -4.67818,10.372562 10.88771,-3.306547 -9.88157,5.641815 10.75188,3.72458 -11.31053,-1.243913 z"
       inkscape:transform-center-x="1.3708161e-005"
       inkscape:transform-center-y="-1.1381619e-005" />
    <path
       sodipodi:type="star"
       style="opacity:1;fill:#000080;fill-opacity:1;fill-rule:evenodd;stroke-width:0.48503855"
       id="path918"
       sodipodi:sides="10"
       sodipodi:cx="231.38544"
       sodipodi:cy="83.770722"
       sodipodi:r1="13.310409"
       sodipodi:r2="3.5980165"
       sodipodi:arg1="0.89605563"
       sodipodi:arg2="1.2102149"
       inkscape:flatsided="false"
       inkscape:rounded="0"
       inkscape:randomized="0"
       d="m 239.70038,94.164406 -7.0455,-7.02705 -0.65177,9.929435 -1.56953,-9.826243 -6.36367,7.64998 4.50595,-8.872144 -9.64486,2.448494 8.8603,-4.529189 -9.24205,-3.688234 9.83033,1.543763 -5.30909,-8.416182 7.0455,7.027051 0.65177,-9.929435 1.56953,9.826243 6.36367,-7.64998 -4.50594,8.872144 9.64486,-2.448494 -8.8603,4.529189 9.24204,3.688234 -9.83032,-1.543764 z"
       inkscape:transform-center-x="-5.3738397e-006"
       inkscape:transform-center-y="4.5681761e-006" />
    <path
       sodipodi:type="star"
       style="opacity:1;fill:#999999;fill-opacity:1;fill-rule:evenodd;stroke-width:0.48503855"
       id="path920"
       sodipodi:sides="10"
       sodipodi:cx="227.55486"
       sodipodi:cy="176.66804"
       sodipodi:r1="19.180655"
       sodipodi:r2="5.1848388"
       sodipodi:arg1="1.2204821"
       sodipodi:arg2="1.5346414"
       inkscape:flatsided="false"
       inkscape:rounded="0"
       inkscape:randomized="0"
       d="m 234.13752,194.68376 -6.39525,-12.83426 -5.4513,13.26276 2.36993,-14.14217 -12.20585,7.5256 10.22987,-10.04824 -14.29818,-1.08608 14.18235,-2.11624 -10.9291,-9.28291 12.71766,6.6241 -3.38546,-13.93399 6.39525,12.83426 5.4513,-13.26276 -2.36993,14.14217 12.20585,-7.5256 -10.22987,10.04825 14.29818,1.08607 -14.18235,2.11624 10.9291,9.28291 -12.71766,-6.6241 z" />
    <path
       sodipodi:type="star"
       style="opacity:1;fill:#ff00ff;fill-opacity:1;fill-rule:evenodd;stroke-width:0.48503855"
       id="path922"
       sodipodi:sides="10"
       sodipodi:cx="178.54472"
       sodipodi:cy="205.96925"
       sodipodi:r1="18.188122"
       sodipodi:r2="4.9165401"
       sodipodi:arg1="0.30970294"
       sodipodi:arg2="0.62386221"
       inkscape:flatsided="false"
       inkscape:rounded="0"
       inkscape:randomized="0"
       d="m 195.86753,211.51255 -13.3324,-2.67118 6.76577,11.7946 -9.21606,-9.99763 -1.45906,13.51885 -1.5795,-13.5053 -9.12659,10.07936 6.66039,-11.85443 -13.30807,2.7899 12.35622,-5.67556 -12.40631,-5.5652 13.3324,2.67118 -6.76577,-11.7946 9.21606,9.99762 1.45906,-13.51885 1.5795,13.50531 9.12658,-10.07936 -6.66038,11.85443 13.30807,-2.7899 -12.35623,5.67555 z"
       inkscape:transform-center-x="5.8811974e-006"
       inkscape:transform-center-y="7.8151418e-006" />
    <path
       sodipodi:type="star"
       style="opacity:1;fill:#808000;fill-opacity:1;fill-rule:evenodd;stroke-width:0.48503855"
       id="path926"
       sodipodi:sides="10"
       sodipodi:cx="54.721699"
       sodipodi:cy="181.29702"
       sodipodi:r1="27.594961"
       sodipodi:r2="7.4593592"
       sodipodi:arg1="0.67866249"
       sodipodi:arg2="0.99282176"
       inkscape:flatsided="false"
       inkscape:rounded="0"
       inkscape:randomized="0"
       d="m 76.201976,198.61983 -17.405016,-11.07506 3.120559,20.39249 -7.571195,-19.19032 -9.461821,18.33209 5.154565,-19.97554 -18.430106,9.26945 15.911456,-13.13077 -20.358718,-3.3338 20.590712,-1.27049 -14.510991,-14.66366 17.405016,11.07507 -3.120559,-20.3925 7.571196,19.19033 9.46182,-18.33209 -5.154564,19.97554 18.430106,-9.26946 -15.911456,13.13077 20.358717,3.3338 -20.590712,1.2705 z"
       inkscape:transform-center-y="2.1549586e-005"
       inkscape:transform-center-x="6.4891612e-006" />
    <path
       sodipodi:type="star"
       style="opacity:1;fill:#ff2a2a;fill-opacity:1;fill-rule:evenodd;stroke-width:0.48503855"
       id="path928"
       sodipodi:sides="10"
       sodipodi:cx="104.00092"
       sodipodi:cy="212.06814"
       sodipodi:r1="18.375233"
       sodipodi:r2="4.9671187"
       sodipodi:arg1="0.77206576"
       sodipodi:arg2="1.086225"
       inkscape:flatsided="false"
       inkscape:rounded="0"
       inkscape:randomized="0"
       d="m 117.16625,224.88702 -10.8515,-8.4236 0.8024,13.71379 -3.82778,-13.19318 -7.411609,11.56633 4.658019,-12.92342 -12.794636,5.00092 11.364609,-7.71735 -13.290543,-3.47467 13.730307,0.43649 -8.709917,-10.62305 10.85149,8.42359 -0.80239,-13.71379 3.82778,13.19318 7.41161,-11.56633 -4.65802,12.92342 12.79463,-5.00092 -11.36461,7.71735 13.29055,3.47467 -13.73031,-0.43648 z"
       inkscape:transform-center-y="4.4616339e-006" />
  </g>
</svg>
