<?xml version="1.0" encoding="UTF-8" standalone="no"?>
<!-- Created with Inkscape (http://www.inkscape.org/) -->

<svg
   xmlns:dc="http://purl.org/dc/elements/1.1/"
   xmlns:cc="http://creativecommons.org/ns#"
   xmlns:rdf="http://www.w3.org/1999/02/22-rdf-syntax-ns#"
   xmlns:svg="http://www.w3.org/2000/svg"
   xmlns="http://www.w3.org/2000/svg"
   xmlns:xlink="http://www.w3.org/1999/xlink"
   xmlns:sodipodi="http://sodipodi.sourceforge.net/DTD/sodipodi-0.dtd"
   xmlns:inkscape="http://www.inkscape.org/namespaces/inkscape"
   width="210mm"
   height="297mm"
   viewBox="0 0 210 297"
   version="1.1"
   id="svg8"
   inkscape:version="0.92.2 (5c3e80d, 2017-08-06)"
   sodipodi:docname="signature_item_icon.svg">
  <defs
     id="defs2">
    <linearGradient
       inkscape:collect="always"
       id="linearGradient2361">
      <stop
         style="stop-color:#ff2a2a;stop-opacity:1;"
         offset="0"
         id="stop2357" />
      <stop
         style="stop-color:#ff2a2a;stop-opacity:0;"
         offset="1"
         id="stop2359" />
    </linearGradient>
    <linearGradient
       inkscape:collect="always"
       xlink:href="#linearGradient2361"
       id="linearGradient2365"
       x1="227.51225"
       y1="936.27405"
       x2="607.16235"
       y2="936.27405"
       gradientUnits="userSpaceOnUse"
       gradientTransform="matrix(0.26458333,0,0,0.26458333,23.812508,-10.054167)" />
  </defs>
  <sodipodi:namedview
     id="base"
     pagecolor="#ffffff"
     bordercolor="#666666"
     borderopacity="1.0"
     inkscape:pageopacity="0.0"
     inkscape:pageshadow="2"
     inkscape:zoom="0.98994949"
     inkscape:cx="686.65042"
     inkscape:cy="390.42316"
     inkscape:document-units="mm"
     inkscape:current-layer="layer1"
     showgrid="false"
     inkscape:window-width="1920"
     inkscape:window-height="1001"
     inkscape:window-x="-9"
     inkscape:window-y="-9"
     inkscape:window-maximized="1" />
  <metadata
     id="metadata5">
    <rdf:RDF>
      <cc:Work
         rdf:about="">
        <dc:format>image/svg+xml</dc:format>
        <dc:type
           rdf:resource="http://purl.org/dc/dcmitype/StillImage" />
        <dc:title></dc:title>
      </cc:Work>
    </rdf:RDF>
  </metadata>
  <g
     inkscape:label="Layer 1"
     inkscape:groupmode="layer"
     id="layer1">
    <path
       style="opacity:1;fill:#000080;fill-opacity:1;stroke-width:0.30687624"
       id="path821"
       sodipodi:type="arc"
       sodipodi:cx="72.901184"
       sodipodi:cy="78.129166"
       sodipodi:rx="19.938307"
       sodipodi:ry="20.579752"
       sodipodi:start="5.8450878"
       sodipodi:end="5.1142161"
       d="M 90.956525,69.398877 A 19.938307,20.579752 0 0 1 84.49927,94.868826 19.938307,20.579752 0 0 1 59.060656,92.942745 19.938307,20.579752 0 0 1 56.273369,66.772846 19.938307,20.579752 0 0 1 80.699067,59.188633 l -7.797883,18.940533 z" />
    <path
       style="fill:none;stroke:#000000;stroke-width:0.26458332px;stroke-linecap:butt;stroke-linejoin:miter;stroke-opacity:1"
       d="M 81.008191,97.451685 C 51.074006,130.32582 65.239289,145.56019 65.239289,145.56019 l -0.534538,-0.53454 0.267269,0.26727 C 39.699986,150.6539 47.025963,162.87761 47.332233,173.62349 2.9498782,223.8152 32.07793,238.82679 32.097868,238.83726"
       id="path2265"
       inkscape:connector-curvature="0"
       sodipodi:nodetypes="cccccc" />
    <path
       style="fill:none;stroke:#000000;stroke-width:0.26458332px;stroke-linecap:butt;stroke-linejoin:miter;stroke-opacity:1"
       d="M 80.699062,59.188636 C 141.81426,71.004867 73.475578,151.73217 105.86429,196.87594 v 0"
       id="path2267"
       inkscape:connector-curvature="0"
       sodipodi:nodetypes="ccc" />
    <path
       style="fill:none;stroke:#000000;stroke-width:0.26458332px;stroke-linecap:butt;stroke-linejoin:miter;stroke-opacity:1"
       d="m 32.097868,238.83726 c 57.707839,12.24644 50.886143,-34.09263 73.766422,-41.96132 v 0"
       id="path2269"
       inkscape:connector-curvature="0"
       sodipodi:nodetypes="ccc" />
    <path
       style="opacity:1;fill:#000080;fill-opacity:1;stroke-width:0.26726952"
       d="m 45.253632,240.45602 c -3.568253,-0.23127 -6.174087,-0.57171 -10.333704,-1.35004 -2.801294,-0.52416 -3.078799,-0.63485 -4.537109,-1.80969 -3.013032,-2.42735 -5.562612,-6.38639 -6.649568,-10.32559 -0.69299,-2.51145 -0.83308,-8.61085 -0.271402,-11.81667 1.853113,-10.57681 9.368759,-24.06795 21.077607,-37.83586 l 3.13148,-3.68217 -0.409499,-3.40047 c -1.000343,-8.30684 -1.048581,-9.05661 -0.719045,-11.17627 0.832324,-5.35372 4.452611,-9.00234 11.394167,-11.48334 3.097892,-1.10723 6.763041,-2.06033 7.106565,-1.84802 0.447776,0.27674 0.281797,-0.20468 -0.782415,-2.26936 -1.512393,-2.9342 -2.008108,-5.14166 -2.012784,-8.9631 -0.01209,-9.87429 5.530715,-21.27505 16.591661,-34.12669 1.225489,-1.423884 2.231602,-2.746855 2.235803,-2.939955 0.0042,-0.193087 0.919906,-0.892284 2.034898,-1.553781 2.962634,-1.757628 5.888101,-4.93973 7.443393,-8.096371 1.84449,-3.743592 2.360541,-6.184765 2.209985,-10.454311 -0.100436,-2.848333 -0.257233,-3.909058 -0.843158,-5.703988 -0.395872,-1.212737 -0.847696,-2.204974 -1.004049,-2.204974 -0.156348,0 -4.139401,1.864918 -8.851223,4.144264 -4.711824,2.279343 -8.612833,4.098379 -8.668911,4.042304 -0.08338,-0.08338 7.054289,-17.720146 7.300359,-18.038776 0.154618,-0.20021 4.344969,0.864695 6.898804,1.753214 9.438172,3.283677 15.174383,8.870095 17.772713,17.308618 1.09002,3.540027 1.45098,6.615689 1.4442,12.30557 -0.01,8.218602 -0.70314,13.019306 -4.80579,33.274996 -3.908781,19.29853 -4.920431,25.84953 -5.452651,35.30892 -0.3047,5.41557 -0.03717,11.64659 0.698733,16.2741 1.120875,7.04829 3.608388,13.8439 6.981738,19.07328 0.65083,1.00891 1.14685,1.85081 1.10228,1.87088 -6.640407,2.99043 -9.584399,6.18178 -16.922634,18.34446 -3.919209,6.49585 -5.688621,9.09591 -8.403386,12.34836 -5.494962,6.58328 -12.076006,10.51575 -20.498437,12.24873 -2.341647,0.48182 -8.85081,1.1122 -10.516848,1.01852 -0.367495,-0.0207 -2.051293,-0.12722 -3.741773,-0.23679 z"
       id="path2271"
       inkscape:connector-curvature="0" />
    <path
       style="opacity:1;fill:#ffffff;fill-opacity:1;stroke-width:0.26458332"
       id="path2275"
       sodipodi:type="arc"
       sodipodi:cx="72.901184"
       sodipodi:cy="78.129166"
       sodipodi:rx="3.7417734"
       sodipodi:ry="3.8754082"
       sodipodi:start="5.0426997"
       sodipodi:end="4.7522532"
       d="m 74.11478,74.463256 a 3.7417734,3.8754082 0 0 1 2.40462,4.653582 3.7417734,3.8754082 0 0 1 -4.306824,2.821544 3.7417734,3.8754082 0 0 1 -3.029522,-4.244188 3.7417734,3.8754082 0 0 1 3.867253,-3.437358"
       sodipodi:open="true" />
    <path
       style="fill:none;stroke:#000000;stroke-width:0.27675802px;stroke-linecap:butt;stroke-linejoin:miter;stroke-opacity:1"
       d="M 54.542645,84.624489 C 49.835316,101.019 36.64458,108.93905 36.64458,108.93905"
       id="path2277"
       inkscape:connector-curvature="0"
       sodipodi:nodetypes="cc" />
    <path
       style="fill:#ff0000;stroke:#000000;stroke-width:0.28249711px;stroke-linecap:butt;stroke-linejoin:miter;stroke-opacity:1"
       d="M 63.628711,95.318617 C 56.463369,105.51349 45.808039,104.91633 36.645555,108.93548"
       id="path2279"
       inkscape:connector-curvature="0"
       sodipodi:nodetypes="cc" />
    <path
       style="opacity:1;fill:#ff0000;fill-opacity:1;stroke-width:0.26726952"
       d="m 43.339828,103.69263 c 5.016457,-5.048171 8.707479,-10.842798 10.846069,-17.027547 0.148164,-0.428484 0.325842,-0.236735 0.977199,1.05459 1.363607,2.703364 3.328479,5.060029 5.940462,7.124977 l 1.283737,1.014884 -10.970985,5.486746 c -6.034041,3.01772 -11.021874,5.48676 -11.084074,5.48676 -0.0622,0 1.291217,-1.41318 3.007592,-3.14041 z"
       id="path2281"
       inkscape:connector-curvature="0" />
    <path
       style="fill:none;stroke:#000000;stroke-width:0.26458332px;stroke-linecap:butt;stroke-linejoin:miter;stroke-opacity:1"
       d="M 81.008191,97.451685 C 59.108356,138.51403 70.22548,144.75668 71.11922,145.29292"
       id="path2283"
       inkscape:connector-curvature="0"
       sodipodi:nodetypes="cc" />
    <path
       style="fill:none;stroke:#000000;stroke-width:0.26458332px;stroke-linecap:butt;stroke-linejoin:miter;stroke-opacity:1"
       d="M 81.008191,97.451685 C 65.185907,144.49111 76.00731,144.22384 76.731879,144.22384"
       id="path2285"
       inkscape:connector-curvature="0"
       sodipodi:nodetypes="cc" />
    <path
       style="fill:none;stroke:#000000;stroke-width:0.26458332px;stroke-linecap:butt;stroke-linejoin:miter;stroke-opacity:1"
       d="m 71.11922,145.29292 c -9.777789,6.28895 -25.843293,7.92033 -17.639789,27.52876 -10.090079,19.77251 -33.589273,39.18261 -19.777945,59.6011"
       id="path2287"
       inkscape:connector-curvature="0"
       sodipodi:nodetypes="ccc" />
    <path
       style="fill:none;stroke:#000000;stroke-width:0.26458332px;stroke-linecap:butt;stroke-linejoin:miter;stroke-opacity:1"
       d="m 76.731879,144.22384 c -11.555916,8.18474 -28.788382,14.86687 -17.372518,29.13238 -13.85375,18.90665 -30.875652,41.11587 -25.657875,59.06656"
       id="path2289"
       inkscape:connector-curvature="0"
       sodipodi:nodetypes="ccc" />
    <path
       style="opacity:1;fill:#ffffff;fill-opacity:1;stroke-width:0.26726952"
       d="m 31.938969,228.92931 c -1.448389,-3.06116 -1.965761,-5.17681 -2.112954,-8.64035 -0.222745,-5.24133 0.830546,-9.44645 3.949765,-15.7689 1.856952,-3.76393 4.487222,-7.95225 10.381486,-16.531 4.43252,-6.45127 7.370299,-11.03627 8.706127,-13.58766 l 0.770197,-1.47106 -0.83253,-2.51311 c -2.253123,-6.80135 -1.681785,-11.35543 1.900986,-15.15255 1.92297,-2.03802 3.504044,-3.03891 9.934789,-6.28914 3.090352,-1.56193 5.856592,-3.01541 6.1472,-3.22995 0.514045,-0.37949 0.501549,-0.41773 -0.460696,-1.41016 -5.184703,-5.34733 -2.491462,-19.88967 7.390924,-39.90781 0.979681,-1.98448 1.729259,-3.30746 1.665735,-2.93997 -0.06353,0.3675 -0.74009,2.71279 -1.503479,5.21176 -6.338366,20.74886 -7.31906,34.10649 -2.730926,37.19687 l 0.89322,0.60164 -2.764107,1.79241 c -10.336866,6.70304 -12.398799,8.23869 -14.76696,10.9979 -0.72164,0.84081 -1.683811,2.3105 -2.138156,3.26599 -0.727657,1.53026 -0.824555,2.00793 -0.813263,4.00904 0.01511,2.67659 0.608727,4.43689 2.394109,7.09936 l 1.152739,1.71903 -3.661103,5.01206 c -6.942972,9.50494 -10.979294,15.50925 -14.311077,21.28872 -6.33938,10.99658 -9.211944,20.61724 -8.425537,28.2184 0.141996,1.37248 0.207684,2.54592 0.145973,2.60763 -0.06171,0.0617 -0.472319,-0.64891 -0.912462,-1.57915 z"
       id="path2291"
       inkscape:connector-curvature="0" />
    <path
       style="fill:none;stroke:#000000;stroke-width:0.26458332px;stroke-linecap:butt;stroke-linejoin:miter;stroke-opacity:1"
       d="M 103.19158,120.97139 C 114.32842,101.6469 129.8297,91.387071 150.23112,91.304521 h -0.8018"
       id="path2293"
       inkscape:connector-curvature="0"
       sodipodi:nodetypes="ccc" />
    <path
       style="opacity:1;fill:#00ff00;fill-opacity:1;stroke-width:0.34776762"
       id="path2299"
       sodipodi:type="arc"
       sodipodi:cx="152.8786"
       sodipodi:cy="107.86464"
       sodipodi:rx="16.405006"
       sodipodi:ry="16.570713"
       sodipodi:start="5.0426925"
       sodipodi:end="4.7522523"
       sodipodi:open="true"
       d="M 158.19924,92.189674 A 16.405006,16.570713 0 0 1 168.74192,112.0877 16.405006,16.570713 0 0 1 149.85961,124.15234 16.405006,16.570713 0 0 1 136.57725,106.0048 16.405006,16.570713 0 0 1 153.53239,91.307091" />
    <path
       style="fill:none;stroke:#000000;stroke-width:0.26458332px;stroke-linecap:butt;stroke-linejoin:miter;stroke-opacity:1"
       d="m 105.86429,196.87594 c 20.34201,27.05311 59.5617,21.65457 59.6012,21.64883"
       id="path2305"
       inkscape:connector-curvature="0"
       sodipodi:nodetypes="cc" />
    <path
       style="fill:none;stroke:#000000;stroke-width:0.26458332px;stroke-linecap:butt;stroke-linejoin:miter;stroke-opacity:1"
       d="m 138.47127,116.69508 c -6.17464,37.54155 87.0989,71.33608 26.99422,101.82969"
       id="path2307"
       inkscape:connector-curvature="0"
       sodipodi:nodetypes="cc" />
    <path
       style="opacity:1;fill:#00ff00;fill-opacity:1;stroke-width:0.26726952"
       d="m 152.16157,218.54548 c -13.15086,-0.75312 -24.86195,-4.3822 -34.0769,-10.55989 -17.20657,-11.53522 -23.655157,-29.68737 -20.296647,-57.13281 0.864952,-7.06833 4.841447,-28.61292 5.460927,-29.58718 0.1402,-0.2205 0.86084,-1.38194 1.60144,-2.58098 3.55913,-5.76235 9.29111,-12.44273 13.76882,-16.04697 7.63926,-6.149039 16.09997,-9.668028 25.84782,-10.750672 1.42744,-0.15854 2.99097,-0.28539 3.47451,-0.2819 0.81712,0.006 0.77246,0.0502 -0.63292,0.628287 -2.59626,1.067884 -4.03191,2.047308 -6.12,4.175176 -4.83815,4.930319 -6.13836,11.986019 -3.36345,18.251979 0.53722,1.21307 0.62953,1.69237 0.42802,2.22237 -0.39774,1.04615 -0.30356,5.68073 0.16586,8.16177 0.23253,1.22898 0.84567,3.37708 1.36253,4.77356 2.92997,7.9163 8.39105,15.26691 22.14011,29.80056 13.5507,14.32397 17.59773,19.32641 20.80579,25.71757 1.77012,3.52647 2.60292,6.56795 2.65481,9.69564 0.0906,5.462 -1.9384,9.67901 -6.95324,14.45127 -2.53287,2.41036 -7.00033,5.54466 -10.81471,7.58744 l -2.32066,1.24282 -3.82654,0.24701 c -4.15438,0.26817 -4.36597,0.26783 -9.30557,-0.0151 z"
       id="path2341"
       inkscape:connector-curvature="0" />
    <path
       style="fill:none;stroke:#000000;stroke-width:0.26458332px;stroke-linecap:butt;stroke-linejoin:miter;stroke-opacity:1"
       d="m 185.24343,197.41048 c -1.17094,49.903 -82.72772,14.55931 -90.871762,84.18989 l 0.267269,-1.33633"
       id="path2351"
       inkscape:connector-curvature="0"
       sodipodi:nodetypes="ccc" />
    <path
       style="fill:#ff2a2a;stroke:#000000;stroke-width:0.28243697px;stroke-linecap:butt;stroke-linejoin:miter;stroke-opacity:1"
       d="m 83.71544,222.8071 c -15.73687,27.25137 -1.588656,42.00737 10.915331,57.45085"
       id="path2353"
       inkscape:connector-curvature="0"
       sodipodi:nodetypes="cc" />
    <path
       style="opacity:1;fill:url(#linearGradient2365);fill-opacity:1;stroke-width:0.26726952"
       d="m 94.335742,277.88554 c -0.252409,-0.94422 -10.326364,-54.05272 -10.327277,-54.44398 -5.29e-4,-0.17704 0.759661,-1.50002 1.689055,-2.93996 0.929397,-1.43994 2.847176,-4.54957 4.261736,-6.9103 5.60618,-9.35604 8.983573,-13.10501 14.087434,-15.63729 l 1.68799,-0.83749 0.69594,0.89148 c 7.59303,9.72647 19.44063,16.56968 33.70382,19.46747 6.46844,1.31417 10.70377,1.67445 18.43157,1.5679 l 6.72767,-0.72985 2.90406,-0.94452 c 8.71555,-2.83468 12.86462,-8.76753 15.52186,-13.58708 0.90515,-1.64172 0.96026,-1.33972 0.26146,1.43286 -1.96428,7.79342 -6.82003,13.56029 -14.89636,17.69143 -5.02743,2.5716 -9.24182,4.04481 -21.19945,7.41066 -12.71499,3.57901 -16.79136,4.91118 -22.45064,7.33691 -17.3756,7.44764 -27.359911,20.31916 -30.689073,39.56358 -0.1953,1.12895 -0.2589,1.23267 -0.409795,0.66818 z"
       id="path2355"
       inkscape:connector-curvature="0"
       sodipodi:nodetypes="ccsssccsscsssssscc" />
    <path
       style="opacity:1;fill:#ffffff;fill-opacity:1;stroke-width:0.26458332"
       id="path2275-8"
       sodipodi:type="arc"
       sodipodi:cx="155.30881"
       sodipodi:cy="108.14252"
       sodipodi:rx="3.7417734"
       sodipodi:ry="3.8754082"
       sodipodi:start="5.0426997"
       sodipodi:end="4.7522532"
       d="m 156.5224,104.47661 a 3.7417734,3.8754082 0 0 1 2.40462,4.65358 3.7417734,3.8754082 0 0 1 -4.30682,2.82154 3.7417734,3.8754082 0 0 1 -3.02952,-4.24418 3.7417734,3.8754082 0 0 1 3.86725,-3.43736"
       sodipodi:open="true" />
    <path
       style="fill:none;stroke:#000000;stroke-width:0.26458332px;stroke-linecap:butt;stroke-linejoin:miter;stroke-opacity:1"
       d="m 167.60364,115.09146 c -2.94658,14.06745 9.34947,20.8444 9.35444,20.84703"
       id="path2382"
       inkscape:connector-curvature="0"
       sodipodi:nodetypes="cc" />
    <path
       style="fill:none;stroke:#000000;stroke-width:0.26458332px;stroke-linecap:butt;stroke-linejoin:miter;stroke-opacity:1"
       d="m 156.11105,123.91136 c 6.94901,8.08207 13.89802,9.33572 20.84703,12.02713"
       id="path2384"
       inkscape:connector-curvature="0"
       sodipodi:nodetypes="cc" />
    <path
       style="opacity:1;fill:#ff2a2a;fill-opacity:1;stroke-width:0.26726952"
       d="m 171.2656,133.59878 c -5.74338,-2.14496 -9.26385,-4.23229 -12.68957,-7.5238 l -2.00452,-1.92599 1.6336,-0.5929 c 2.59201,-0.94075 3.81736,-1.79817 6.38577,-4.46832 l 2.40414,-2.49939 0.0302,3.0736 c 0.0249,2.5348 0.15253,3.44842 0.72815,5.21176 0.94026,2.88032 2.32546,5.14654 4.68166,7.65928 1.081,1.15283 1.86277,2.08931 1.73725,2.08106 -0.12552,-0.008 -1.43351,-0.46514 -2.90665,-1.0153 z"
       id="path2386"
       inkscape:connector-curvature="0" />
    <path
       style="fill:none;stroke:#000000;stroke-width:0.26458332px;stroke-linecap:butt;stroke-linejoin:miter;stroke-opacity:1"
       d="m 133.12588,215.05026 c 8.56658,-16.74058 22.30287,-27.10519 52.11755,-17.63978"
       id="path2388"
       inkscape:connector-curvature="0"
       sodipodi:nodetypes="cc" />
    <path
       style="fill:none;stroke:#000000;stroke-width:0.26799405px;stroke-linecap:butt;stroke-linejoin:miter;stroke-opacity:1"
       d="m 141.14599,217.72177 c 11.31339,-30.36552 41.88113,-13.40474 41.95879,-13.36173"
       id="path2392"
       inkscape:connector-curvature="0"
       sodipodi:nodetypes="cc" />
    <path
       sodipodi:type="star"
       style="opacity:1;fill:#ff2a2a;fill-opacity:1;stroke-width:0.31214145"
       id="path2394"
       sodipodi:sides="7"
       sodipodi:cx="161.22314"
       sodipodi:cy="208.83654"
       sodipodi:r1="9.2090101"
       sodipodi:r2="3.4711647"
       sodipodi:arg1="0.66404616"
       sodipodi:arg2="1.7005686"
       inkscape:flatsided="false"
       inkscape:rounded="0"
       inkscape:randomized="0"
       d="m 168.47529,214.51212 -7.70134,-2.23361 0.53348,5.76665 -3.0554,-7.41379 -4.17593,4.01254 3.89132,-7.01122 -5.74078,-0.7631 7.9078,-1.32907 -2.9827,-4.9641 5.96954,5.3539 2.0214,-5.42704 -0.4639,8.00528 5.50335,-1.80331 -6.54801,4.62852 z"
       inkscape:transform-center-x="0.64457076"
       inkscape:transform-center-y="-1.7213719" />
    <path
       style="opacity:1;fill:#ff2a2a;fill-opacity:1;stroke-width:0.26726952"
       d="m 151.68536,199.64239 0.0753,-3.14042 2.12222,-0.74249 c 1.93697,-0.67769 5.90942,-1.5293 7.13359,-1.5293 0.45412,0 0.49953,0.23981 0.49953,2.63792 v 2.63793 l -1.67044,0.31612 c -2.3339,0.44169 -4.05028,1.01822 -6.14052,2.0626 -0.98857,0.49393 -1.86436,0.89806 -1.94619,0.89806 -0.0818,0 -0.1149,-1.41319 -0.0735,-3.14042 z"
       id="path2418"
       inkscape:connector-curvature="0" />
    <path
       style="opacity:1;fill:#ff2a2a;fill-opacity:1;stroke-width:0.26726952"
       d="m 143.4207,206.80322 0.0546,-5.20038 1.50949,-1.21409 c 1.53535,-1.23489 4.9561,-3.27885 6.03225,-3.60439 0.58602,-0.17727 0.5936,-0.14351 0.66818,2.97638 l 0.0754,3.1557 -1.20271,0.90032 c -2.3928,1.79118 -4.9206,4.61739 -6.86998,7.681 -0.2563,0.4028 -0.31074,-0.55352 -0.26727,-4.69454 z"
       id="path2420"
       inkscape:connector-curvature="0" />
    <path
       style="opacity:1;fill:#ff2a2a;fill-opacity:1;stroke-width:0.26726952"
       d="m 139.46626,216.76317 c -0.29399,-0.0676 -0.98555,-0.2387 -1.5368,-0.38021 l -1.00226,-0.25728 v -3.49708 -3.49708 l 1.17806,-1.65089 c 0.64793,-0.908 2.06111,-2.5969 3.14041,-3.75313 l 1.96237,-2.10223 0.13363,5.17231 0.13364,5.1723 -1.20272,2.48713 c -1.2428,2.57003 -1.33376,2.64477 -2.80633,2.30616 z"
       id="path2422"
       inkscape:connector-curvature="0" />
    <path
       style="opacity:1;fill:#ff2a2a;fill-opacity:1;stroke-width:0.26726952"
       d="m 138.0631,216.34962 -1.1359,-0.27929 v -3.38826 -3.38826 l 1.08225,-1.45143 c 0.59523,-0.79829 1.94828,-2.43108 3.00678,-3.62842 l 1.92454,-2.17698 0.17215,2.31062 c 0.0947,1.27083 0.18488,3.53656 0.20045,5.03494 0.0281,2.70199 0.019,2.74254 -1.1076,4.94449 -1.08267,2.11613 -1.17972,2.22207 -2.07133,2.26101 -0.5145,0.0225 -1.4466,-0.0848 -2.07134,-0.23842 z"
       id="path2424"
       inkscape:connector-curvature="0" />
    <path
       style="opacity:1;fill:#ff2a2a;fill-opacity:1;stroke-width:0.26726952"
       d="m 135.51702,215.74738 c -2.30079,-0.63281 -2.23456,-0.4473 -0.9791,-2.74224 0.62301,-1.13884 1.41546,-2.48942 1.76101,-3.00128 l 0.62827,-0.93067 v 3.53654 c 0,1.9451 -0.0301,3.5258 -0.0668,3.51265 -0.0367,-0.0132 -0.64126,-0.18189 -1.34336,-0.375 z"
       id="path2426"
       inkscape:connector-curvature="0" />
    <path
       style="opacity:1;fill:#ff2a2a;fill-opacity:1;stroke-width:0.26726952"
       d="m 173.67676,200.59983 c -1.61698,-0.42348 -3.72173,-0.85724 -4.67721,-0.96393 l -1.73726,-0.19396 -0.077,-2.64604 -0.077,-2.64605 2.48241,0.18777 c 1.36532,0.10327 3.62498,0.39196 5.02146,0.64152 l 2.53907,0.45375 0.0756,3.00679 c 0.0584,2.32265 -0.002,2.99805 -0.26727,2.96844 -0.18857,-0.0211 -1.66583,-0.38482 -3.28281,-0.80829 z"
       id="path2428"
       inkscape:connector-curvature="0" />
    <path
       style="opacity:1;fill:#ff2a2a;fill-opacity:1;stroke-width:0.26726952"
       d="m 161.516,196.95909 v -2.6833 l 1.97208,-0.1848 c 1.08465,-0.10164 2.34749,-0.10235 2.80633,-0.002 l 0.83425,0.18323 v 2.51783 2.51782 h -1.97112 c -1.08411,0 -2.34696,0.0752 -2.80633,0.16705 l -0.83521,0.16704 z"
       id="path2430"
       inkscape:connector-curvature="0" />
    <path
       style="opacity:1;fill:#ff2a2a;fill-opacity:1;stroke-width:0.26726952"
       d="m 182.09575,203.58606 c -0.51449,-0.27582 -1.80741,-0.83773 -2.87315,-1.24868 l -1.9377,-0.74718 v -3.01184 c 0,-1.65651 0.088,-3.01183 0.19552,-3.01183 0.10754,0 1.86474,0.44896 3.90489,0.9977 l 3.70937,0.9977 -0.17013,1.47454 c -0.0936,0.811 -0.55785,2.27926 -1.03174,3.26281 l -0.86161,1.78827 z"
       id="path2432"
       inkscape:connector-curvature="0" />
    <path
       style="fill:none;stroke:#000000;stroke-width:0.26458332px;stroke-linecap:butt;stroke-linejoin:miter;stroke-opacity:1"
       d="m 67.255223,245.72183 -46.237628,7.21628 0.53454,3.20723 z"
       id="path2434"
       inkscape:connector-curvature="0" />
    <path
       style="fill:#0000ff;stroke:#000000;stroke-width:0.26458332px;stroke-linecap:butt;stroke-linejoin:miter;stroke-opacity:1"
       d="m 67.255223,245.72183 -43.832202,21.64884 1.870887,3.4745 z"
       id="path2436"
       inkscape:connector-curvature="0" />
    <path
       style="fill:#ff0000;stroke:#000000;stroke-width:0.26458332px;stroke-linecap:butt;stroke-linejoin:miter;stroke-opacity:1"
       d="m 67.255223,245.72183 -32.606882,35.27959 2.939966,1.60361 29.666916,-36.8832 v 0 l -18.708867,40.09043 4.276312,1.06907 z"
       id="path2438"
       inkscape:connector-curvature="0" />
    <path
       style="fill:#88aa00;stroke:#000000;stroke-width:0.26458332px;stroke-linecap:butt;stroke-linejoin:miter;stroke-opacity:1"
       d="m 67.255223,245.72183 -0.267269,40.35771 3.741772,-0.26728 z"
       id="path2440"
       inkscape:connector-curvature="0" />
    <path
       style="opacity:1;fill:#000000;fill-opacity:1;stroke-width:1.01015258"
       d=""
       id="path2442"
       inkscape:connector-curvature="0"
       transform="scale(0.26458333)" />
    <path
       style="opacity:1;fill:#000000;fill-opacity:1;stroke-width:1.01015258"
       d="m 81.494533,962.54539 c -0.385343,-2.56965 -0.406283,-4.96642 -0.04653,-5.32617 0.859751,-0.85975 126.801467,-20.55666 129.285787,-20.21991 1.05171,0.14256 -26.90426,6.80496 -62.12438,14.80533 -35.22012,8.00037 -64.571551,14.74114 -65.225412,14.97949 -0.747582,0.2725 -1.448886,-1.30077 -1.889461,-4.23874 z"
       id="path2444"
       inkscape:connector-curvature="0"
       transform="scale(0.26458333)" />
    <path
       style="fill:none;stroke:#000000;stroke-width:0.26458332px;stroke-linecap:butt;stroke-linejoin:miter;stroke-opacity:1"
       d="m 138.47127,116.69508 c -8.80924,42.51701 31.22098,40.40516 32.31396,73.39711"
       id="path2446"
       inkscape:connector-curvature="0"
       sodipodi:nodetypes="cc" />
    <path
       style="fill:none;stroke:#000000;stroke-width:0.26458332px;stroke-linecap:butt;stroke-linejoin:miter;stroke-opacity:1"
       d="m 138.47127,116.69508 c -17.72259,44.8185 19.03697,50.72117 32.31396,73.39711 v 0"
       id="path2448"
       inkscape:connector-curvature="0"
       sodipodi:nodetypes="ccc" />
    <path
       style="opacity:1;fill:#ff0000;fill-opacity:1;stroke-width:1.01015258"
       d="m 556.73445,626.4652 c -6.99138,-6.85053 -15.29517,-15.69756 -18.45288,-19.66006 l -5.74127,-7.20456 0.27013,-25.6254 0.27013,-25.6254 2.73651,4.65489 c 5.01688,8.5339 14.7092,20.83344 24.72646,31.37782 l 9.91268,10.4343 -0.50508,22.05196 -0.50508,22.05196 z"
       id="path2450"
       inkscape:connector-curvature="0"
       transform="scale(0.26458333)" />
    <path
       style="opacity:1;fill:#ff0000;fill-opacity:1;stroke-width:1.01015258"
       d="m 609.83524,674.26644 c -3.3428,-3.13968 -11.86596,-10.86212 -18.94036,-17.16098 l -12.86253,-11.45247 0.0341,-21.88257 0.034,-21.88256 18.62399,18.89834 c 10.24319,10.39408 18.88037,19.94002 19.19375,21.2132 0.31337,1.27318 0.44042,10.33852 0.28233,20.14521 l -0.28744,17.83033 z"
       id="path2452"
       inkscape:connector-curvature="0"
       transform="scale(0.26458333)" />
    <path
       style="opacity:1;fill:#ff0000;fill-opacity:1;stroke-width:1.01015258"
       d="m 636.96669,704.16581 c -3.39444,-4.58357 -8.9623,-11.36948 -12.37304,-15.0798 l -6.20133,-6.74604 0.2756,-18.50777 0.27561,-18.50778 4.82881,7.25293 c 10.31462,15.49266 18.02004,36.35864 19.56493,52.98106 0.35481,3.81764 0.45522,6.94116 0.22312,6.94116 -0.23209,0 -3.19926,-3.75019 -6.5937,-8.33376 z"
       id="path2454"
       inkscape:connector-curvature="0"
       transform="scale(0.26458333)" />
    <path
       style="opacity:1;fill:#ff0000;fill-opacity:1;stroke-width:1.01015258"
       d="m 573.7392,642.04872 -3.78807,-3.88055 0.12851,-10.56401 c 0.0707,-5.8102 0.41161,-15.47924 0.75762,-21.48675 l 0.6291,-10.92274 3.30321,3.41554 3.3032,3.41554 -0.27275,21.95176 -0.27275,21.95175 z"
       id="path2456"
       inkscape:connector-curvature="0"
       transform="scale(0.26458333)" />
    <path
       style="opacity:1;fill:#ff0000;fill-opacity:1;stroke-width:1.01015258"
       d="m 527.36781,591.98378 c -5.53121,-8.54924 -10.29114,-17.8918 -13.61549,-26.72379 -2.36154,-6.27401 -2.39004,-6.81224 -2.39004,-45.13676 v -38.78702 l 3.57093,-12.40637 c 1.96401,-6.82351 3.80078,-12.63623 4.08172,-12.91716 0.28093,-0.28093 0.15136,3.33366 -0.28794,8.03243 -1.11597,11.93664 -0.83362,34.44638 0.53894,42.96576 1.65402,10.26638 5.78106,23.99162 9.84836,32.75261 l 3.51724,7.57615 -0.28056,25.95633 -0.28056,25.95633 z"
       id="path2458"
       inkscape:connector-curvature="0"
       transform="scale(0.26458333)" />
    <path
       style="opacity:1;fill:#ff0000;fill-opacity:1;stroke-width:1.01015258"
       d="m 508.90388,548.09724 c -3.37354,-17.87327 -3.01961,-40.62564 0.90746,-58.33631 1.21071,-5.46016 1.35418,-2.43138 1.44743,30.55711 0.0569,20.13992 -0.0743,36.61803 -0.29154,36.61803 -0.21727,0 -1.14578,-3.97747 -2.06335,-8.83883 z"
       id="path2460"
       inkscape:connector-curvature="0"
       transform="scale(0.26458333)" />
    <path
       style="opacity:1;fill:#ff0000;fill-opacity:1;stroke-width:1.01015258"
       d="m 617.17576,681.60725 c -0.41669,-0.41752 -0.75761,-9.41109 -0.75761,-19.9857 0,-13.10243 0.32907,-18.8975 1.0331,-18.19347 0.65096,0.65096 0.9312,8.04354 0.75761,19.9857 -0.15151,10.42393 -0.61641,18.61099 -1.0331,18.19347 z"
       id="path2462"
       inkscape:connector-curvature="0"
       transform="scale(0.26458333)" />
    <path
       style="opacity:1;fill:#ff0000;fill-opacity:1;stroke-width:1.01015258"
       d="m 637.40584,703.94672 c -2.62416,-3.43098 -7.89548,-9.84771 -11.71405,-14.25939 l -6.94285,-8.02124 0.60237,-17.16068 0.60237,-17.16068 5.26122,8.65691 c 2.89367,4.76131 6.23972,10.89798 7.43566,13.63706 5.94462,13.61507 10.70236,31.86791 9.88293,37.91544 -0.33336,2.46026 -0.66562,2.2265 -5.12765,-3.60742 z"
       id="path2464"
       inkscape:connector-curvature="0"
       transform="scale(0.26458333)" />
    <path
       style="opacity:1;fill:#ff0000;fill-opacity:1;stroke-width:1.01015258"
       d="m 616.65251,673.10362 c 0,-1.94455 0.20788,-2.74004 0.46196,-1.76777 0.25408,0.97227 0.25408,2.56326 0,3.53553 -0.25408,0.97228 -0.46196,0.17678 -0.46196,-1.76776 z"
       id="path2466"
       inkscape:connector-curvature="0"
       transform="scale(0.26458333)" />
    <path
       style="opacity:1;fill:#ff0000;fill-opacity:1;stroke-width:1.01015258"
       d="m 638.6415,705.62286 c -1.94454,-2.5681 -7.24173,-9.03263 -11.77153,-14.36562 l -8.23599,-9.69635 0.56091,-16.98095 c 0.64826,-19.62538 0.19824,-19.47471 9.23794,-3.09308 7.98368,14.46793 15.17878,38.00192 14.10066,46.12092 -0.3488,2.62676 -0.43232,2.58416 -3.89199,-1.98492 z"
       id="path2468"
       inkscape:connector-curvature="0"
       transform="scale(0.26458333)" />
    <path
       style="opacity:1;fill:#ff0000;fill-opacity:1;stroke-width:1.01015258"
       d="m 640.35056,708.12328 c -1.00457,-1.54161 -6.34441,-8.19471 -11.86633,-14.78466 l -10.03984,-11.98175 0.6652,-16.86636 c 0.65057,-16.49563 0.705,-16.81393 2.47664,-14.48069 10.12838,13.33897 21.65986,44.28539 20.90099,56.09087 l -0.31018,4.8255 z"
       id="path2470"
       inkscape:connector-curvature="0"
       transform="scale(0.26458333)" />
    <path
       style="opacity:1;fill:#ff0000;fill-opacity:1;stroke-width:1.01015258"
       d="m 633.84551,700.11738 c -4.58235,-5.69044 -9.95621,-12.24646 -11.94193,-14.56895 l -3.6104,-4.2227 0.72132,-16.70883 c 0.39672,-9.18985 1.06818,-16.49445 1.49212,-16.23244 1.57806,0.97529 10.34861,16.89342 13.75074,24.95692 4.67674,11.08452 8.62335,26.65499 8.23193,32.47732 l -0.31225,4.64492 z"
       id="path2472"
       inkscape:connector-curvature="0"
       transform="scale(0.26458333)" />
    <path
       style="opacity:1;fill:#ff0000;fill-opacity:1;stroke-width:1.01015258"
       d="m 617.64115,657.44625 c 0.0379,-7.8216 0.0643,-7.90895 0.82018,-2.71889 0.42954,2.94928 0.4119,6.58583 -0.0392,8.08122 -0.57326,1.90037 -0.80838,0.28604 -0.78098,-5.36233 z"
       id="path2474"
       inkscape:connector-curvature="0"
       transform="scale(0.26458333)" />
    <path
       style="opacity:1;fill:#ff0000;fill-opacity:1;stroke-width:1.01015258"
       d="m 596.72017,661.76868 -18.18274,-16.38548 -0.53966,-18.21214 -0.53966,-18.21213 -0.21796,17.65824 -0.21795,17.65825 -3.26875,-3.26875 -3.26874,-3.26875 0.27054,-14.89457 c 0.14879,-8.19201 0.53958,-17.3122 0.8684,-20.26707 l 0.59786,-5.3725 2.90542,2.78357 c 1.59798,1.53096 2.91238,3.7213 2.92089,4.86742 0.011,1.47807 0.25669,1.7036 0.84525,0.77582 0.58914,-0.92869 6.00438,3.99195 18.67236,16.9669 l 17.84257,18.27494 v 18.64098 c 0,10.25253 -0.11365,18.64092 -0.25254,18.64087 -0.1389,-6e-5 -8.43478,-7.37358 -18.43529,-16.3856 z"
       id="path2476"
       inkscape:connector-curvature="0"
       transform="scale(0.26458333)" />
    <path
       style="opacity:1;fill:#ff0000;fill-opacity:1;stroke-width:1.01015258"
       d="m 633.37019,699.66219 c -4.84376,-5.99566 -10.23954,-12.61893 -11.99061,-14.71837 l -3.18376,-3.81717 0.73853,-16.74275 c 0.84378,-19.12882 0.63168,-18.97298 8.06688,-5.92749 8.83117,15.49477 16.21238,38.29676 15.49423,47.86466 l -0.31842,4.24233 z"
       id="path2478"
       inkscape:connector-curvature="0"
       transform="scale(0.26458333)" />
    <path
       style="opacity:1;fill:#ff0000;fill-opacity:1;stroke-width:1.01015258"
       d=""
       id="path2480"
       inkscape:connector-curvature="0"
       transform="scale(0.26458333)" />
    <path
       style="opacity:1;fill:#ff0000;fill-opacity:1;stroke-width:1.01015258"
       d="m 596.648,661.78893 -18.11057,-16.36544 -0.54746,-14.19167 -0.54745,-14.19167 -0.21016,13.58268 -0.21016,13.58268 -3.42689,-3.32147 -3.42689,-3.32147 0.43378,-14.8069 c 0.23858,-8.14379 0.68296,-17.24134 0.98751,-20.21679 l 0.55374,-5.40989 2.94445,2.82097 c 1.61945,1.55153 2.94445,3.44459 2.94445,4.20681 0,0.76222 0.40038,1.13841 0.88974,0.83597 0.48936,-0.30244 8.89888,7.6275 18.68782,17.62208 l 17.79809,18.17197 v 18.68379 c 0,10.27609 -0.14613,18.6838 -0.32472,18.6838 -0.17859,0 -8.47447,-7.36445 -18.43528,-16.36545 z"
       id="path2482"
       inkscape:connector-curvature="0"
       transform="scale(0.26458333)" />
    <path
       style="opacity:1;fill:#ff0000;fill-opacity:1;stroke-width:1.01015258"
       d="m 532.04636,574.6378 c -0.4004,-5.34064 -0.4899,-9.94835 -0.19888,-10.23937 0.29102,-0.29102 0.85673,3.84048 1.25713,9.18111 0.40041,5.34063 0.4899,9.94834 0.19888,10.23936 -0.29102,0.29103 -0.85673,-3.84047 -1.25713,-9.1811 z"
       id="path2484"
       inkscape:connector-curvature="0"
       transform="scale(0.26458333)" />
    <path
       style="opacity:1;fill:#ff0000;fill-opacity:1;stroke-width:1.01015258"
       d="m 526.77969,590.06626 c -5.145,-8.14774 -8.96244,-15.70291 -12.12816,-24.00303 -2.48188,-6.50721 -2.52523,-7.14438 -3.0261,-44.48249 l -0.50814,-37.88073 3.24948,-11.11167 c 1.78721,-6.11143 3.31968,-11.18744 3.40549,-11.28004 0.0858,-0.0926 0.1717,9.45334 0.19088,21.2132 0.022,13.47671 0.51513,23.62231 1.33392,27.44248 2.19091,10.22187 6.2363,22.86885 9.77153,30.54838 l 3.36737,7.31487 -0.5387,23.99986 c -0.29628,13.19992 -0.66515,24.13496 -0.81971,24.30008 -0.15457,0.16512 -2.0886,-2.56229 -4.29786,-6.06091 z"
       id="path2486"
       inkscape:connector-curvature="0"
       transform="scale(0.26458333)" />
    <path
       style="opacity:1;fill:#ff0000;fill-opacity:1;stroke-width:1.01015258"
       d="m 526.91156,590.27111 c -5.20814,-8.24274 -9.02042,-15.74476 -12.30163,-24.20788 l -2.55955,-6.60177 -0.0915,-40.40611 -0.0915,-40.4061 3.03046,-8.9671 3.03045,-8.9671 0.13626,22.60416 c 0.13038,21.62847 0.26697,23.10559 3.16463,34.22092 1.6656,6.38921 4.89884,15.93515 7.18496,21.2132 4.04111,9.32984 4.15334,9.89112 4.03965,20.20305 -0.0643,5.83363 -0.40418,16.74328 -0.75523,24.24366 l -0.63828,13.63706 z"
       id="path2488"
       inkscape:connector-curvature="0"
       transform="scale(0.26458333)" />
    <path
       style="opacity:1;fill:#ff0000;fill-opacity:1;stroke-width:1.01015258"
       d="m 423.47901,849.90808 c 0,-60.45539 0.27244,-77.76037 1.21503,-77.17782 0.66827,0.41301 4.6632,3.5348 8.87764,6.9373 8.78472,7.0923 22.87132,16.01825 33.86183,21.4565 l 7.56328,3.74241 -0.004,45.99297 -0.004,45.99297 -12.5743,6.35435 c -11.81666,5.97149 -24.82583,14.00707 -34.64164,21.39765 l -4.29315,3.23243 z"
       id="path2490"
       inkscape:connector-curvature="0"
       transform="scale(0.26458333)" />
    <path
       style="opacity:1;fill:#ff0000;fill-opacity:1;stroke-width:1.01015258"
       d="m 474.99679,850.95382 v -46.40367 l 6.31345,2.85271 c 5.19675,2.34813 24.34749,8.95265 35.10281,12.10591 l 2.52538,0.7404 v 30.58578 30.58577 l -16.66752,5.7687 c -9.16713,3.17279 -18.8845,6.75856 -21.59415,7.96838 -2.70965,1.20983 -5.09613,2.19968 -5.3033,2.19968 -0.20717,0 -0.37667,-20.88165 -0.37667,-46.40366 z"
       id="path2492"
       inkscape:connector-curvature="0"
       transform="scale(0.26458333)" />
    <path
       style="opacity:1;fill:#ff0000;fill-opacity:1;stroke-width:1.01015258"
       d="m 519.4435,850.518 v -30.67703 l 5.80838,1.40856 c 8.34631,2.02404 27.74029,5.1737 36.87057,5.98793 l 7.82868,0.69816 v 19.41099 19.41099 l -24.23699,7.21872 c -13.33035,3.9703 -24.69456,7.21872 -25.25382,7.21872 -0.66,0 -1.01682,-10.765 -1.01682,-30.67704 z"
       id="path2494"
       inkscape:connector-curvature="0"
       transform="scale(0.26458333)" />
    <path
       style="opacity:1;fill:#ff0000;fill-opacity:1;stroke-width:1.01015258"
       d="m 569.95132,847.62671 1.9e-4,-19.46468 h 24.77844 24.77843 l -0.28242,11.61676 -0.28243,11.61675 -21.71828,7.19484 c -11.94505,3.95716 -22.96834,7.48873 -24.4962,7.84793 l -2.77792,0.65309 z"
       id="path2496"
       inkscape:connector-curvature="0"
       transform="scale(0.26458333)" />
    <path
       style="opacity:1;fill:#ff0000;fill-opacity:1;stroke-width:1.01015258"
       d="m 619.4624,842.00009 c 0.0178,-12.65789 0.43026,-14.0615 4.38208,-14.91295 1.74915,-0.37687 4.99854,-1.72908 7.22088,-3.00491 2.22234,-1.27583 7.72437,-3.72828 12.22675,-5.44989 4.50237,-1.72161 12.23004,-5.80019 17.17259,-9.06351 l 8.98646,-5.9333 0.29497,8.06801 c 0.34136,9.33669 0.54653,8.97377 -9.67701,17.11651 -9.84473,7.84102 -23.87677,15.98149 -36.99845,21.46408 l -3.62206,1.5134 z"
       id="path2498"
       inkscape:connector-curvature="0"
       transform="scale(0.26458333)" />
    <path
       style="opacity:1;fill:#ff0000;fill-opacity:1;stroke-width:1.01015258"
       d="m 669.99997,812.25213 c -0.0241,-4.86136 -0.29596,-8.83883 -0.60424,-8.83883 -0.30828,0 -3.14933,1.75534 -6.31345,3.90077 -6.35272,4.30744 -16.33724,9.59025 -16.95604,8.97144 -0.21758,-0.21758 4.04045,-3.39646 9.4623,-7.06417 17.32381,-11.71905 30.38899,-24.62487 38.06919,-37.60487 4.10885,-6.94418 4.3285,-6.34261 1.58998,4.3544 -3.92578,15.33453 -11.13334,29.41331 -20.29188,39.63679 l -4.91213,5.4833 z"
       id="path2500"
       inkscape:connector-curvature="0"
       transform="scale(0.26458333)" />
    <path
       style="opacity:1;fill:#ff0000;fill-opacity:1;stroke-width:1.01015258"
       d="m 619.85568,840.65285 c 0.40334,-5.93198 1.23566,-10.95272 1.92019,-11.58299 0.66455,-0.61186 6.20852,-3.29535 12.31995,-5.96332 15.41003,-6.72731 22.28641,-10.23593 29.04188,-14.81837 l 5.80838,-3.94 v 8.02525 8.02525 l -5.13891,4.62032 c -2.8264,2.54118 -8.32009,6.73516 -12.2082,9.31997 -7.43601,4.94346 -25.90198,14.81669 -30.02995,16.05618 l -2.42527,0.72822 z"
       id="path2502"
       inkscape:connector-curvature="0"
       transform="scale(0.26458333)" />
    <path
       style="opacity:1;fill:#ff0000;fill-opacity:1;stroke-width:1.01015258"
       d=""
       id="path2504"
       inkscape:connector-curvature="0"
       transform="scale(0.26458333)" />
    <path
       style="opacity:1;fill:#ff0000;fill-opacity:1;stroke-width:1.01015258"
       d="m 374.74778,875.35341 -0.26117,-114.40154 5.55584,-4.12797 c 3.05571,-2.27038 8.68118,-5.70618 12.50104,-7.63512 l 6.94519,-3.50716 3.10825,3.86456 c 1.70953,2.12551 7.12936,8.00637 12.04406,13.06858 l 8.93582,9.20402 -0.0599,77.6691 -0.0599,77.6691 -9.00466,8.5863 c -14.54125,13.86566 -24.01661,26.20123 -34.12887,44.43096 l -5.31454,9.5807 z"
       id="path2506"
       inkscape:connector-curvature="0"
       transform="scale(0.26458333)" />
    <path
       style="opacity:1;fill:#ff0000;fill-opacity:1;stroke-width:1.01015258"
       d="m 356.50648,1047.7786 c -0.33124,-1.3386 -4.72315,-23.964 -9.75981,-50.27866 l -9.15756,-47.84489 -0.007,-68.82772 -0.007,-68.82774 7.62843,-12.3545 c 7.82064,-12.6658 16.23119,-24.22676 24.03077,-33.03216 l 4.41163,-4.98056 0.67282,74.59537 c 0.37004,41.02745 0.67281,92.38743 0.67281,114.13327 v 39.53791 l -3.43346,8.53005 c -4.90185,12.17813 -9.33181,26.94883 -12.07548,40.26303 -1.64873,8.0008 -2.55801,10.7768 -2.97627,9.0866 z"
       id="path2508"
       inkscape:connector-curvature="0"
       transform="scale(0.26458333)" />
    <path
       style="opacity:1;fill:#ff0000;fill-opacity:1;stroke-width:1.01015258"
       d="m 356.5204,1045.3448 c -0.35819,-1.1111 -4.64456,-22.2486 -9.52527,-46.97206 l -8.87401,-44.95179 -0.2791,-70.54548 -0.2791,-70.54548 6.44597,-10.26673 c 10.98824,-17.50135 27.67197,-39.60007 28.96249,-38.36277 0.2778,0.26634 0.75527,29.8799 1.06106,65.80793 l 0.55598,65.32368 0.20163,-66.83772 0.20164,-66.83773 3.87022,-3.06526 c 4.71376,-3.73338 19.00583,-11.54757 20.26452,-11.07964 0.50017,0.18594 6.18412,5.92193 12.63099,12.74663 l 11.72159,12.40854 0.22157,14.3605 0.22158,14.36049 0.3118,-13.85776 0.3118,-13.85777 10.32577,7.83443 c 12.04135,9.13609 30.43505,20.04051 42.35343,25.10856 4.60813,1.95952 15.65153,6.00699 24.54087,8.99438 l 16.16244,5.43161 0.26722,30.23769 0.26722,30.23769 -4.30783,1.57188 c -2.3693,0.86453 -11.12636,4.03932 -19.46011,7.05508 -8.33376,3.01577 -15.92506,5.79772 -16.86955,6.18212 -1.48952,0.60621 -1.76513,-0.15015 -2.07821,-5.70325 l -0.36095,-6.40215 -0.19463,6.30076 -0.19464,6.30075 -6.96343,3.50673 c -11.68925,5.88661 -26.43797,14.62715 -35.2347,20.88114 -4.59692,3.26816 -8.75466,5.94211 -9.23943,5.94211 -0.48477,0 -6.2696,5.60863 -12.85518,12.46362 -27.47048,28.59431 -41.54139,55.8658 -51.68256,100.16837 -1.28135,5.5977 -2.04999,7.4604 -2.50109,6.0609 z"
       id="path2510"
       inkscape:connector-curvature="0"
       transform="scale(0.26458333)" />
    <path
       style="opacity:1;fill:#ff0000;fill-opacity:1;stroke-width:1.01015258"
       d="m 341.7386,1038.0276 c -28.90131,-36.0392 -41.79487,-59.2158 -48.19206,-86.62696 -2.60016,-11.14136 -2.62813,-36.82709 -0.0534,-48.9924 2.84436,-13.43899 9.28233,-31.60401 16.06687,-45.33336 4.88105,-9.8774 6.37767,-12.15836 6.98199,-10.64107 0.42307,1.0622 5.17591,25.34156 10.56188,53.95413 5.38597,28.61257 10.13358,52.1583 10.55024,52.32383 0.41666,0.16553 0.57454,1.07467 0.35084,2.02031 -0.2237,0.94563 3.86106,23.99319 9.07725,51.21682 5.21619,27.2236 9.38419,49.614 9.26222,49.7564 -0.12197,0.1424 -6.69461,-7.8125 -14.60587,-17.6777 z"
       id="path2512"
       inkscape:connector-curvature="0"
       transform="scale(0.26458333)" />
    <path
       style="opacity:1;fill:#ff0000;fill-opacity:1;stroke-width:1.01015258"
       d="m 335.98361,943.06368 c -0.0645,-2.08168 -4.04194,-24.4404 -8.83883,-49.68604 -4.7969,-25.24564 -8.72163,-46.85893 -8.72163,-48.02953 0,-1.1706 4.3184,-9.13162 9.59645,-17.69115 l 9.59645,-15.56279 v 67.38039 c 0,37.05922 -0.34093,67.37895 -0.75762,67.37719 -0.41669,-0.002 -0.81036,-1.7064 -0.87482,-3.78807 z"
       id="path2514"
       inkscape:connector-curvature="0"
       transform="scale(0.26458333)" />
    <path
       style="opacity:1;fill:#ff0000;fill-opacity:1;stroke-width:1.01015258"
       d="m 356.44889,1045.8499 c -0.32202,-0.8334 -4.69115,-22.7638 -9.70917,-48.73431 -7.34781,-38.02819 -9.16156,-49.23552 -9.31831,-57.57869 -0.15581,-8.29294 -0.27716,-9.04974 -0.60832,-3.79362 -0.44959,7.13588 0.52418,11.78923 -14.22685,-67.98622 -2.97214,-16.07371 -3.81796,-22.69361 -3.13055,-24.50163 1.2563,-3.30433 20.65374,-35.45695 29.95624,-49.65461 8.41453,-12.84239 22.54892,-30.93017 23.45955,-30.02118 0.33274,0.33214 0.85209,20.22659 1.15411,44.20989 l 0.54913,43.60601 0.20848,-45.15805 0.20849,-45.15806 4.59321,-3.50717 c 2.52626,-1.92895 7.95197,-5.2362 12.05713,-7.34946 l 7.46394,-3.84227 11.93398,12.5152 11.93399,12.5152 0.57237,7.66742 0.57237,7.66743 0.18524,-6.81383 0.18524,-6.81384 10.0005,7.44263 c 22.26451,16.5698 40.19021,25.61274 70.30663,35.46744 l 13.13198,4.29705 0.26739,30.46092 c 0.20935,23.8481 -0.0101,30.55417 -1.01015,30.89054 -2.03202,0.68338 -37.46202,13.45113 -39.34075,14.17705 -1.34261,0.51877 -1.78419,-0.0477 -2.11117,-2.70821 l -0.41348,-3.36419 -0.16165,3.20495 c -0.15357,3.04439 -0.88282,3.59517 -14.55634,10.99404 -18.02859,9.75542 -36.68956,22.26479 -45.06738,30.21089 -15.23253,14.44757 -30.65681,35.64658 -39.47684,54.25668 -6.48291,13.6788 -10.50189,25.2604 -15.18708,43.7649 -2.11004,8.3338 -4.0999,14.4705 -4.42193,13.6371 z"
       id="path2516"
       inkscape:connector-curvature="0"
       transform="scale(0.26458333)" />
    <path
       style="opacity:1;fill:#ff0000;fill-opacity:1;stroke-width:1.01015258"
       d="m 520.10209,869.42114 c -0.73626,-12.03323 -0.90171,-48.83525 -0.21955,-48.83525 0.24147,0 3.76438,0.7043 7.82868,1.56512 22.3167,4.72666 32.35868,5.73568 62.07604,6.23738 l 29.43258,0.4969 -0.51278,10.75005 c -0.28202,5.91253 -0.79876,11.04019 -1.1483,11.39482 -0.77245,0.78367 -43.04319,14.71758 -46.59748,15.36015 -1.38896,0.25111 -12.68038,3.45761 -25.09204,7.12557 -12.41166,3.66795 -23.13859,6.66901 -23.83761,6.66901 -0.90045,0 -1.46295,-3.13783 -1.92954,-10.76375 z"
       id="path2518"
       inkscape:connector-curvature="0"
       transform="scale(0.26458333)" />
    <path
       style="opacity:1;fill:#ff0000;fill-opacity:1;stroke-width:1.01015258"
       d="m 518.67929,850.89047 0.1845,-30.80966 0.54239,29.29443 c 0.29832,16.11193 0.2153,29.97627 -0.1845,30.80965 -0.39979,0.83337 -0.64387,-12.34912 -0.54239,-29.29442 z"
       id="path2520"
       inkscape:connector-curvature="0"
       transform="scale(0.26458333)" />
    <path
       style="opacity:1;fill:#ff0000;fill-opacity:1;stroke-width:1.01015258"
       d="m 520.10436,871.85113 c -0.81686,-10.49335 -0.8661,-51.26524 -0.0619,-51.26524 0.32941,0 5.14276,0.92597 10.69632,2.05771 21.18435,4.3171 30.34762,5.19784 59.65099,5.73342 l 29.02491,0.53049 -0.61748,10.73894 c -0.33962,5.90642 -0.90019,11.0231 -1.24572,11.37042 -1.87746,1.88716 -91.39409,29.16802 -95.70896,29.16802 -0.63864,0 -1.35783,-3.44824 -1.73814,-8.33376 z"
       id="path2522"
       inkscape:connector-curvature="0"
       transform="scale(0.26458333)" />
    <path
       style="opacity:1;fill:#ff0000;fill-opacity:1;stroke-width:1.01015258"
       d="m 356.46524,1045.8499 c -0.62068,-1.6668 -7.16517,-34.6584 -14.27692,-71.97164 -2.51475,-13.19415 -4.63418,-26.83121 -4.70984,-30.30457 -0.0757,-3.47335 -0.36453,-5.17876 -0.64194,-3.7898 -0.46506,2.32851 -5.59688,-23.47657 -14.92962,-75.07273 l -3.62112,-20.01942 4.43647,-7.75978 c 7.45908,-13.04659 23.88965,-39.59897 30.1175,-48.67095 7.99552,-11.64691 19.20501,-25.50659 19.99341,-24.72033 0.35381,0.35284 0.88971,14.12785 1.19091,30.61114 l 0.54762,29.9696 0.20999,-31.82783 0.20999,-31.82783 6.31345,-4.22235 c 3.4724,-2.3223 8.92318,-5.47974 12.11284,-7.01653 l 5.79938,-2.79417 12.07994,12.58039 12.07993,12.58039 0.20958,5.55584 0.2096,5.55584 0.59891,-4.69585 0.59892,-4.69586 8.5863,6.51645 c 20.25519,15.37239 38.50159,24.8275 66.16499,34.28609 l 18.18274,6.217 v 30.52392 30.52391 l -20.62538,7.48325 c -11.34396,4.11578 -20.77626,7.48325 -20.96067,7.48325 -0.1844,0 -0.36723,-0.7955 -0.40628,-1.76777 -0.0643,-1.60082 -0.14053,-1.59101 -0.80727,0.10391 -0.40496,1.02941 -6.62333,5.06951 -13.81861,8.97798 -25.16419,13.66919 -42.43734,26.26903 -54.54786,39.78972 -23.66429,26.41983 -35.35378,48.89535 -45.37673,87.24643 -2.39581,9.1672 -4.60991,15.9857 -4.92023,15.1523 z"
       id="path2524"
       inkscape:connector-curvature="0"
       transform="scale(0.26458333)" />
    <path
       style="opacity:1;fill:#ff0000;fill-opacity:1;stroke-width:1.01015258"
       d="m 356.56116,1046.2662 c -0.33084,-0.5353 -4.0246,-18.6898 -8.20835,-40.3433 -10.51399,-54.4164 -10.73676,-55.67925 -10.73676,-60.86312 0,-2.53135 -0.32826,-4.27419 -0.72947,-3.87299 -0.4012,0.4012 -1.77475,-4.86422 -3.05233,-11.70094 -12.76321,-68.29991 -15.41725,-83.43635 -14.95597,-85.29636 0.71905,-2.89946 18.8023,-32.86146 30.40187,-50.37264 10.28171,-15.52168 22.5428,-31.28314 23.55303,-30.27707 0.35381,0.35234 0.89348,9.58166 1.19927,20.50961 l 0.55599,19.86898 0.21359,-21.71828 0.21359,-21.71828 5.29134,-3.63245 c 2.91023,-1.99785 8.27874,-5.28733 11.93002,-7.30997 l 6.63868,-3.67752 12.30168,13.03652 c 11.10339,11.76664 12.31462,13.41347 12.43465,16.90642 0.13214,3.84529 0.13694,3.84959 0.75761,0.67594 l 0.62464,-3.19396 10.10153,7.46117 c 21.11126,15.59315 37.31407,23.88317 66.16499,33.85272 l 16.66751,5.75953 v 30.55052 30.55053 l -20.69659,7.47765 c -12.57781,4.54434 -20.84019,7.04682 -21.06269,6.37935 -0.22797,-0.68393 -0.80402,-0.5347 -1.52676,0.3955 -0.63837,0.82161 -6.38821,4.3239 -12.77742,7.78287 -31.90222,17.27112 -50.34118,32.18112 -66.4801,53.75673 -17.09965,22.85997 -25.98542,42.46797 -34.85652,76.91704 -1.85102,7.188 -3.63618,12.6311 -3.96703,12.0958 z"
       id="path2526"
       inkscape:connector-curvature="0"
       transform="scale(0.26458333)" />
    <path
       style="fill:none;stroke:#000000;stroke-width:0.26458332px;stroke-linecap:butt;stroke-linejoin:miter;stroke-opacity:1"
       d="m 115.99497,94.944236 c 14.67119,-23.009939 36.81467,-18.193602 36.8832,-18.174328 -0.0807,-6.066383 -0.0359,-18.32565 -16.03617,-15.768901 l -8.28536,14.432555 8.28536,-14.432555 c -0.80675,-7.654729 -0.42321,-17.088522 -17.10525,-9.621703 l -3.47451,17.10525 3.47451,-17.10525 c -6.81704,-9.600266 -21.033896,-1.36214 -17.90706,6.681738 8.13479,11.769317 15.1682,23.708076 14.16528,36.883194 z"
       id="path2528"
       inkscape:connector-curvature="0"
       sodipodi:nodetypes="cccccccccc" />
    <path
       style="opacity:1;fill:#ff0000;fill-opacity:1;stroke-width:1.01015258"
       d="m 439.64145,347.08315 c 0,-11.51997 -3.38368,-29.88306 -8.13171,-44.13043 -7.07508,-21.23013 -18.46832,-43.01251 -37.23293,-71.18449 l -9.68867,-14.54594 0.0374,-6.66727 c 0.0276,-4.93289 0.63699,-7.80906 2.34244,-11.05659 3.43473,-6.54041 10.51248,-13.04108 18.12558,-16.64771 6.20818,-2.94106 7.6053,-3.20566 16.87026,-3.19497 11.99392,0.0138 17.28359,2.06498 24.89941,9.65511 l 4.69636,4.68051 -6.48084,32.12142 c -5.71155,28.30854 -6.64776,34.40674 -5.02695,32.7441 0.22567,-0.23149 3.32569,-14.71702 6.88894,-32.19007 l 6.47864,-31.76917 7.00065,-2.87522 c 15.49024,-6.36195 31.68855,-8.61022 39.10545,-5.42772 4.14618,1.77909 9.29766,7.19138 11.17162,11.73721 1.86268,4.51849 3.429,12.37976 4.62916,23.23351 l 0.94943,8.5863 -15.61755,27.16105 c -8.58966,14.93857 -15.3697,27.4089 -15.06676,27.71185 0.93662,0.93661 1.90293,-0.59865 16.73521,-26.58863 7.92669,-13.8896 15.10762,-25.82203 15.95762,-26.51651 2.62392,-2.14381 22.93244,-1.65206 30.59989,0.74095 17.19159,5.36549 25.75409,19.72356 27.63276,46.33619 l 0.73834,10.4591 -2.38932,-0.80325 c -1.31413,-0.4418 -8.98057,-0.7695 -17.03654,-0.72821 -15.94644,0.0817 -29.26999,2.24493 -43.43656,7.05242 -10.91375,3.70363 -27.4386,12.52868 -37.44244,19.99605 -10.19494,7.61 -25.15006,22.93618 -32.26011,33.06054 l -5.04874,7.18913 z"
       id="path2530"
       inkscape:connector-curvature="0"
       transform="scale(0.26458333)" />
    <path
       style="opacity:1;fill:#ffffff;fill-opacity:1;stroke-width:0.26458332"
       id="path2275-0"
       sodipodi:type="arc"
       sodipodi:cx="111.18412"
       sodipodi:cy="56.724693"
       sodipodi:rx="3.7417734"
       sodipodi:ry="3.8754082"
       sodipodi:start="5.0426997"
       sodipodi:end="4.7522532"
       d="m 112.39772,53.058783 a 3.7417734,3.8754082 0 0 1 2.40462,4.653582 3.7417734,3.8754082 0 0 1 -4.30683,2.821545 3.7417734,3.8754082 0 0 1 -3.02952,-4.244188 3.7417734,3.8754082 0 0 1 3.86725,-3.437358"
       sodipodi:open="true" />
    <path
       style="opacity:1;fill:#ffffff;fill-opacity:1;stroke-width:0.26458332"
       id="path2275-5"
       sodipodi:type="arc"
       sodipodi:cx="126.41848"
       sodipodi:cy="58.328312"
       sodipodi:rx="3.7417734"
       sodipodi:ry="3.8754082"
       sodipodi:start="5.0426997"
       sodipodi:end="4.7522532"
       d="m 127.63208,54.662402 a 3.7417734,3.8754082 0 0 1 2.40462,4.653582 3.7417734,3.8754082 0 0 1 -4.30683,2.821545 3.7417734,3.8754082 0 0 1 -3.02952,-4.244188 3.7417734,3.8754082 0 0 1 3.86725,-3.437358"
       sodipodi:open="true" />
    <path
       style="opacity:1;fill:#ffffff;fill-opacity:1;stroke-width:0.26458332"
       id="path2275-1"
       sodipodi:type="arc"
       sodipodi:cx="143.25647"
       sodipodi:cy="69.286362"
       sodipodi:rx="3.7417734"
       sodipodi:ry="3.8754082"
       sodipodi:start="5.0426997"
       sodipodi:end="4.7522532"
       d="m 144.47007,65.620452 a 3.7417734,3.8754082 0 0 1 2.40462,4.653582 3.7417734,3.8754082 0 0 1 -4.30683,2.821545 3.7417734,3.8754082 0 0 1 -3.02952,-4.244189 3.7417734,3.8754082 0 0 1 3.86725,-3.437358"
       sodipodi:open="true" />
    <path
       style="fill:none;stroke:#000000;stroke-width:0.26458332px;stroke-linecap:butt;stroke-linejoin:miter;stroke-opacity:1"
       d="m 169.44888,105.90229 c 26.72695,-1.60362 23.25245,-21.381566 23.25245,-21.381566"
       id="path2559"
       inkscape:connector-curvature="0" />
    <path
       style="fill:none;stroke:#000000;stroke-width:0.26458332px;stroke-linecap:butt;stroke-linejoin:miter;stroke-opacity:1"
       d="m 169.44888,105.90229 c 7.87446,-4.80447 20.52532,-3.33993 17.90706,-21.916104"
       id="path2561"
       inkscape:connector-curvature="0"
       sodipodi:nodetypes="cc" />
    <path
       style="opacity:1;fill:#ff0000;fill-opacity:1;stroke-width:0.26458332"
       id="path2275-7"
       sodipodi:type="arc"
       sodipodi:cx="190.02864"
       sodipodi:cy="82.366455"
       sodipodi:rx="3.7417734"
       sodipodi:ry="3.8754082"
       sodipodi:start="5.0426997"
       sodipodi:end="4.7522532"
       d="m 191.24224,78.700545 a 3.7417734,3.8754082 0 0 1 2.40462,4.653582 3.7417734,3.8754082 0 0 1 -4.30683,2.821545 3.7417734,3.8754082 0 0 1 -3.02952,-4.244188 3.7417734,3.8754082 0 0 1 3.86725,-3.437358"
       sodipodi:open="true" />
    <path
       style="opacity:1;fill:#ff0000;fill-opacity:1;stroke-width:1.01015258"
       d="m 646.72272,398.09082 c 0.2778,-0.29015 8.23275,-3.5666 17.67767,-7.281 20.00414,-7.86702 24.33402,-10.21112 31.67989,-17.15077 9.69097,-9.15506 14.23103,-21.81683 14.26451,-39.78222 0.0174,-9.32877 0.0376,-9.40468 2.29039,-8.5863 3.17043,1.15177 10.78728,0.79653 12.15049,-0.56668 2.20366,-2.20366 2.74926,-1.05732 2.74926,5.77647 0,25.84903 -17.02553,49.04715 -43.89199,59.805 -4.06854,1.62913 -11.19894,3.87286 -15.84533,4.98608 -8.35002,2.00056 -22.05269,3.82071 -21.07489,2.79942 z"
       id="path2578"
       inkscape:connector-curvature="0"
       transform="scale(0.26458333)" />
    <path
       style="fill:none;stroke:#000000;stroke-width:0.26458332px;stroke-linecap:butt;stroke-linejoin:miter;stroke-opacity:1"
       d="m 180.94147,73.562675 -0.80181,-0.801809 v 0.267268 c 1.92381,16.902744 -4.23973,25.044179 -10.69078,32.874156 5.62451,-10.27108 11.18016,-20.56511 4.27631,-35.01231 h 0.53454"
       id="path2598"
       inkscape:connector-curvature="0"
       sodipodi:nodetypes="cccccc" />
    <path
       style="opacity:1;fill:#0000ff;fill-opacity:1;stroke-width:0.26458332"
       id="path2275-0-1"
       sodipodi:type="arc"
       sodipodi:cx="177.19971"
       sodipodi:cy="71.1465"
       sodipodi:rx="3.7417734"
       sodipodi:ry="3.8754082"
       sodipodi:start="5.0426997"
       sodipodi:end="4.7522532"
       d="m 178.4133,67.48059 a 3.7417734,3.8754082 0 0 1 2.40462,4.653582 3.7417734,3.8754082 0 0 1 -4.30682,2.821544 3.7417734,3.8754082 0 0 1 -3.02952,-4.244188 3.7417734,3.8754082 0 0 1 3.86725,-3.437358"
       sodipodi:open="true" />
    <path
       style="opacity:1;fill:#0000ff;fill-opacity:1;stroke-width:1.01015258"
       d="m 649.75318,385.86422 c 0,-0.19585 2.22446,-5.08247 4.94324,-10.85915 6.20725,-13.18873 10.46038,-25.22315 12.81548,-36.26195 3.39682,-15.92152 1.94493,-40.65683 -3.15918,-53.82175 -0.62168,-1.60349 -0.24981,-1.72732 3.42338,-1.13995 3.1435,0.50267 5.07933,0.15935 8.16232,-1.4476 l 4.04149,-2.10654 0.68145,3.63244 c 1.10114,5.8696 -0.35001,35.54129 -2.14073,43.77173 -3.8299,17.60272 -10.02409,31.8973 -20.814,48.03327 -6.22064,9.30278 -7.95345,11.52494 -7.95345,10.1995 z"
       id="path2617"
       inkscape:connector-curvature="0"
       transform="scale(0.26458333)" />
    <path
       style="fill:none;stroke:#000000;stroke-width:0.26458332px;stroke-linecap:butt;stroke-linejoin:miter;stroke-opacity:1"
       d="M 61.236952,62.03248 C 33.708192,39.0473 46.26986,27.020173 46.26986,27.020173 v 0"
       id="path2619"
       inkscape:connector-curvature="0" />
    <path
       style="fill:none;stroke:#000000;stroke-width:0.26458332px;stroke-linecap:butt;stroke-linejoin:miter;stroke-opacity:1"
       d="M 61.236952,62.03248 C 55.900148,50.995192 39.2901,39.555288 51.882519,29.158329"
       id="path2621"
       inkscape:connector-curvature="0"
       sodipodi:nodetypes="cc" />
    <path
       style="opacity:1;fill:#aad400;fill-opacity:1;stroke-width:0.26458332"
       id="path2275-0-9"
       sodipodi:type="arc"
       sodipodi:cx="48.707516"
       sodipodi:cy="29.158331"
       sodipodi:rx="3.7417734"
       sodipodi:ry="3.8754082"
       sodipodi:start="5.0426997"
       sodipodi:end="4.7522532"
       d="m 49.921111,25.492421 a 3.7417734,3.8754082 0 0 1 2.404621,4.653582 3.7417734,3.8754082 0 0 1 -4.306824,2.821545 3.7417734,3.8754082 0 0 1 -3.029522,-4.244188 3.7417734,3.8754082 0 0 1 3.867253,-3.437358"
       sodipodi:open="true" />
    <path
       style="opacity:1;fill:#aad400;fill-opacity:1;stroke-width:1.01015258"
       d=""
       id="path2638"
       inkscape:connector-curvature="0"
       transform="scale(0.26458333)" />
    <path
       style="opacity:1;fill:#aad400;fill-opacity:1;stroke-width:0.26726952"
       d="M 56.338856,57.206831 C 49.175903,50.241977 45.234879,44.161733 44.030358,38.21718 43.521305,35.704887 43.637885,32.984518 44.341071,30.966877 l 0.450281,-1.291988 0.468186,1.045727 c 0.481994,1.076569 1.664189,2.206424 2.308635,2.206424 0.453871,0 0.451699,0.09558 -0.03894,1.712913 -0.218906,0.721603 -0.394907,2.164858 -0.391113,3.207234 0.0132,3.623897 1.597054,6.878891 6.607003,13.578059 3.688353,4.931963 6.308238,8.759172 6.122898,8.944512 -0.07491,0.07491 -1.663039,-1.348406 -3.529169,-3.162927 z"
       id="path2640"
       inkscape:connector-curvature="0" />
    <path
       style="fill:none;stroke:#000000;stroke-width:0.26458332px;stroke-linecap:butt;stroke-linejoin:miter;stroke-opacity:1"
       d="M 61.236952,62.03248 C 60.26536,51.423249 51.141063,37.3813 62.273798,31.868628 v -1.870887"
       id="path2642"
       inkscape:connector-curvature="0"
       sodipodi:nodetypes="ccc" />
    <path
       style="fill:none;stroke:#000000;stroke-width:0.26458332px;stroke-linecap:butt;stroke-linejoin:miter;stroke-opacity:1"
       d="M 61.236952,62.03248 C 55.763711,32.596332 66.702162,33.64905 67.619189,33.739515"
       id="path2644"
       inkscape:connector-curvature="0"
       sodipodi:nodetypes="cc" />
    <path
       style="opacity:1;fill:#ff0000;fill-opacity:1;stroke-width:0.26458332"
       id="path2275-0-9-7"
       sodipodi:type="arc"
       sodipodi:cx="65.327904"
       sodipodi:cy="30.729715"
       sodipodi:rx="3.7417734"
       sodipodi:ry="3.8754082"
       sodipodi:start="5.0426997"
       sodipodi:end="4.7522532"
       d="m 66.541499,27.063805 a 3.7417734,3.8754082 0 0 1 2.404621,4.653583 3.7417734,3.8754082 0 0 1 -4.306824,2.821544 3.7417734,3.8754082 0 0 1 -3.029522,-4.244188 3.7417734,3.8754082 0 0 1 3.867253,-3.437358"
       sodipodi:open="true" />
    <path
       style="opacity:1;fill:#ff0000;fill-opacity:1;stroke-width:1.01015258"
       d="m 221.60993,188.48293 c -4.48761,-17.02647 -6.54157,-29.99249 -5.88072,-37.1231 1.05039,-11.33383 5.57324,-20.21763 13.11773,-25.7659 l 4.05465,-2.98183 3.41346,3.51472 c 1.8774,1.9331 3.86129,3.51473 4.40865,3.51473 0.54736,0 -0.66916,1.66436 -2.70338,3.69857 -2.03421,2.03422 -5.01374,6.50902 -6.62116,9.94401 -4.87065,10.40832 -6.25932,19.04201 -6.29509,39.13789 -0.0175,9.86161 -0.10703,17.93021 -0.19885,17.93021 -0.0918,0 -1.5747,-5.34119 -3.29529,-11.8693 z"
       id="path2661"
       inkscape:connector-curvature="0"
       transform="scale(0.26458333)" />
    <path
       style="opacity:1;fill:#ff0000;fill-opacity:1;stroke-width:0.26458332"
       id="path2666"
       sodipodi:type="arc"
       sodipodi:cx="72.582512"
       sodipodi:cy="78.227158"
       sodipodi:rx="1.7372519"
       sodipodi:ry="1.8708867"
       sodipodi:start="5.0426925"
       sodipodi:end="4.7522523"
       sodipodi:open="true"
       d="m 73.145955,76.457404 a 1.7372519,1.8708867 0 0 1 1.116445,2.246551 1.7372519,1.8708867 0 0 1 -1.999592,1.362136 1.7372519,1.8708867 0 0 1 -1.406571,-2.048915 1.7372519,1.8708867 0 0 1 1.795509,-1.659419" />
    <path
       style="opacity:1;fill:#0000ff;fill-opacity:1;stroke-width:0.26458332"
       id="path2666-6"
       sodipodi:type="arc"
       sodipodi:cx="155.42175"
       sodipodi:cy="107.82558"
       sodipodi:rx="1.7372519"
       sodipodi:ry="1.8708867"
       sodipodi:start="5.0426925"
       sodipodi:end="4.7522523"
       sodipodi:open="true"
       d="m 155.9852,106.05582 a 1.7372519,1.8708867 0 0 1 1.11644,2.24655 1.7372519,1.8708867 0 0 1 -1.99959,1.36214 1.7372519,1.8708867 0 0 1 -1.40657,-2.04891 1.7372519,1.8708867 0 0 1 1.79551,-1.65942" />
    <path
       style="opacity:1;fill:#000000;fill-opacity:1;stroke-width:0.26458332"
       id="path2666-1"
       sodipodi:type="arc"
       sodipodi:cx="126.53946"
       sodipodi:cy="58.548824"
       sodipodi:rx="1.7372519"
       sodipodi:ry="1.8708867"
       sodipodi:start="5.0426925"
       sodipodi:end="4.7522523"
       sodipodi:open="true"
       d="m 127.1029,56.77907 a 1.7372519,1.8708867 0 0 1 1.11645,2.246551 1.7372519,1.8708867 0 0 1 -1.99959,1.362137 1.7372519,1.8708867 0 0 1 -1.40658,-2.048915 1.7372519,1.8708867 0 0 1 1.79551,-1.659419" />
    <path
       style="opacity:1;fill:#0000ff;fill-opacity:1;stroke-width:0.26458332"
       id="path2666-7"
       sodipodi:type="arc"
       sodipodi:cx="143.78366"
       sodipodi:cy="69.360245"
       sodipodi:rx="1.7372519"
       sodipodi:ry="1.8708867"
       sodipodi:start="5.0426925"
       sodipodi:end="4.7522523"
       sodipodi:open="true"
       d="m 144.3471,67.590491 a 1.7372519,1.8708867 0 0 1 1.11645,2.246551 1.7372519,1.8708867 0 0 1 -1.99959,1.362136 1.7372519,1.8708867 0 0 1 -1.40657,-2.048915 1.7372519,1.8708867 0 0 1 1.79551,-1.659419" />
    <path
       style="opacity:1;fill:#00ff00;fill-opacity:1;stroke-width:0.26458332"
       id="path2666-70"
       sodipodi:type="arc"
       sodipodi:cx="110.53609"
       sodipodi:cy="56.644115"
       sodipodi:rx="1.7372519"
       sodipodi:ry="1.8708867"
       sodipodi:start="5.0426925"
       sodipodi:end="4.7522523"
       sodipodi:open="true"
       d="m 111.09953,54.874362 a 1.7372519,1.8708867 0 0 1 1.11645,2.246551 1.7372519,1.8708867 0 0 1 -1.9996,1.362136 1.7372519,1.8708867 0 0 1 -1.40657,-2.048915 1.7372519,1.8708867 0 0 1 1.79551,-1.659419" />
  </g>
</svg>
