<?xml version="1.0" encoding="UTF-8" standalone="no"?>
<!-- Created with Inkscape (http://www.inkscape.org/) -->

<svg
   xmlns:dc="http://purl.org/dc/elements/1.1/"
   xmlns:cc="http://creativecommons.org/ns#"
   xmlns:rdf="http://www.w3.org/1999/02/22-rdf-syntax-ns#"
   xmlns:svg="http://www.w3.org/2000/svg"
   xmlns="http://www.w3.org/2000/svg"
   xmlns:sodipodi="http://sodipodi.sourceforge.net/DTD/sodipodi-0.dtd"
   xmlns:inkscape="http://www.inkscape.org/namespaces/inkscape"
   width="300mm"
   height="300mm"
   viewBox="0 0 300 300"
   version="1.1"
   id="svg8"
   inkscape:version="0.92.2 (5c3e80d, 2017-08-06)"
   sodipodi:docname="torch_icon.svg">
  <defs
     id="defs2" />
  <sodipodi:namedview
     id="base"
     pagecolor="#ffffff"
     bordercolor="#666666"
     borderopacity="1.0"
     inkscape:pageopacity="0.0"
     inkscape:pageshadow="2"
     inkscape:zoom="0.5"
     inkscape:cx="-134.7149"
     inkscape:cy="548.46667"
     inkscape:document-units="mm"
     inkscape:current-layer="layer1"
     showgrid="false"
     inkscape:window-width="1920"
     inkscape:window-height="1001"
     inkscape:window-x="-9"
     inkscape:window-y="-9"
     inkscape:window-maximized="1" />
  <metadata
     id="metadata5">
    <rdf:RDF>
      <cc:Work
         rdf:about="">
        <dc:format>image/svg+xml</dc:format>
        <dc:type
           rdf:resource="http://purl.org/dc/dcmitype/StillImage" />
        <dc:title></dc:title>
      </cc:Work>
    </rdf:RDF>
  </metadata>
  <g
     inkscape:label="Layer 1"
     inkscape:groupmode="layer"
     id="layer1"
     transform="translate(0,3)">
    <path
       style="opacity:1;fill:#ff6600;fill-opacity:1;fill-rule:evenodd;stroke-width:0.57970756"
       id="path815"
       sodipodi:type="arc"
       sodipodi:cx="150.59895"
       sodipodi:cy="147.60747"
       sodipodi:rx="147.61749"
       sodipodi:ry="148.07899"
       sodipodi:start="5.0426925"
       sodipodi:end="4.7522523"
       sodipodi:open="true"
       d="M 198.47576,7.533039 A 147.61749,148.07899 0 0 1 293.34217,185.34553 147.61749,148.07899 0 0 1 123.43312,293.15741 147.61749,148.07899 0 0 1 3.9141764,130.98762 147.61749,148.07899 0 0 1 156.48192,-0.35388768" />
    <path
       style="opacity:1;fill:#00ff00;fill-opacity:1;fill-rule:evenodd"
       d=""
       id="path945"
       inkscape:connector-curvature="0"
       transform="scale(0.26458333)" />
    <path
       style="opacity:1;fill:#00ff00;fill-opacity:1;fill-rule:evenodd"
       d=""
       id="path947"
       inkscape:connector-curvature="0"
       transform="scale(0.26458333)" />
    <path
       style="opacity:1;fill:#cccccc;fill-opacity:1;fill-rule:evenodd"
       d=""
       id="path953"
       inkscape:connector-curvature="0"
       transform="scale(0.26458333)" />
    <path
       style="opacity:1;fill:#cccccc;fill-opacity:1;fill-rule:evenodd"
       d=""
       id="path959"
       inkscape:connector-curvature="0"
       transform="scale(0.26458333)" />
    <g
       id="g998"
       transform="matrix(1.9611272,0,0,2.0225628,-33.772545,50.771636)">
      <g
         transform="translate(-3.96875,-15.497024)"
         id="g845">
        <rect
           style="opacity:1;fill:#0000ff;fill-opacity:1;fill-rule:evenodd;stroke-width:0.26458332"
           id="rect817"
           width="67.886459"
           height="13.363476"
           x="28.33057"
           y="47.370258"
           ry="1.7419371e-014" />
        <path
           sodipodi:type="star"
           style="opacity:1;fill:#00ff00;fill-opacity:1;fill-rule:evenodd;stroke-width:0.3521665"
           id="path819"
           sodipodi:sides="10"
           sodipodi:cx="50.546841"
           sodipodi:cy="53.511677"
           sodipodi:r1="5.1305828"
           sodipodi:r2="1.3868785"
           sodipodi:arg1="0.98279372"
           sodipodi:arg2="1.296953"
           inkscape:flatsided="false"
           inkscape:rounded="0"
           inkscape:randomized="0"
           d="m 53.392776,57.78058 -2.470877,-2.933702 -0.581846,3.791213 -0.274595,-3.82576 -2.699143,2.725155 2.026573,-3.256507 -3.785458,0.61818 3.553659,-1.44338 -3.425857,-1.724918 3.723368,0.921069 -1.757695,-3.409156 2.470877,2.933701 0.581847,-3.791212 0.274595,3.825759 2.699142,-2.725154 -2.026573,3.256507 3.785458,-0.61818 -3.553659,1.44338 3.425857,1.724918 -3.723368,-0.921069 z" />
        <path
           sodipodi:type="star"
           style="opacity:1;fill:#ff0000;fill-opacity:1;fill-rule:evenodd;stroke-width:0.37546957"
           id="path821"
           sodipodi:sides="10"
           sodipodi:cx="66.647667"
           sodipodi:cy="53.81628"
           sodipodi:r1="6.1157308"
           sodipodi:r2="1.6531798"
           sodipodi:arg1="1.0516502"
           sodipodi:arg2="1.3658095"
           inkscape:flatsided="false"
           inkscape:rounded="0"
           inkscape:randomized="0"
           d="m 69.681919,59.126222 -2.69774,-3.691373 -1.002856,4.460753 -0.01278,-4.572076 -3.433292,3.019362 2.677057,-3.706401 -4.552328,0.424677 4.344352,-1.425007 -3.932529,-2.332221 4.352253,1.400692 -1.810638,-4.198289 2.69774,3.691373 1.002855,-4.460753 0.01278,4.572075 3.433292,-3.019361 -2.677057,3.706401 4.552328,-0.424677 -4.344352,1.425007 3.932529,2.33222 -4.352253,-1.400691 z" />
        <path
           sodipodi:type="star"
           style="opacity:1;fill:#ffff00;fill-opacity:1;fill-rule:evenodd;stroke-width:0.48107556"
           id="path823"
           sodipodi:sides="10"
           sodipodi:cx="84.280312"
           sodipodi:cy="53.23938"
           sodipodi:r1="5.8315163"
           sodipodi:r2="1.5763524"
           sodipodi:arg1="1.5707963"
           sodipodi:arg2="1.8849556"
           inkscape:flatsided="false"
           inkscape:rounded="0"
           inkscape:randomized="0"
           d="m 84.280312,59.070896 -0.48712,-4.332316 -2.94056,3.218596 2.152384,-3.791239 -4.270806,0.875481 3.969749,-1.802038 -3.969749,-1.802038 4.270806,0.875481 -2.152384,-3.791239 2.94056,3.218596 0.487119,-4.332316 0.48712,4.332316 2.94056,-3.218596 -2.152384,3.791239 4.270806,-0.875481 -3.969749,1.802038 3.969749,1.802037 -4.270806,-0.87548 2.152384,3.791239 -2.94056,-3.218596 z" />
        <path
           sodipodi:type="star"
           style="opacity:1;fill:#ffffff;fill-opacity:1;fill-rule:evenodd;stroke-width:0.3521665"
           id="path819-7"
           sodipodi:sides="10"
           sodipodi:cx="34.773808"
           sodipodi:cy="54.339287"
           sodipodi:r1="5.1305823"
           sodipodi:r2="1.3868785"
           sodipodi:arg1="0.98279372"
           sodipodi:arg2="1.296953"
           inkscape:flatsided="false"
           inkscape:rounded="0"
           inkscape:randomized="0"
           d="m 37.619743,58.608189 -2.470877,-2.933701 -0.581847,3.791212 -0.274595,-3.825759 -2.699142,2.725154 2.026573,-3.256506 -3.785457,0.618179 3.553658,-1.443379 -3.425856,-1.724918 3.723367,0.921069 -1.757695,-3.409156 2.470877,2.933701 0.581847,-3.791212 0.274595,3.825759 2.699142,-2.725154 -2.026573,3.256507 3.785457,-0.61818 -3.553658,1.44338 3.425856,1.724918 -3.723367,-0.921069 z" />
      </g>
      <path
         sodipodi:nodetypes="ccccc"
         inkscape:connector-curvature="0"
         id="path847"
         d="m 92.248274,31.873235 c 17.864696,-5.045289 76.474846,8.50933 69.714526,16.41843 l -0.37798,1.322916 C 143.83299,33.233944 117.06605,35.785054 92.742524,33.204975 Z"
         style="fill:none;stroke:#000000;stroke-width:0.26458332px;stroke-linecap:butt;stroke-linejoin:miter;stroke-opacity:1" />
      <path
         sodipodi:nodetypes="ccccc"
         inkscape:connector-curvature="0"
         id="path847-9"
         d="M 91.754026,43.90497 C 105.3982,39.896028 155.84498,74.297894 154.74058,76.727566 v 0 C 134.77602,63.776363 116.17197,46.970377 92.248276,45.23671 Z"
         style="fill:none;stroke:#000000;stroke-width:0.26458332px;stroke-linecap:butt;stroke-linejoin:miter;stroke-opacity:1" />
      <path
         sodipodi:nodetypes="ccccc"
         inkscape:connector-curvature="0"
         id="path847-2"
         d="m 92.742524,35.321643 c 15.084836,-3.128212 68.395046,22.173964 66.690706,24.091345 v 0 C 139.20874,50.353658 120.20792,40.315392 93.236774,36.653383 Z"
         style="fill:none;stroke:#000000;stroke-width:0.26458332px;stroke-linecap:butt;stroke-linejoin:miter;stroke-opacity:1" />
      <path
         sodipodi:nodetypes="ccccc"
         inkscape:connector-curvature="0"
         id="path847-4"
         d="m 92.13201,39.407054 c 18.70661,2.341743 71.54843,16.336866 64.30947,28.589262 v 0 C 145.95733,49.653019 116.03064,48.979711 92.62626,40.738794 Z"
         style="fill:none;stroke:#000000;stroke-width:0.26458332px;stroke-linecap:butt;stroke-linejoin:miter;stroke-opacity:1" />
      <path
         sodipodi:nodetypes="ccccc"
         inkscape:connector-curvature="0"
         id="path847-25"
         d="m 92.248276,45.23671 c 18.393574,2.505795 66.719994,38.330837 57.364374,42.883661 l -0.87466,1.062041 C 139.00118,67.077041 113.44116,58.73063 92.169801,46.655039 Z"
         style="fill:none;stroke:#000000;stroke-width:0.26458332px;stroke-linecap:butt;stroke-linejoin:miter;stroke-opacity:1" />
      <path
         sodipodi:nodetypes="ccccc"
         inkscape:connector-curvature="0"
         id="path847-6"
         d="m 92.62626,40.738794 c 17.25426,6.847845 55.56801,53.226018 45.39304,55.399938 l -1.10403,0.82102 C 132.76948,73.163428 109.96033,58.925454 92.209615,42.096815 Z"
         style="fill:none;stroke:#000000;stroke-width:0.26458332px;stroke-linecap:butt;stroke-linejoin:miter;stroke-opacity:1" />
      <path
         sodipodi:nodetypes="ccccc"
         inkscape:connector-curvature="0"
         id="path847-2-0"
         d="m 91.963349,35.604907 c 15.402241,-0.329445 63.214661,34.255964 61.189721,35.830989 v 0 C 134.91604,58.845732 118.06045,45.515788 92.206869,37.004376 Z"
         style="fill:none;stroke:#000000;stroke-width:0.26458332px;stroke-linecap:butt;stroke-linejoin:miter;stroke-opacity:1" />
      <path
         sodipodi:nodetypes="ccccc"
         inkscape:connector-curvature="0"
         id="path847-4-6"
         d="m 91.568419,33.052623 c 18.842261,0.624421 72.740961,9.737697 66.650631,22.599716 v 0 C 146.10428,38.342619 116.24107,40.403841 92.182167,34.333688 Z"
         style="fill:none;stroke:#000000;stroke-width:0.26458332px;stroke-linecap:butt;stroke-linejoin:miter;stroke-opacity:1" />
      <path
         transform="scale(0.26458333)"
         inkscape:connector-curvature="0"
         id="path927"
         d="m 604.52725,180.98903 c -15.47952,-13.90359 -42.44637,-27.68113 -69.31674,-35.41436 -28.9743,-8.33875 -56.57673,-12.15193 -115.68326,-15.98124 -17.05,-1.10461 -34.375,-2.43035 -38.5,-2.94608 -4.125,-0.51573 -12.45,-1.25751 -18.5,-1.64839 -9.80208,-0.63329 -12.43034,-1.37808 -12.48468,-3.53788 -0.0817,-3.24745 54.53204,-4.68945 78.48468,-2.07228 80.25794,8.76933 164.85427,32.87517 181.36542,51.68032 3.50377,3.99058 3.87722,6.70457 1.56134,11.34686 -0.86528,1.7345 -1.65278,3.13348 -1.75,3.10883 -0.0972,-0.0247 -2.42676,-2.06575 -5.17676,-4.53578 z"
         style="opacity:1;fill:#e6e6e6;fill-opacity:1;fill-rule:evenodd" />
      <path
         transform="scale(0.26458333)"
         inkscape:connector-curvature="0"
         id="path929"
         d="m 586.51867,247.9798 c -19.18943,-26.99153 -52.30803,-45.46349 -109.9407,-61.31962 -10.46982,-2.88049 -15.08255,-4.77551 -23.32503,-9.58245 -5.65087,-3.29555 -9.85736,-6.13088 -9.34776,-6.30075 2.73963,-0.91321 51.82055,14.88036 76.10793,24.4905 51.15782,20.24233 76.84015,40.40454 72.23932,56.71232 l -0.82103,2.91017 z"
         style="opacity:1;fill:#e6e6e6;fill-opacity:1;fill-rule:evenodd" />
      <path
         transform="scale(0.26458333)"
         inkscape:connector-curvature="0"
         id="path931"
         d="m 557.12475,324.98311 c -6.79754,-13.14258 -18.97662,-29.32594 -31.57747,-41.95962 -19.38792,-19.43844 -40.30697,-34.38414 -78.02003,-55.74175 -7.90859,-4.47879 -12.61425,-8.1764 -22.5,-17.68005 -6.875,-6.60928 -12.04366,-12.02029 -11.48591,-12.02447 0.55775,-0.004 7.08275,3.49208 14.5,7.76946 70.29398,40.53717 137.82804,97.71592 140.69967,119.12552 0.44739,3.33554 0.0856,4.23135 -2.92414,7.24113 l -3.43469,3.43469 z"
         style="opacity:1;fill:#e6e6e6;fill-opacity:1;fill-rule:evenodd" />
      <path
         transform="scale(0.26458333)"
         inkscape:connector-curvature="0"
         id="path935"
         d="m 516.4237,337.62397 -6.10355,-1.48204 -4.16787,-9.62592 c -8.75407,-20.21798 -24.35474,-42.98723 -44.90756,-65.54277 -9.86751,-10.82902 -35.17127,-34.95708 -50.3766,-48.03592 -3.11253,-2.67724 -5.55516,-4.97507 -5.42807,-5.1063 0.12709,-0.13123 7.01762,3.27261 15.3123,7.56409 13.88054,7.18147 15.67242,8.4345 22.50684,15.7386 23.80342,25.43927 45.43266,52.17435 60.6247,74.93591 9.42867,14.12655 19.93684,32.3072 18.9837,32.84452 -0.18719,0.10553 -3.08694,-0.47505 -6.44389,-1.29017 z"
         style="opacity:1;fill:#ffff00;fill-opacity:1;fill-rule:evenodd" />
      <path
         transform="scale(0.26458333)"
         inkscape:connector-curvature="0"
         id="path937"
         d="m 550.52725,248.94079 c -37.61822,-26.56708 -74.11903,-50.35887 -98.5,-64.20382 -6.28952,-3.57157 -5.62129,-3.83741 3.79449,-1.50954 4.62712,1.14396 9.96002,3.6783 17.20551,8.17654 18.443,11.45002 50.9954,33.57128 67.5,45.87019 14.81982,11.04345 33.5,26.05629 33.5,26.9232 0,1.14122 -3.48312,-1.12007 -23.5,-15.25657 z"
         style="opacity:1;fill:#ff0000;fill-opacity:1;fill-rule:evenodd" />
      <path
         transform="scale(0.26458333)"
         inkscape:connector-curvature="0"
         id="path939"
         d="m 407.02725,159.1152 c -7.425,-1.78991 -17.1,-4.73126 -21.5,-6.53633 -4.4,-1.80508 -13.85,-5.45497 -21,-8.11088 -7.15,-2.65591 -12.325,-4.84387 -11.5,-4.86215 0.825,-0.0183 8.925,1.25517 18,2.82989 15.94981,2.76764 17.0489,3.11808 32.96091,10.50941 14.87421,6.90925 20.20051,9.80993 17.48909,9.52446 -0.5225,-0.055 -7.025,-1.56449 -14.45,-3.3544 z"
         style="opacity:1;fill:#ff0000;fill-opacity:1;fill-rule:evenodd" />
      <path
         transform="scale(0.26458333)"
         inkscape:connector-curvature="0"
         id="path941"
         d="m 588.02725,197.49174 c -26.64106,-27.22799 -60.87867,-39.62672 -143.39836,-51.92993 -14.79409,-2.20571 -30.99409,-5.11092 -36,-6.45601 -13.01864,-3.49812 -29.37953,-6.41013 -42.10164,-7.49349 -12.38644,-1.05477 -16.66601,-2.04073 -17.31553,-3.9893 -0.35717,-1.07149 0.92291,-1.20645 6.43484,-0.67848 3.78438,0.3625 15.00235,1.31075 24.92882,2.10722 27.77046,2.22821 67.3294,8.52292 101.45187,16.14324 70.67327,15.78296 112.97986,35.75899 116.59988,55.05533 0.356,1.89768 0.25417,4.23792 -0.2263,5.20052 -0.73955,1.48168 -2.33109,0.26058 -10.37358,-7.9591 z"
         style="opacity:1;fill:#ff0000;fill-opacity:1;fill-rule:evenodd" />
      <path
         transform="scale(0.26458333)"
         inkscape:connector-curvature="0"
         id="path943"
         d="m 570.52725,208.92168 c -75.56687,-34.76644 -118.10466,-50.57404 -165,-61.31617 -7.7,-1.7638 -19.40445,-4.97466 -26.00989,-7.13523 -6.60544,-2.16057 -14.93044,-4.56132 -18.5,-5.33499 -4.41133,-0.95611 -5.48439,-1.43213 -3.35019,-1.48617 1.72696,-0.0437 7.57696,0.83473 13,1.95211 5.42305,1.11739 19.19471,3.57404 30.60369,5.45923 17.80572,2.94216 23.68329,4.41041 41.5,10.36693 45.90372,15.34662 112.5299,44.15443 143.75639,62.15736 18.14588,10.4616 14.67684,9.45057 -16,-4.66307 z"
         style="opacity:1;fill:#00ff00;fill-opacity:1;fill-rule:evenodd" />
      <path
         transform="scale(0.26458333)"
         inkscape:connector-curvature="0"
         id="path949"
         d="m 574.02725,281.71929 c -7.39167,-5.28347 -62.23936,-42.98664 -72.60882,-49.91245 -37.88054,-25.3006 -73.20824,-43.18886 -103.4775,-52.39609 -6.78191,-2.0629 -11.94601,-4.3313 -14.80748,-6.50437 -2.41659,-1.83522 -3.96751,-3.33676 -3.44648,-3.33676 3.79465,0 29.66783,10.12149 49.6429,19.42011 41.38671,19.26598 120.19538,68.61863 145.19738,90.9275 4.16798,3.71902 3.83927,4.90372 -0.5,1.80206 z"
         style="opacity:1;fill:#0000ff;fill-opacity:1;fill-rule:evenodd" />
      <path
         transform="scale(0.26458333)"
         inkscape:connector-curvature="0"
         id="path951"
         d="m 604.02725,180.89143 c -3.025,-2.49466 -6.40993,-5.29545 -7.52206,-6.22398 -3.92113,-3.27376 -19.50864,-12.23492 -29.68262,-17.06435 -31.02283,-14.72604 -66.26377,-22.06601 -127.29532,-26.51303 -11.55,-0.84159 -23.925,-1.75614 -27.5,-2.03234 -3.575,-0.2762 -9.65,-0.72034 -13.5,-0.98697 -14.46961,-1.00211 -37.73761,-3.16342 -44.25,-4.1103 -2.65929,-0.38665 -4.25,-1.13686 -4.25,-2.00438 0,-0.76255 0.3375,-1.41072 0.75,-1.44038 0.4125,-0.0296 4.35,-0.46446 8.75,-0.96624 8.06554,-0.91979 59.85783,-1.37602 64.5,-0.56817 1.375,0.23928 5.425,0.71649 9,1.06047 3.575,0.34397 7.625,0.76901 9,0.94453 6.02948,0.76966 12.61772,1.69371 14,1.96359 2.33106,0.45512 11.32803,1.93566 13,2.13927 0.825,0.10047 3.075,0.47453 5,0.83125 1.925,0.35672 4.625,0.83286 6,1.05809 1.375,0.22524 7,1.32855 12.5,2.45181 5.5,1.12325 11.24136,2.26002 12.75858,2.52614 1.51721,0.26612 3.54221,0.72028 4.5,1.00925 0.95778,0.28897 2.86642,0.745 4.24142,1.0134 2.34075,0.45692 4.10152,0.86591 9,2.09053 l 4,1 c 1.1,0.275 2.7875,0.69464 3.75,0.93253 0.9625,0.2379 3.8875,1.09385 6.5,1.90213 2.6125,0.80828 4.75,1.27281 4.75,1.03229 0,-0.24052 0.83038,0.007 1.8453,0.55026 1.01491,0.54316 2.92741,1.18527 4.25,1.4269 1.98408,0.36248 17.33793,5.33743 22.9047,7.42157 0.825,0.30887 1.725,0.63932 2,0.73432 4.71132,1.6276 7.98168,3.07583 18,7.97101 12.16584,5.9445 12.78069,6.32516 17.1979,10.64731 4.37794,4.28373 5.56455,7.98324 3.7545,11.70542 -0.71578,1.47194 -1.22289,3.01376 -1.12691,3.42626 0.35804,1.53875 -1.47682,0.48276 -6.82549,-3.92819 z"
         style="opacity:1;fill:#0000ff;fill-opacity:1;fill-rule:evenodd" />
      <path
         transform="scale(0.26458333)"
         inkscape:connector-curvature="0"
         id="path955"
         d="m 412.90697,209.19732 c -13.53704,-7.04372 -17.30644,-9.58188 -28.26317,-19.0312 -6.95358,-5.99693 -12.4553,-11.09108 -12.22605,-11.32033 0.68839,-0.68839 13.47495,4.65433 23.6095,9.86496 7.97489,4.10025 11.50673,6.80186 22,16.82843 6.875,6.56922 12.05,11.90845 11.5,11.86494 -0.55,-0.0435 -8.02913,-3.73657 -16.62028,-8.2068 z"
         style="opacity:1;fill:#cccccc;fill-opacity:1;fill-rule:evenodd" />
      <path
         transform="scale(0.26458333)"
         inkscape:connector-curvature="0"
         id="path957"
         d="m 402.02725,168.12477 c -21.34854,-5.5009 -47.19853,-13.05585 -50.23835,-14.68271 -0.96891,-0.51855 -1.76165,-1.43495 -1.76165,-2.03645 0,-1.39337 5.52636,-0.70927 27,3.34229 14.80737,2.79379 17.88488,3.74815 30,9.30319 17.34607,7.95354 20.13578,9.45157 17.5,9.3972 -1.1,-0.0227 -11.225,-2.41827 -22.5,-5.32352 z"
         style="opacity:1;fill:#cccccc;fill-opacity:1;fill-rule:evenodd" />
      <path
         transform="scale(0.26458333)"
         inkscape:connector-curvature="0"
         id="path961"
         d="m 443.52725,178.17954 c -6.947,-1.9462 -37.59388,-16.41535 -35.07025,-16.55753 0.51135,-0.0288 5.85204,1.12458 11.86819,2.5631 8.96172,2.14284 12.9953,3.7796 22.32026,9.05721 14.73718,8.34075 14.82705,8.84397 0.8818,4.93722 z"
         style="opacity:1;fill:#ffff00;fill-opacity:1;fill-rule:evenodd" />
      <path
         transform="scale(0.26458333)"
         inkscape:connector-curvature="0"
         id="path963"
         d="m 371.52725,187.7411 c -18.36717,-9.59218 -22.5,-12.1458 -22.5,-13.90243 0,-1.24249 0.82305,-1.42197 4.25,-0.92677 8.90889,1.28733 11.79895,2.77564 21.01577,10.82264 15.48024,13.51545 15.47008,13.53016 -2.76577,4.00656 z"
         style="opacity:1;fill:#ffff00;fill-opacity:1;fill-rule:evenodd" />
      <path
         transform="scale(0.26458333)"
         inkscape:connector-curvature="0"
         id="path965"
         d="m 358.52725,163.83137 c -4.42354,-0.44462 -8.5,-3.56356 -8.5,-6.50345 0,-1.50169 0.46518,-1.74991 2.25,-1.20062 1.95257,0.60091 13.50849,6.93934 14.66667,8.04467 0.43728,0.41732 -1.76115,0.32836 -8.41667,-0.3406 z"
         style="opacity:1;fill:#ffff00;fill-opacity:1;fill-rule:evenodd" />
    </g>
  </g>
</svg>
